<?xml version="1.0" encoding="utf-8" standalone="no"?>
<!DOCTYPE svg PUBLIC "-//W3C//DTD SVG 1.1//EN"
  "http://www.w3.org/Graphics/SVG/1.1/DTD/svg11.dtd">
<svg xmlns:xlink="http://www.w3.org/1999/xlink" width="925.533125pt" height="329.951062pt" viewBox="0 0 925.533125 329.951062" xmlns="http://www.w3.org/2000/svg" version="1.1">
 <metadata>
  <rdf:RDF xmlns:dc="http://purl.org/dc/elements/1.1/" xmlns:cc="http://creativecommons.org/ns#" xmlns:rdf="http://www.w3.org/1999/02/22-rdf-syntax-ns#">
   <cc:Work>
    <dc:type rdf:resource="http://purl.org/dc/dcmitype/StillImage"/>
    <dc:date>2026-09-30T03:09:51.087739</dc:date>
    <dc:format>image/svg+xml</dc:format>
    <dc:creator>
     <cc:Agent>
      <dc:title>Matplotlib v3.11.2, https://matplotlib.org/</dc:title>
     </cc:Agent>
    </dc:creator>
   </cc:Work>
  </rdf:RDF>
 </metadata>
 <defs>
  <style type="text/css">*{stroke-linejoin: round; stroke-linecap: butt}</style>
 </defs>
 <g id="figure_1">
  <g id="patch_1">
   <path d="M 0 329.951062 
L 925.533125 329.951062 
L 925.533125 0 
L 0 0 
z
" style="fill: #ffffff"/>
  </g>
  <g id="axes_1">
   <g id="patch_2">
    <path d="M 56.913594 278.350281 
L 318.476094 278.350281 
L 318.476094 39.958281 
L 56.913594 39.958281 
z
" style="fill: #ffffff"/>
   </g>
   <g id="matplotlib.axis_1">
    <g id="xtick_1">
     <g id="line2d_1">
      <path d="M 56.913594 278.350281 
L 56.913594 39.958281 
" clip-path="url(#p1bd55d8a41)" style="fill: none; stroke: #d6d6d6; stroke-width: 0.6; stroke-linecap: square"/>
     </g>
     <g id="line2d_2">
      <defs>
       <path id="m25fc7f65fc" d="M 0 0 
L 0 3.5 
" style="stroke: #777777; stroke-width: 0.8"/>
      </defs>
      <g>
       <use xlink:href="#m25fc7f65fc" x="56.913594" y="278.350281" style="fill: #777777; stroke: #777777; stroke-width: 0.8"/>
      </g>
     </g>
     <g id="text_1">
      <!-- 0.00 -->
      <g style="fill: #777777" transform="translate(46.894063 292.188172) scale(0.09 -0.09)">
       <defs>
        <path id="DejaVuSans-13" d="M 2034 4250 
Q 1547 4250 1301 3770 
Q 1056 3291 1056 2328 
Q 1056 1369 1301 889 
Q 1547 409 2034 409 
Q 2525 409 2770 889 
Q 3016 1369 3016 2328 
Q 3016 3291 2770 3770 
Q 2525 4250 2034 4250 
z
M 2034 4750 
Q 2819 4750 3233 4129 
Q 3647 3509 3647 2328 
Q 3647 1150 3233 529 
Q 2819 -91 2034 -91 
Q 1250 -91 836 529 
Q 422 1150 422 2328 
Q 422 3509 836 4129 
Q 1250 4750 2034 4750 
z
" transform="scale(0.015625)"/>
        <path id="DejaVuSans-11" d="M 684 794 
L 1344 794 
L 1344 0 
L 684 0 
L 684 794 
z
" transform="scale(0.015625)"/>
       </defs>
       <use xlink:href="#DejaVuSans-13"/>
       <use xlink:href="#DejaVuSans-11" transform="translate(63.625 0)"/>
       <use xlink:href="#DejaVuSans-13" transform="translate(95.40625 0)"/>
       <use xlink:href="#DejaVuSans-13" transform="translate(159.03125 0)"/>
      </g>
     </g>
    </g>
    <g id="xtick_2">
     <g id="line2d_3">
      <path d="M 89.608906 278.350281 
L 89.608906 39.958281 
" clip-path="url(#p1bd55d8a41)" style="fill: none; stroke: #d6d6d6; stroke-width: 0.6; stroke-linecap: square"/>
     </g>
     <g id="line2d_4">
      <g>
       <use xlink:href="#m25fc7f65fc" x="89.608906" y="278.350281" style="fill: #777777; stroke: #777777; stroke-width: 0.8"/>
      </g>
     </g>
     <g id="text_2">
      <!-- 0.25 -->
      <g style="fill: #777777" transform="translate(79.589375 292.188172) scale(0.09 -0.09)">
       <defs>
        <path id="DejaVuSans-15" d="M 1228 531 
L 3431 531 
L 3431 0 
L 469 0 
L 469 531 
Q 828 903 1448 1529 
Q 2069 2156 2228 2338 
Q 2531 2678 2651 2914 
Q 2772 3150 2772 3378 
Q 2772 3750 2511 3984 
Q 2250 4219 1831 4219 
Q 1534 4219 1204 4116 
Q 875 4013 500 3803 
L 500 4441 
Q 881 4594 1212 4672 
Q 1544 4750 1819 4750 
Q 2544 4750 2975 4387 
Q 3406 4025 3406 3419 
Q 3406 3131 3298 2873 
Q 3191 2616 2906 2266 
Q 2828 2175 2409 1742 
Q 1991 1309 1228 531 
z
" transform="scale(0.015625)"/>
        <path id="DejaVuSans-18" d="M 691 4666 
L 3169 4666 
L 3169 4134 
L 1269 4134 
L 1269 2991 
Q 1406 3038 1543 3061 
Q 1681 3084 1819 3084 
Q 2600 3084 3056 2656 
Q 3513 2228 3513 1497 
Q 3513 744 3044 326 
Q 2575 -91 1722 -91 
Q 1428 -91 1123 -41 
Q 819 9 494 109 
L 494 744 
Q 775 591 1075 516 
Q 1375 441 1709 441 
Q 2250 441 2565 725 
Q 2881 1009 2881 1497 
Q 2881 1984 2565 2268 
Q 2250 2553 1709 2553 
Q 1456 2553 1204 2497 
Q 953 2441 691 2322 
L 691 4666 
z
" transform="scale(0.015625)"/>
       </defs>
       <use xlink:href="#DejaVuSans-13"/>
       <use xlink:href="#DejaVuSans-11" transform="translate(63.625 0)"/>
       <use xlink:href="#DejaVuSans-15" transform="translate(95.40625 0)"/>
       <use xlink:href="#DejaVuSans-18" transform="translate(159.03125 0)"/>
      </g>
     </g>
    </g>
    <g id="xtick_3">
     <g id="line2d_5">
      <path d="M 122.304219 278.350281 
L 122.304219 39.958281 
" clip-path="url(#p1bd55d8a41)" style="fill: none; stroke: #d6d6d6; stroke-width: 0.6; stroke-linecap: square"/>
     </g>
     <g id="line2d_6">
      <g>
       <use xlink:href="#m25fc7f65fc" x="122.304219" y="278.350281" style="fill: #777777; stroke: #777777; stroke-width: 0.8"/>
      </g>
     </g>
     <g id="text_3">
      <!-- 0.50 -->
      <g style="fill: #777777" transform="translate(112.284688 292.188172) scale(0.09 -0.09)">
       <use xlink:href="#DejaVuSans-13"/>
       <use xlink:href="#DejaVuSans-11" transform="translate(63.625 0)"/>
       <use xlink:href="#DejaVuSans-18" transform="translate(95.40625 0)"/>
       <use xlink:href="#DejaVuSans-13" transform="translate(159.03125 0)"/>
      </g>
     </g>
    </g>
    <g id="xtick_4">
     <g id="line2d_7">
      <path d="M 154.999531 278.350281 
L 154.999531 39.958281 
" clip-path="url(#p1bd55d8a41)" style="fill: none; stroke: #d6d6d6; stroke-width: 0.6; stroke-linecap: square"/>
     </g>
     <g id="line2d_8">
      <g>
       <use xlink:href="#m25fc7f65fc" x="154.999531" y="278.350281" style="fill: #777777; stroke: #777777; stroke-width: 0.8"/>
      </g>
     </g>
     <g id="text_4">
      <!-- 0.75 -->
      <g style="fill: #777777" transform="translate(144.98 292.188172) scale(0.09 -0.09)">
       <defs>
        <path id="DejaVuSans-1a" d="M 525 4666 
L 3525 4666 
L 3525 4397 
L 1831 0 
L 1172 0 
L 2766 4134 
L 525 4134 
L 525 4666 
z
" transform="scale(0.015625)"/>
       </defs>
       <use xlink:href="#DejaVuSans-13"/>
       <use xlink:href="#DejaVuSans-11" transform="translate(63.625 0)"/>
       <use xlink:href="#DejaVuSans-1a" transform="translate(95.40625 0)"/>
       <use xlink:href="#DejaVuSans-18" transform="translate(159.03125 0)"/>
      </g>
     </g>
    </g>
    <g id="xtick_5">
     <g id="line2d_9">
      <path d="M 187.694844 278.350281 
L 187.694844 39.958281 
" clip-path="url(#p1bd55d8a41)" style="fill: none; stroke: #d6d6d6; stroke-width: 0.6; stroke-linecap: square"/>
     </g>
     <g id="line2d_10">
      <g>
       <use xlink:href="#m25fc7f65fc" x="187.694844" y="278.350281" style="fill: #777777; stroke: #777777; stroke-width: 0.8"/>
      </g>
     </g>
     <g id="text_5">
      <!-- 1.00 -->
      <g style="fill: #777777" transform="translate(177.675313 292.188172) scale(0.09 -0.09)">
       <defs>
        <path id="DejaVuSans-14" d="M 794 531 
L 1825 531 
L 1825 4091 
L 703 3866 
L 703 4441 
L 1819 4666 
L 2450 4666 
L 2450 531 
L 3481 531 
L 3481 0 
L 794 0 
L 794 531 
z
" transform="scale(0.015625)"/>
       </defs>
       <use xlink:href="#DejaVuSans-14"/>
       <use xlink:href="#DejaVuSans-11" transform="translate(63.625 0)"/>
       <use xlink:href="#DejaVuSans-13" transform="translate(95.40625 0)"/>
       <use xlink:href="#DejaVuSans-13" transform="translate(159.03125 0)"/>
      </g>
     </g>
    </g>
    <g id="xtick_6">
     <g id="line2d_11">
      <path d="M 220.390156 278.350281 
L 220.390156 39.958281 
" clip-path="url(#p1bd55d8a41)" style="fill: none; stroke: #d6d6d6; stroke-width: 0.6; stroke-linecap: square"/>
     </g>
     <g id="line2d_12">
      <g>
       <use xlink:href="#m25fc7f65fc" x="220.390156" y="278.350281" style="fill: #777777; stroke: #777777; stroke-width: 0.8"/>
      </g>
     </g>
     <g id="text_6">
      <!-- 1.25 -->
      <g style="fill: #777777" transform="translate(210.370625 292.188172) scale(0.09 -0.09)">
       <use xlink:href="#DejaVuSans-14"/>
       <use xlink:href="#DejaVuSans-11" transform="translate(63.625 0)"/>
       <use xlink:href="#DejaVuSans-15" transform="translate(95.40625 0)"/>
       <use xlink:href="#DejaVuSans-18" transform="translate(159.03125 0)"/>
      </g>
     </g>
    </g>
    <g id="xtick_7">
     <g id="line2d_13">
      <path d="M 253.085469 278.350281 
L 253.085469 39.958281 
" clip-path="url(#p1bd55d8a41)" style="fill: none; stroke: #d6d6d6; stroke-width: 0.6; stroke-linecap: square"/>
     </g>
     <g id="line2d_14">
      <g>
       <use xlink:href="#m25fc7f65fc" x="253.085469" y="278.350281" style="fill: #777777; stroke: #777777; stroke-width: 0.8"/>
      </g>
     </g>
     <g id="text_7">
      <!-- 1.50 -->
      <g style="fill: #777777" transform="translate(243.065938 292.188172) scale(0.09 -0.09)">
       <use xlink:href="#DejaVuSans-14"/>
       <use xlink:href="#DejaVuSans-11" transform="translate(63.625 0)"/>
       <use xlink:href="#DejaVuSans-18" transform="translate(95.40625 0)"/>
       <use xlink:href="#DejaVuSans-13" transform="translate(159.03125 0)"/>
      </g>
     </g>
    </g>
    <g id="xtick_8">
     <g id="line2d_15">
      <path d="M 285.780781 278.350281 
L 285.780781 39.958281 
" clip-path="url(#p1bd55d8a41)" style="fill: none; stroke: #d6d6d6; stroke-width: 0.6; stroke-linecap: square"/>
     </g>
     <g id="line2d_16">
      <g>
       <use xlink:href="#m25fc7f65fc" x="285.780781" y="278.350281" style="fill: #777777; stroke: #777777; stroke-width: 0.8"/>
      </g>
     </g>
     <g id="text_8">
      <!-- 1.75 -->
      <g style="fill: #777777" transform="translate(275.76125 292.188172) scale(0.09 -0.09)">
       <use xlink:href="#DejaVuSans-14"/>
       <use xlink:href="#DejaVuSans-11" transform="translate(63.625 0)"/>
       <use xlink:href="#DejaVuSans-1a" transform="translate(95.40625 0)"/>
       <use xlink:href="#DejaVuSans-18" transform="translate(159.03125 0)"/>
      </g>
     </g>
    </g>
    <g id="xtick_9">
     <g id="line2d_17">
      <path d="M 318.476094 278.350281 
L 318.476094 39.958281 
" clip-path="url(#p1bd55d8a41)" style="fill: none; stroke: #d6d6d6; stroke-width: 0.6; stroke-linecap: square"/>
     </g>
     <g id="line2d_18">
      <g>
       <use xlink:href="#m25fc7f65fc" x="318.476094" y="278.350281" style="fill: #777777; stroke: #777777; stroke-width: 0.8"/>
      </g>
     </g>
     <g id="text_9">
      <!-- 2.00 -->
      <g style="fill: #777777" transform="translate(308.456563 292.188172) scale(0.09 -0.09)">
       <use xlink:href="#DejaVuSans-15"/>
       <use xlink:href="#DejaVuSans-11" transform="translate(63.625 0)"/>
       <use xlink:href="#DejaVuSans-13" transform="translate(95.40625 0)"/>
       <use xlink:href="#DejaVuSans-13" transform="translate(159.03125 0)"/>
      </g>
     </g>
    </g>
    <g id="text_10">
     <!-- time (s) -->
     <g style="fill: #222222" transform="translate(168.303438 305.948719) scale(0.1 -0.1)">
      <defs>
       <path id="DejaVuSans-57" d="M 1172 4494 
L 1172 3500 
L 2356 3500 
L 2356 3053 
L 1172 3053 
L 1172 1153 
Q 1172 725 1289 603 
Q 1406 481 1766 481 
L 2356 481 
L 2356 0 
L 1766 0 
Q 1100 0 847 248 
Q 594 497 594 1153 
L 594 3053 
L 172 3053 
L 172 3500 
L 594 3500 
L 594 4494 
L 1172 4494 
z
" transform="scale(0.015625)"/>
       <path id="DejaVuSans-4c" d="M 603 3500 
L 1178 3500 
L 1178 0 
L 603 0 
L 603 3500 
z
M 603 4863 
L 1178 4863 
L 1178 4134 
L 603 4134 
L 603 4863 
z
" transform="scale(0.015625)"/>
       <path id="DejaVuSans-50" d="M 3328 2828 
Q 3544 3216 3844 3400 
Q 4144 3584 4550 3584 
Q 5097 3584 5394 3201 
Q 5691 2819 5691 2113 
L 5691 0 
L 5113 0 
L 5113 2094 
Q 5113 2597 4934 2840 
Q 4756 3084 4391 3084 
Q 3944 3084 3684 2787 
Q 3425 2491 3425 1978 
L 3425 0 
L 2847 0 
L 2847 2094 
Q 2847 2600 2669 2842 
Q 2491 3084 2119 3084 
Q 1678 3084 1418 2786 
Q 1159 2488 1159 1978 
L 1159 0 
L 581 0 
L 581 3500 
L 1159 3500 
L 1159 2956 
Q 1356 3278 1631 3431 
Q 1906 3584 2284 3584 
Q 2666 3584 2933 3390 
Q 3200 3197 3328 2828 
z
" transform="scale(0.015625)"/>
       <path id="DejaVuSans-48" d="M 3597 1894 
L 3597 1613 
L 953 1613 
Q 991 1019 1311 708 
Q 1631 397 2203 397 
Q 2534 397 2845 478 
Q 3156 559 3463 722 
L 3463 178 
Q 3153 47 2828 -22 
Q 2503 -91 2169 -91 
Q 1331 -91 842 396 
Q 353 884 353 1716 
Q 353 2575 817 3079 
Q 1281 3584 2069 3584 
Q 2775 3584 3186 3129 
Q 3597 2675 3597 1894 
z
M 3022 2063 
Q 3016 2534 2758 2815 
Q 2500 3097 2075 3097 
Q 1594 3097 1305 2825 
Q 1016 2553 972 2059 
L 3022 2063 
z
" transform="scale(0.015625)"/>
       <path id="DejaVuSans-3" transform="scale(0.015625)"/>
       <path id="DejaVuSans-b" d="M 1984 4856 
Q 1566 4138 1362 3434 
Q 1159 2731 1159 2009 
Q 1159 1288 1364 580 
Q 1569 -128 1984 -844 
L 1484 -844 
Q 1016 -109 783 600 
Q 550 1309 550 2009 
Q 550 2706 781 3412 
Q 1013 4119 1484 4856 
L 1984 4856 
z
" transform="scale(0.015625)"/>
       <path id="DejaVuSans-56" d="M 2834 3397 
L 2834 2853 
Q 2591 2978 2328 3040 
Q 2066 3103 1784 3103 
Q 1356 3103 1142 2972 
Q 928 2841 928 2578 
Q 928 2378 1081 2264 
Q 1234 2150 1697 2047 
L 1894 2003 
Q 2506 1872 2764 1633 
Q 3022 1394 3022 966 
Q 3022 478 2636 193 
Q 2250 -91 1575 -91 
Q 1294 -91 989 -36 
Q 684 19 347 128 
L 347 722 
Q 666 556 975 473 
Q 1284 391 1588 391 
Q 1994 391 2212 530 
Q 2431 669 2431 922 
Q 2431 1156 2273 1281 
Q 2116 1406 1581 1522 
L 1381 1569 
Q 847 1681 609 1914 
Q 372 2147 372 2553 
Q 372 3047 722 3315 
Q 1072 3584 1716 3584 
Q 2034 3584 2315 3537 
Q 2597 3491 2834 3397 
z
" transform="scale(0.015625)"/>
       <path id="DejaVuSans-c" d="M 513 4856 
L 1013 4856 
Q 1481 4119 1714 3412 
Q 1947 2706 1947 2009 
Q 1947 1309 1714 600 
Q 1481 -109 1013 -844 
L 513 -844 
Q 928 -128 1133 580 
Q 1338 1288 1338 2009 
Q 1338 2731 1133 3434 
Q 928 4138 513 4856 
z
" transform="scale(0.015625)"/>
      </defs>
      <use xlink:href="#DejaVuSans-57"/>
      <use xlink:href="#DejaVuSans-4c" transform="translate(39.203125 0)"/>
      <use xlink:href="#DejaVuSans-50" transform="translate(66.984375 0)"/>
      <use xlink:href="#DejaVuSans-48" transform="translate(164.390625 0)"/>
      <use xlink:href="#DejaVuSans-3" transform="translate(225.921875 0)"/>
      <use xlink:href="#DejaVuSans-b" transform="translate(257.703125 0)"/>
      <use xlink:href="#DejaVuSans-56" transform="translate(296.71875 0)"/>
      <use xlink:href="#DejaVuSans-c" transform="translate(348.8125 0)"/>
     </g>
    </g>
   </g>
   <g id="matplotlib.axis_2">
    <g id="ytick_1">
     <g id="line2d_19">
      <path d="M 56.913594 278.350281 
L 318.476094 278.350281 
" clip-path="url(#p1bd55d8a41)" style="fill: none; stroke: #d6d6d6; stroke-width: 0.6; stroke-linecap: square"/>
     </g>
     <g id="line2d_20">
      <defs>
       <path id="mab3052560b" d="M 0 0 
L -3.5 0 
" style="stroke: #777777; stroke-width: 0.8"/>
      </defs>
      <g>
       <use xlink:href="#mab3052560b" x="56.913594" y="278.350281" style="fill: #777777; stroke: #777777; stroke-width: 0.8"/>
      </g>
     </g>
     <g id="text_11">
      <!-- 0.0 -->
      <g style="fill: #777777" transform="translate(35.600781 281.769227) scale(0.09 -0.09)">
       <use xlink:href="#DejaVuSans-13"/>
       <use xlink:href="#DejaVuSans-11" transform="translate(63.625 0)"/>
       <use xlink:href="#DejaVuSans-13" transform="translate(95.40625 0)"/>
      </g>
     </g>
    </g>
    <g id="ytick_2">
     <g id="line2d_21">
      <path d="M 56.913594 246.564681 
L 318.476094 246.564681 
" clip-path="url(#p1bd55d8a41)" style="fill: none; stroke: #d6d6d6; stroke-width: 0.6; stroke-linecap: square"/>
     </g>
     <g id="line2d_22">
      <g>
       <use xlink:href="#mab3052560b" x="56.913594" y="246.564681" style="fill: #777777; stroke: #777777; stroke-width: 0.8"/>
      </g>
     </g>
     <g id="text_12">
      <!-- 0.1 -->
      <g style="fill: #777777" transform="translate(35.600781 249.983627) scale(0.09 -0.09)">
       <use xlink:href="#DejaVuSans-13"/>
       <use xlink:href="#DejaVuSans-11" transform="translate(63.625 0)"/>
       <use xlink:href="#DejaVuSans-14" transform="translate(95.40625 0)"/>
      </g>
     </g>
    </g>
    <g id="ytick_3">
     <g id="line2d_23">
      <path d="M 56.913594 214.779081 
L 318.476094 214.779081 
" clip-path="url(#p1bd55d8a41)" style="fill: none; stroke: #d6d6d6; stroke-width: 0.6; stroke-linecap: square"/>
     </g>
     <g id="line2d_24">
      <g>
       <use xlink:href="#mab3052560b" x="56.913594" y="214.779081" style="fill: #777777; stroke: #777777; stroke-width: 0.8"/>
      </g>
     </g>
     <g id="text_13">
      <!-- 0.2 -->
      <g style="fill: #777777" transform="translate(35.600781 218.198027) scale(0.09 -0.09)">
       <use xlink:href="#DejaVuSans-13"/>
       <use xlink:href="#DejaVuSans-11" transform="translate(63.625 0)"/>
       <use xlink:href="#DejaVuSans-15" transform="translate(95.40625 0)"/>
      </g>
     </g>
    </g>
    <g id="ytick_4">
     <g id="line2d_25">
      <path d="M 56.913594 182.993481 
L 318.476094 182.993481 
" clip-path="url(#p1bd55d8a41)" style="fill: none; stroke: #d6d6d6; stroke-width: 0.6; stroke-linecap: square"/>
     </g>
     <g id="line2d_26">
      <g>
       <use xlink:href="#mab3052560b" x="56.913594" y="182.993481" style="fill: #777777; stroke: #777777; stroke-width: 0.8"/>
      </g>
     </g>
     <g id="text_14">
      <!-- 0.3 -->
      <g style="fill: #777777" transform="translate(35.600781 186.412427) scale(0.09 -0.09)">
       <defs>
        <path id="DejaVuSans-16" d="M 2597 2516 
Q 3050 2419 3304 2112 
Q 3559 1806 3559 1356 
Q 3559 666 3084 287 
Q 2609 -91 1734 -91 
Q 1441 -91 1130 -33 
Q 819 25 488 141 
L 488 750 
Q 750 597 1062 519 
Q 1375 441 1716 441 
Q 2309 441 2620 675 
Q 2931 909 2931 1356 
Q 2931 1769 2642 2001 
Q 2353 2234 1838 2234 
L 1294 2234 
L 1294 2753 
L 1863 2753 
Q 2328 2753 2575 2939 
Q 2822 3125 2822 3475 
Q 2822 3834 2567 4026 
Q 2313 4219 1838 4219 
Q 1578 4219 1281 4162 
Q 984 4106 628 3988 
L 628 4550 
Q 988 4650 1302 4700 
Q 1616 4750 1894 4750 
Q 2613 4750 3031 4423 
Q 3450 4097 3450 3541 
Q 3450 3153 3228 2886 
Q 3006 2619 2597 2516 
z
" transform="scale(0.015625)"/>
       </defs>
       <use xlink:href="#DejaVuSans-13"/>
       <use xlink:href="#DejaVuSans-11" transform="translate(63.625 0)"/>
       <use xlink:href="#DejaVuSans-16" transform="translate(95.40625 0)"/>
      </g>
     </g>
    </g>
    <g id="ytick_5">
     <g id="line2d_27">
      <path d="M 56.913594 151.207881 
L 318.476094 151.207881 
" clip-path="url(#p1bd55d8a41)" style="fill: none; stroke: #d6d6d6; stroke-width: 0.6; stroke-linecap: square"/>
     </g>
     <g id="line2d_28">
      <g>
       <use xlink:href="#mab3052560b" x="56.913594" y="151.207881" style="fill: #777777; stroke: #777777; stroke-width: 0.8"/>
      </g>
     </g>
     <g id="text_15">
      <!-- 0.4 -->
      <g style="fill: #777777" transform="translate(35.600781 154.626827) scale(0.09 -0.09)">
       <defs>
        <path id="DejaVuSans-17" d="M 2419 4116 
L 825 1625 
L 2419 1625 
L 2419 4116 
z
M 2253 4666 
L 3047 4666 
L 3047 1625 
L 3713 1625 
L 3713 1100 
L 3047 1100 
L 3047 0 
L 2419 0 
L 2419 1100 
L 313 1100 
L 313 1709 
L 2253 4666 
z
" transform="scale(0.015625)"/>
       </defs>
       <use xlink:href="#DejaVuSans-13"/>
       <use xlink:href="#DejaVuSans-11" transform="translate(63.625 0)"/>
       <use xlink:href="#DejaVuSans-17" transform="translate(95.40625 0)"/>
      </g>
     </g>
    </g>
    <g id="ytick_6">
     <g id="line2d_29">
      <path d="M 56.913594 119.422281 
L 318.476094 119.422281 
" clip-path="url(#p1bd55d8a41)" style="fill: none; stroke: #d6d6d6; stroke-width: 0.6; stroke-linecap: square"/>
     </g>
     <g id="line2d_30">
      <g>
       <use xlink:href="#mab3052560b" x="56.913594" y="119.422281" style="fill: #777777; stroke: #777777; stroke-width: 0.8"/>
      </g>
     </g>
     <g id="text_16">
      <!-- 0.5 -->
      <g style="fill: #777777" transform="translate(35.600781 122.841227) scale(0.09 -0.09)">
       <use xlink:href="#DejaVuSans-13"/>
       <use xlink:href="#DejaVuSans-11" transform="translate(63.625 0)"/>
       <use xlink:href="#DejaVuSans-18" transform="translate(95.40625 0)"/>
      </g>
     </g>
    </g>
    <g id="ytick_7">
     <g id="line2d_31">
      <path d="M 56.913594 87.636681 
L 318.476094 87.636681 
" clip-path="url(#p1bd55d8a41)" style="fill: none; stroke: #d6d6d6; stroke-width: 0.6; stroke-linecap: square"/>
     </g>
     <g id="line2d_32">
      <g>
       <use xlink:href="#mab3052560b" x="56.913594" y="87.636681" style="fill: #777777; stroke: #777777; stroke-width: 0.8"/>
      </g>
     </g>
     <g id="text_17">
      <!-- 0.6 -->
      <g style="fill: #777777" transform="translate(35.600781 91.055627) scale(0.09 -0.09)">
       <defs>
        <path id="DejaVuSans-19" d="M 2113 2584 
Q 1688 2584 1439 2293 
Q 1191 2003 1191 1497 
Q 1191 994 1439 701 
Q 1688 409 2113 409 
Q 2538 409 2786 701 
Q 3034 994 3034 1497 
Q 3034 2003 2786 2293 
Q 2538 2584 2113 2584 
z
M 3366 4563 
L 3366 3988 
Q 3128 4100 2886 4159 
Q 2644 4219 2406 4219 
Q 1781 4219 1451 3797 
Q 1122 3375 1075 2522 
Q 1259 2794 1537 2939 
Q 1816 3084 2150 3084 
Q 2853 3084 3261 2657 
Q 3669 2231 3669 1497 
Q 3669 778 3244 343 
Q 2819 -91 2113 -91 
Q 1303 -91 875 529 
Q 447 1150 447 2328 
Q 447 3434 972 4092 
Q 1497 4750 2381 4750 
Q 2619 4750 2861 4703 
Q 3103 4656 3366 4563 
z
" transform="scale(0.015625)"/>
       </defs>
       <use xlink:href="#DejaVuSans-13"/>
       <use xlink:href="#DejaVuSans-11" transform="translate(63.625 0)"/>
       <use xlink:href="#DejaVuSans-19" transform="translate(95.40625 0)"/>
      </g>
     </g>
    </g>
    <g id="ytick_8">
     <g id="line2d_33">
      <path d="M 56.913594 55.851081 
L 318.476094 55.851081 
" clip-path="url(#p1bd55d8a41)" style="fill: none; stroke: #d6d6d6; stroke-width: 0.6; stroke-linecap: square"/>
     </g>
     <g id="line2d_34">
      <g>
       <use xlink:href="#mab3052560b" x="56.913594" y="55.851081" style="fill: #777777; stroke: #777777; stroke-width: 0.8"/>
      </g>
     </g>
     <g id="text_18">
      <!-- 0.7 -->
      <g style="fill: #777777" transform="translate(35.600781 59.270027) scale(0.09 -0.09)">
       <use xlink:href="#DejaVuSans-13"/>
       <use xlink:href="#DejaVuSans-11" transform="translate(63.625 0)"/>
       <use xlink:href="#DejaVuSans-1a" transform="translate(95.40625 0)"/>
      </g>
     </g>
    </g>
    <g id="text_19">
     <!-- joint angle (rad) -->
     <g style="fill: #222222" transform="translate(29.198438 199.366781) rotate(-90) scale(0.1 -0.1)">
      <defs>
       <path id="DejaVuSans-4d" d="M 603 3500 
L 1178 3500 
L 1178 -63 
Q 1178 -731 923 -1031 
Q 669 -1331 103 -1331 
L -116 -1331 
L -116 -844 
L 38 -844 
Q 366 -844 484 -692 
Q 603 -541 603 -63 
L 603 3500 
z
M 603 4863 
L 1178 4863 
L 1178 4134 
L 603 4134 
L 603 4863 
z
" transform="scale(0.015625)"/>
       <path id="DejaVuSans-52" d="M 1959 3097 
Q 1497 3097 1228 2736 
Q 959 2375 959 1747 
Q 959 1119 1226 758 
Q 1494 397 1959 397 
Q 2419 397 2687 759 
Q 2956 1122 2956 1747 
Q 2956 2369 2687 2733 
Q 2419 3097 1959 3097 
z
M 1959 3584 
Q 2709 3584 3137 3096 
Q 3566 2609 3566 1747 
Q 3566 888 3137 398 
Q 2709 -91 1959 -91 
Q 1206 -91 779 398 
Q 353 888 353 1747 
Q 353 2609 779 3096 
Q 1206 3584 1959 3584 
z
" transform="scale(0.015625)"/>
       <path id="DejaVuSans-51" d="M 3513 2113 
L 3513 0 
L 2938 0 
L 2938 2094 
Q 2938 2591 2744 2837 
Q 2550 3084 2163 3084 
Q 1697 3084 1428 2787 
Q 1159 2491 1159 1978 
L 1159 0 
L 581 0 
L 581 3500 
L 1159 3500 
L 1159 2956 
Q 1366 3272 1645 3428 
Q 1925 3584 2291 3584 
Q 2894 3584 3203 3211 
Q 3513 2838 3513 2113 
z
" transform="scale(0.015625)"/>
       <path id="DejaVuSans-44" d="M 2194 1759 
Q 1497 1759 1228 1600 
Q 959 1441 959 1056 
Q 959 750 1161 570 
Q 1363 391 1709 391 
Q 2188 391 2477 730 
Q 2766 1069 2766 1631 
L 2766 1759 
L 2194 1759 
z
M 3341 1997 
L 3341 0 
L 2766 0 
L 2766 531 
Q 2569 213 2275 61 
Q 1981 -91 1556 -91 
Q 1019 -91 701 211 
Q 384 513 384 1019 
Q 384 1609 779 1909 
Q 1175 2209 1959 2209 
L 2766 2209 
L 2766 2266 
Q 2766 2663 2505 2880 
Q 2244 3097 1772 3097 
Q 1472 3097 1187 3025 
Q 903 2953 641 2809 
L 641 3341 
Q 956 3463 1253 3523 
Q 1550 3584 1831 3584 
Q 2591 3584 2966 3190 
Q 3341 2797 3341 1997 
z
" transform="scale(0.015625)"/>
       <path id="DejaVuSans-4a" d="M 2906 1791 
Q 2906 2416 2648 2759 
Q 2391 3103 1925 3103 
Q 1463 3103 1205 2759 
Q 947 2416 947 1791 
Q 947 1169 1205 825 
Q 1463 481 1925 481 
Q 2391 481 2648 825 
Q 2906 1169 2906 1791 
z
M 3481 434 
Q 3481 -459 3084 -895 
Q 2688 -1331 1869 -1331 
Q 1566 -1331 1297 -1286 
Q 1028 -1241 775 -1147 
L 775 -588 
Q 1028 -725 1275 -790 
Q 1522 -856 1778 -856 
Q 2344 -856 2625 -561 
Q 2906 -266 2906 331 
L 2906 616 
Q 2728 306 2450 153 
Q 2172 0 1784 0 
Q 1141 0 747 490 
Q 353 981 353 1791 
Q 353 2603 747 3093 
Q 1141 3584 1784 3584 
Q 2172 3584 2450 3431 
Q 2728 3278 2906 2969 
L 2906 3500 
L 3481 3500 
L 3481 434 
z
" transform="scale(0.015625)"/>
       <path id="DejaVuSans-4f" d="M 603 4863 
L 1178 4863 
L 1178 0 
L 603 0 
L 603 4863 
z
" transform="scale(0.015625)"/>
       <path id="DejaVuSans-55" d="M 2631 2963 
Q 2534 3019 2420 3045 
Q 2306 3072 2169 3072 
Q 1681 3072 1420 2755 
Q 1159 2438 1159 1844 
L 1159 0 
L 581 0 
L 581 3500 
L 1159 3500 
L 1159 2956 
Q 1341 3275 1631 3429 
Q 1922 3584 2338 3584 
Q 2397 3584 2469 3576 
Q 2541 3569 2628 3553 
L 2631 2963 
z
" transform="scale(0.015625)"/>
       <path id="DejaVuSans-47" d="M 2906 2969 
L 2906 4863 
L 3481 4863 
L 3481 0 
L 2906 0 
L 2906 525 
Q 2725 213 2448 61 
Q 2172 -91 1784 -91 
Q 1150 -91 751 415 
Q 353 922 353 1747 
Q 353 2572 751 3078 
Q 1150 3584 1784 3584 
Q 2172 3584 2448 3432 
Q 2725 3281 2906 2969 
z
M 947 1747 
Q 947 1113 1208 752 
Q 1469 391 1925 391 
Q 2381 391 2643 752 
Q 2906 1113 2906 1747 
Q 2906 2381 2643 2742 
Q 2381 3103 1925 3103 
Q 1469 3103 1208 2742 
Q 947 2381 947 1747 
z
" transform="scale(0.015625)"/>
      </defs>
      <use xlink:href="#DejaVuSans-4d"/>
      <use xlink:href="#DejaVuSans-52" transform="translate(27.78125 0)"/>
      <use xlink:href="#DejaVuSans-4c" transform="translate(88.96875 0)"/>
      <use xlink:href="#DejaVuSans-51" transform="translate(116.75 0)"/>
      <use xlink:href="#DejaVuSans-57" transform="translate(180.125 0)"/>
      <use xlink:href="#DejaVuSans-3" transform="translate(219.328125 0)"/>
      <use xlink:href="#DejaVuSans-44" transform="translate(251.109375 0)"/>
      <use xlink:href="#DejaVuSans-51" transform="translate(312.390625 0)"/>
      <use xlink:href="#DejaVuSans-4a" transform="translate(375.765625 0)"/>
      <use xlink:href="#DejaVuSans-4f" transform="translate(439.25 0)"/>
      <use xlink:href="#DejaVuSans-48" transform="translate(467.03125 0)"/>
      <use xlink:href="#DejaVuSans-3" transform="translate(528.5625 0)"/>
      <use xlink:href="#DejaVuSans-b" transform="translate(560.34375 0)"/>
      <use xlink:href="#DejaVuSans-55" transform="translate(599.359375 0)"/>
      <use xlink:href="#DejaVuSans-44" transform="translate(640.46875 0)"/>
      <use xlink:href="#DejaVuSans-47" transform="translate(701.75 0)"/>
      <use xlink:href="#DejaVuSans-c" transform="translate(765.234375 0)"/>
     </g>
    </g>
   </g>
   <g id="line2d_35">
    <path d="M 56.913594 119.422281 
L 318.476094 119.422281 
" clip-path="url(#p1bd55d8a41)" style="fill: none; stroke-dasharray: 4.44,1.92; stroke-dashoffset: 0; stroke: #777777; stroke-width: 1.2"/>
   </g>
   <g id="line2d_36">
    <path d="M 56.913594 278.350281 
L 57.175156 278.230896 
L 57.436719 277.88733 
L 57.829063 276.962444 
L 58.352188 274.992501 
L 59.006094 271.409804 
L 59.790781 265.593741 
L 60.70625 256.941335 
L 61.883281 243.324001 
L 63.321875 223.775295 
L 65.545156 189.979227 
L 68.945469 138.493092 
L 70.645625 116.246553 
L 71.953438 101.725535 
L 73.130469 90.902475 
L 74.176719 83.201524 
L 75.092188 77.990835 
L 75.876875 74.663938 
L 76.530781 72.685391 
L 77.184688 71.412611 
L 77.707813 70.88834 
L 78.100156 70.774542 
L 78.4925 70.893037 
L 78.884844 71.236658 
L 79.407969 72.031528 
L 80.061875 73.538019 
L 80.846563 76.041992 
L 81.762031 79.823114 
L 82.808281 85.114113 
L 84.246875 93.707322 
L 86.208594 106.964806 
L 90.262813 134.70124 
L 91.962969 144.6206 
L 93.270781 151.060319 
L 94.447813 155.832391 
L 95.494063 159.203487 
L 96.409531 161.462695 
L 97.194219 162.885592 
L 97.978906 163.841789 
L 98.632813 164.291577 
L 99.286719 164.437152 
L 99.809844 164.343347 
L 100.46375 163.975999 
L 101.117656 163.346686 
L 101.902344 162.272145 
L 102.817813 160.62278 
L 103.994844 157.968433 
L 105.433438 154.091258 
L 107.525938 147.6954 
L 111.449375 135.593893 
L 113.149531 131.117796 
L 114.588125 127.950148 
L 115.765156 125.847568 
L 116.811406 124.373411 
L 117.857656 123.279606 
L 118.773125 122.633298 
L 119.688594 122.269866 
L 120.604063 122.177385 
L 121.519531 122.339599 
L 122.435 122.736511 
L 123.48125 123.447752 
L 124.658281 124.53025 
L 126.096875 126.175876 
L 128.058594 128.7995 
L 133.289844 136.002761 
L 134.99 137.892943 
L 136.428594 139.190523 
L 137.736406 140.101544 
L 139.044219 140.745492 
L 140.22125 141.09692 
L 141.398281 141.239724 
L 142.706094 141.169986 
L 144.013906 140.884358 
L 145.583281 140.300659 
L 147.414219 139.365406 
L 150.029844 137.752094 
L 154.476406 135.00514 
L 156.568906 133.979262 
L 158.530625 133.266304 
L 160.361563 132.842476 
L 162.1925 132.653121 
L 164.023438 132.681895 
L 166.115938 132.94275 
L 168.600781 133.487322 
L 172.916563 134.711039 
L 176.84 135.729041 
L 179.717188 136.239446 
L 182.332813 136.480045 
L 185.079219 136.507181 
L 188.217969 136.306057 
L 192.795312 135.759691 
L 199.203594 135.020845 
L 203.257813 134.79589 
L 207.442813 134.799949 
L 212.935625 135.052482 
L 222.744219 135.519666 
L 228.760156 135.545977 
L 238.961094 135.308289 
L 248.246563 135.204723 
L 262.763281 135.342098 
L 276.756875 135.337804 
L 301.605313 135.313683 
L 318.606875 135.320282 
L 318.606875 135.320282 
" clip-path="url(#p1bd55d8a41)" style="fill: none; stroke: #e05555; stroke-width: 2.2; stroke-linecap: square"/>
   </g>
   <g id="patch_3">
    <path d="M 56.913594 278.350281 
L 56.913594 39.958281 
" style="fill: none; stroke: #777777; stroke-width: 0.8; stroke-linejoin: miter; stroke-linecap: square"/>
   </g>
   <g id="patch_4">
    <path d="M 56.913594 278.350281 
L 318.476094 278.350281 
" style="fill: none; stroke: #777777; stroke-width: 0.8; stroke-linejoin: miter; stroke-linecap: square"/>
   </g>
   <g id="text_20">
    <!-- P only (Kp = 20) -->
    <g style="fill: #222222" transform="translate(56.913594 29.958281) scale(0.11 -0.11)">
     <defs>
      <path id="DejaVuSans-Bold-33" d="M 588 4666 
L 2584 4666 
Q 3475 4666 3951 4270 
Q 4428 3875 4428 3144 
Q 4428 2409 3951 2014 
Q 3475 1619 2584 1619 
L 1791 1619 
L 1791 0 
L 588 0 
L 588 4666 
z
M 1791 3794 
L 1791 2491 
L 2456 2491 
Q 2806 2491 2997 2661 
Q 3188 2831 3188 3144 
Q 3188 3456 2997 3625 
Q 2806 3794 2456 3794 
L 1791 3794 
z
" transform="scale(0.015625)"/>
      <path id="DejaVuSans-Bold-3" transform="scale(0.015625)"/>
      <path id="DejaVuSans-Bold-52" d="M 2203 2784 
Q 1831 2784 1636 2517 
Q 1441 2250 1441 1747 
Q 1441 1244 1636 976 
Q 1831 709 2203 709 
Q 2569 709 2762 976 
Q 2956 1244 2956 1747 
Q 2956 2250 2762 2517 
Q 2569 2784 2203 2784 
z
M 2203 3584 
Q 3106 3584 3614 3096 
Q 4122 2609 4122 1747 
Q 4122 884 3614 396 
Q 3106 -91 2203 -91 
Q 1297 -91 786 396 
Q 275 884 275 1747 
Q 275 2609 786 3096 
Q 1297 3584 2203 3584 
z
" transform="scale(0.015625)"/>
      <path id="DejaVuSans-Bold-51" d="M 4056 2131 
L 4056 0 
L 2931 0 
L 2931 347 
L 2931 1631 
Q 2931 2084 2911 2256 
Q 2891 2428 2841 2509 
Q 2775 2619 2662 2680 
Q 2550 2741 2406 2741 
Q 2056 2741 1856 2470 
Q 1656 2200 1656 1722 
L 1656 0 
L 538 0 
L 538 3500 
L 1656 3500 
L 1656 2988 
Q 1909 3294 2193 3439 
Q 2478 3584 2822 3584 
Q 3428 3584 3742 3212 
Q 4056 2841 4056 2131 
z
" transform="scale(0.015625)"/>
      <path id="DejaVuSans-Bold-4f" d="M 538 4863 
L 1656 4863 
L 1656 0 
L 538 0 
L 538 4863 
z
" transform="scale(0.015625)"/>
      <path id="DejaVuSans-Bold-5c" d="M 78 3500 
L 1197 3500 
L 2138 1125 
L 2938 3500 
L 4056 3500 
L 2584 -331 
Q 2363 -916 2067 -1148 
Q 1772 -1381 1288 -1381 
L 641 -1381 
L 641 -647 
L 991 -647 
Q 1275 -647 1404 -556 
Q 1534 -466 1606 -231 
L 1638 -134 
L 78 3500 
z
" transform="scale(0.015625)"/>
      <path id="DejaVuSans-Bold-b" d="M 2413 -844 
L 1484 -844 
Q 1006 -72 778 623 
Q 550 1319 550 2003 
Q 550 2688 779 3389 
Q 1009 4091 1484 4856 
L 2413 4856 
Q 2013 4116 1813 3408 
Q 1613 2700 1613 2009 
Q 1613 1319 1811 609 
Q 2009 -100 2413 -844 
z
" transform="scale(0.015625)"/>
      <path id="DejaVuSans-Bold-2e" d="M 588 4666 
L 1791 4666 
L 1791 2963 
L 3525 4666 
L 4922 4666 
L 2675 2456 
L 5153 0 
L 3647 0 
L 1791 1838 
L 1791 0 
L 588 0 
L 588 4666 
z
" transform="scale(0.015625)"/>
      <path id="DejaVuSans-Bold-53" d="M 1656 506 
L 1656 -1331 
L 538 -1331 
L 538 3500 
L 1656 3500 
L 1656 2988 
Q 1888 3294 2169 3439 
Q 2450 3584 2816 3584 
Q 3463 3584 3878 3070 
Q 4294 2556 4294 1747 
Q 4294 938 3878 423 
Q 3463 -91 2816 -91 
Q 2450 -91 2169 54 
Q 1888 200 1656 506 
z
M 2400 2772 
Q 2041 2772 1848 2508 
Q 1656 2244 1656 1747 
Q 1656 1250 1848 986 
Q 2041 722 2400 722 
Q 2759 722 2948 984 
Q 3138 1247 3138 1747 
Q 3138 2247 2948 2509 
Q 2759 2772 2400 2772 
z
" transform="scale(0.015625)"/>
      <path id="DejaVuSans-Bold-20" d="M 678 3084 
L 4684 3084 
L 4684 2350 
L 678 2350 
L 678 3084 
z
M 678 1663 
L 4684 1663 
L 4684 922 
L 678 922 
L 678 1663 
z
" transform="scale(0.015625)"/>
      <path id="DejaVuSans-Bold-15" d="M 1844 884 
L 3897 884 
L 3897 0 
L 506 0 
L 506 884 
L 2209 2388 
Q 2438 2594 2547 2791 
Q 2656 2988 2656 3200 
Q 2656 3528 2436 3728 
Q 2216 3928 1850 3928 
Q 1569 3928 1234 3808 
Q 900 3688 519 3450 
L 519 4475 
Q 925 4609 1322 4679 
Q 1719 4750 2100 4750 
Q 2938 4750 3402 4381 
Q 3866 4013 3866 3353 
Q 3866 2972 3669 2642 
Q 3472 2313 2841 1759 
L 1844 884 
z
" transform="scale(0.015625)"/>
      <path id="DejaVuSans-Bold-13" d="M 2944 2338 
Q 2944 3213 2780 3570 
Q 2616 3928 2228 3928 
Q 1841 3928 1675 3570 
Q 1509 3213 1509 2338 
Q 1509 1453 1675 1090 
Q 1841 728 2228 728 
Q 2613 728 2778 1090 
Q 2944 1453 2944 2338 
z
M 4147 2328 
Q 4147 1169 3647 539 
Q 3147 -91 2228 -91 
Q 1306 -91 806 539 
Q 306 1169 306 2328 
Q 306 3491 806 4120 
Q 1306 4750 2228 4750 
Q 3147 4750 3647 4120 
Q 4147 3491 4147 2328 
z
" transform="scale(0.015625)"/>
      <path id="DejaVuSans-Bold-c" d="M 513 -844 
Q 913 -100 1113 609 
Q 1313 1319 1313 2009 
Q 1313 2700 1113 3408 
Q 913 4116 513 4856 
L 1441 4856 
Q 1916 4091 2145 3389 
Q 2375 2688 2375 2003 
Q 2375 1319 2147 623 
Q 1919 -72 1441 -844 
L 513 -844 
z
" transform="scale(0.015625)"/>
     </defs>
     <use xlink:href="#DejaVuSans-Bold-33"/>
     <use xlink:href="#DejaVuSans-Bold-3" transform="translate(73.296875 0)"/>
     <use xlink:href="#DejaVuSans-Bold-52" transform="translate(108.109375 0)"/>
     <use xlink:href="#DejaVuSans-Bold-51" transform="translate(176.8125 0)"/>
     <use xlink:href="#DejaVuSans-Bold-4f" transform="translate(248 0)"/>
     <use xlink:href="#DejaVuSans-Bold-5c" transform="translate(282.28125 0)"/>
     <use xlink:href="#DejaVuSans-Bold-3" transform="translate(347.46875 0)"/>
     <use xlink:href="#DejaVuSans-Bold-b" transform="translate(382.28125 0)"/>
     <use xlink:href="#DejaVuSans-Bold-2e" transform="translate(427.984375 0)"/>
     <use xlink:href="#DejaVuSans-Bold-53" transform="translate(505.46875 0)"/>
     <use xlink:href="#DejaVuSans-Bold-3" transform="translate(577.046875 0)"/>
     <use xlink:href="#DejaVuSans-Bold-20" transform="translate(611.859375 0)"/>
     <use xlink:href="#DejaVuSans-Bold-3" transform="translate(695.65625 0)"/>
     <use xlink:href="#DejaVuSans-Bold-15" transform="translate(730.46875 0)"/>
     <use xlink:href="#DejaVuSans-Bold-13" transform="translate(800.046875 0)"/>
     <use xlink:href="#DejaVuSans-Bold-c" transform="translate(869.625 0)"/>
    </g>
   </g>
   <g id="text_21">
    <g id="patch_5">
     <path d="M 266.114531 111.311601 
L 315.977656 111.311601 
L 315.977656 98.961601 
L 266.114531 98.961601 
z
" style="fill: #ffffff; opacity: 0.85"/>
    </g>
    <!-- target 0.5 -->
    <g style="fill: #777777" transform="translate(267.539531 107.604375) scale(0.095 -0.095)">
     <use xlink:href="#DejaVuSans-57"/>
     <use xlink:href="#DejaVuSans-44" transform="translate(39.203125 0)"/>
     <use xlink:href="#DejaVuSans-55" transform="translate(100.484375 0)"/>
     <use xlink:href="#DejaVuSans-4a" transform="translate(139.84375 0)"/>
     <use xlink:href="#DejaVuSans-48" transform="translate(203.328125 0)"/>
     <use xlink:href="#DejaVuSans-57" transform="translate(264.859375 0)"/>
     <use xlink:href="#DejaVuSans-3" transform="translate(304.0625 0)"/>
     <use xlink:href="#DejaVuSans-13" transform="translate(335.84375 0)"/>
     <use xlink:href="#DejaVuSans-11" transform="translate(399.46875 0)"/>
     <use xlink:href="#DejaVuSans-18" transform="translate(431.25 0)"/>
    </g>
   </g>
   <g id="text_22">
    <g id="patch_6">
     <path d="M 233.290156 253.710296 
L 316.052656 253.710296 
L 316.052656 226.704827 
L 233.290156 226.704827 
z
" style="fill: #ffffff; opacity: 0.85"/>
    </g>
    <!-- overshoot 31% -->
    <g style="fill: #e05555" transform="translate(239.141719 236.804241) scale(0.1 -0.1)">
     <defs>
      <path id="DejaVuSans-59" d="M 191 3500 
L 800 3500 
L 1894 563 
L 2988 3500 
L 3597 3500 
L 2284 0 
L 1503 0 
L 191 3500 
z
" transform="scale(0.015625)"/>
      <path id="DejaVuSans-4b" d="M 3513 2113 
L 3513 0 
L 2938 0 
L 2938 2094 
Q 2938 2591 2744 2837 
Q 2550 3084 2163 3084 
Q 1697 3084 1428 2787 
Q 1159 2491 1159 1978 
L 1159 0 
L 581 0 
L 581 4863 
L 1159 4863 
L 1159 2956 
Q 1366 3272 1645 3428 
Q 1925 3584 2291 3584 
Q 2894 3584 3203 3211 
Q 3513 2838 3513 2113 
z
" transform="scale(0.015625)"/>
      <path id="DejaVuSans-8" d="M 4653 2053 
Q 4381 2053 4226 1822 
Q 4072 1591 4072 1178 
Q 4072 772 4226 539 
Q 4381 306 4653 306 
Q 4919 306 5073 539 
Q 5228 772 5228 1178 
Q 5228 1588 5073 1820 
Q 4919 2053 4653 2053 
z
M 4653 2450 
Q 5147 2450 5437 2106 
Q 5728 1763 5728 1178 
Q 5728 594 5436 251 
Q 5144 -91 4653 -91 
Q 4153 -91 3862 251 
Q 3572 594 3572 1178 
Q 3572 1766 3864 2108 
Q 4156 2450 4653 2450 
z
M 1428 4353 
Q 1159 4353 1004 4120 
Q 850 3888 850 3481 
Q 850 3069 1003 2837 
Q 1156 2606 1428 2606 
Q 1700 2606 1854 2837 
Q 2009 3069 2009 3481 
Q 2009 3884 1853 4118 
Q 1697 4353 1428 4353 
z
M 4250 4750 
L 4750 4750 
L 1831 -91 
L 1331 -91 
L 4250 4750 
z
M 1428 4750 
Q 1922 4750 2215 4408 
Q 2509 4066 2509 3481 
Q 2509 2891 2217 2550 
Q 1925 2209 1428 2209 
Q 931 2209 642 2551 
Q 353 2894 353 3481 
Q 353 4063 643 4406 
Q 934 4750 1428 4750 
z
" transform="scale(0.015625)"/>
     </defs>
     <use xlink:href="#DejaVuSans-52"/>
     <use xlink:href="#DejaVuSans-59" transform="translate(61.1875 0)"/>
     <use xlink:href="#DejaVuSans-48" transform="translate(120.375 0)"/>
     <use xlink:href="#DejaVuSans-55" transform="translate(181.90625 0)"/>
     <use xlink:href="#DejaVuSans-56" transform="translate(223.015625 0)"/>
     <use xlink:href="#DejaVuSans-4b" transform="translate(275.109375 0)"/>
     <use xlink:href="#DejaVuSans-52" transform="translate(338.484375 0)"/>
     <use xlink:href="#DejaVuSans-52" transform="translate(399.671875 0)"/>
     <use xlink:href="#DejaVuSans-57" transform="translate(460.859375 0)"/>
     <use xlink:href="#DejaVuSans-3" transform="translate(500.0625 0)"/>
     <use xlink:href="#DejaVuSans-16" transform="translate(531.84375 0)"/>
     <use xlink:href="#DejaVuSans-14" transform="translate(595.46875 0)"/>
     <use xlink:href="#DejaVuSans-8" transform="translate(659.09375 0)"/>
    </g>
    <!-- stops 2.9° short -->
    <g style="fill: #e05555" transform="translate(234.790156 248.806975) scale(0.1 -0.1)">
     <defs>
      <path id="DejaVuSans-53" d="M 1159 525 
L 1159 -1331 
L 581 -1331 
L 581 3500 
L 1159 3500 
L 1159 2969 
Q 1341 3281 1617 3432 
Q 1894 3584 2278 3584 
Q 2916 3584 3314 3078 
Q 3713 2572 3713 1747 
Q 3713 922 3314 415 
Q 2916 -91 2278 -91 
Q 1894 -91 1617 61 
Q 1341 213 1159 525 
z
M 3116 1747 
Q 3116 2381 2855 2742 
Q 2594 3103 2138 3103 
Q 1681 3103 1420 2742 
Q 1159 2381 1159 1747 
Q 1159 1113 1420 752 
Q 1681 391 2138 391 
Q 2594 391 2855 752 
Q 3116 1113 3116 1747 
z
" transform="scale(0.015625)"/>
      <path id="DejaVuSans-1c" d="M 703 97 
L 703 672 
Q 941 559 1184 500 
Q 1428 441 1663 441 
Q 2288 441 2617 861 
Q 2947 1281 2994 2138 
Q 2813 1869 2534 1725 
Q 2256 1581 1919 1581 
Q 1219 1581 811 2004 
Q 403 2428 403 3163 
Q 403 3881 828 4315 
Q 1253 4750 1959 4750 
Q 2769 4750 3195 4129 
Q 3622 3509 3622 2328 
Q 3622 1225 3098 567 
Q 2575 -91 1691 -91 
Q 1453 -91 1209 -44 
Q 966 3 703 97 
z
M 1959 2075 
Q 2384 2075 2632 2365 
Q 2881 2656 2881 3163 
Q 2881 3666 2632 3958 
Q 2384 4250 1959 4250 
Q 1534 4250 1286 3958 
Q 1038 3666 1038 3163 
Q 1038 2656 1286 2365 
Q 1534 2075 1959 2075 
z
" transform="scale(0.015625)"/>
      <path id="DejaVuSans-72" d="M 1600 4347 
Q 1350 4347 1178 4173 
Q 1006 4000 1006 3750 
Q 1006 3503 1178 3333 
Q 1350 3163 1600 3163 
Q 1850 3163 2022 3333 
Q 2194 3503 2194 3750 
Q 2194 3997 2020 4172 
Q 1847 4347 1600 4347 
z
M 1600 4750 
Q 1800 4750 1984 4673 
Q 2169 4597 2303 4453 
Q 2447 4313 2519 4134 
Q 2591 3956 2591 3750 
Q 2591 3338 2302 3052 
Q 2013 2766 1594 2766 
Q 1172 2766 890 3047 
Q 609 3328 609 3750 
Q 609 4169 896 4459 
Q 1184 4750 1600 4750 
z
" transform="scale(0.015625)"/>
     </defs>
     <use xlink:href="#DejaVuSans-56"/>
     <use xlink:href="#DejaVuSans-57" transform="translate(52.09375 0)"/>
     <use xlink:href="#DejaVuSans-52" transform="translate(91.296875 0)"/>
     <use xlink:href="#DejaVuSans-53" transform="translate(152.484375 0)"/>
     <use xlink:href="#DejaVuSans-56" transform="translate(215.96875 0)"/>
     <use xlink:href="#DejaVuSans-3" transform="translate(268.0625 0)"/>
     <use xlink:href="#DejaVuSans-15" transform="translate(299.84375 0)"/>
     <use xlink:href="#DejaVuSans-11" transform="translate(363.46875 0)"/>
     <use xlink:href="#DejaVuSans-1c" transform="translate(395.25 0)"/>
     <use xlink:href="#DejaVuSans-72" transform="translate(458.875 0)"/>
     <use xlink:href="#DejaVuSans-3" transform="translate(508.875 0)"/>
     <use xlink:href="#DejaVuSans-56" transform="translate(540.65625 0)"/>
     <use xlink:href="#DejaVuSans-4b" transform="translate(592.75 0)"/>
     <use xlink:href="#DejaVuSans-52" transform="translate(656.125 0)"/>
     <use xlink:href="#DejaVuSans-55" transform="translate(717.3125 0)"/>
     <use xlink:href="#DejaVuSans-57" transform="translate(758.421875 0)"/>
    </g>
   </g>
  </g>
  <g id="axes_2">
   <g id="patch_7">
    <path d="M 344.632344 278.350281 
L 606.194844 278.350281 
L 606.194844 39.958281 
L 344.632344 39.958281 
z
" style="fill: #ffffff"/>
   </g>
   <g id="matplotlib.axis_3">
    <g id="xtick_10">
     <g id="line2d_37">
      <path d="M 344.632344 278.350281 
L 344.632344 39.958281 
" clip-path="url(#pc112f51b14)" style="fill: none; stroke: #d6d6d6; stroke-width: 0.6; stroke-linecap: square"/>
     </g>
     <g id="line2d_38">
      <g>
       <use xlink:href="#m25fc7f65fc" x="344.632344" y="278.350281" style="fill: #777777; stroke: #777777; stroke-width: 0.8"/>
      </g>
     </g>
     <g id="text_23">
      <!-- 0.00 -->
      <g style="fill: #777777" transform="translate(334.612813 292.188172) scale(0.09 -0.09)">
       <use xlink:href="#DejaVuSans-13"/>
       <use xlink:href="#DejaVuSans-11" transform="translate(63.625 0)"/>
       <use xlink:href="#DejaVuSans-13" transform="translate(95.40625 0)"/>
       <use xlink:href="#DejaVuSans-13" transform="translate(159.03125 0)"/>
      </g>
     </g>
    </g>
    <g id="xtick_11">
     <g id="line2d_39">
      <path d="M 377.327656 278.350281 
L 377.327656 39.958281 
" clip-path="url(#pc112f51b14)" style="fill: none; stroke: #d6d6d6; stroke-width: 0.6; stroke-linecap: square"/>
     </g>
     <g id="line2d_40">
      <g>
       <use xlink:href="#m25fc7f65fc" x="377.327656" y="278.350281" style="fill: #777777; stroke: #777777; stroke-width: 0.8"/>
      </g>
     </g>
     <g id="text_24">
      <!-- 0.25 -->
      <g style="fill: #777777" transform="translate(367.308125 292.188172) scale(0.09 -0.09)">
       <use xlink:href="#DejaVuSans-13"/>
       <use xlink:href="#DejaVuSans-11" transform="translate(63.625 0)"/>
       <use xlink:href="#DejaVuSans-15" transform="translate(95.40625 0)"/>
       <use xlink:href="#DejaVuSans-18" transform="translate(159.03125 0)"/>
      </g>
     </g>
    </g>
    <g id="xtick_12">
     <g id="line2d_41">
      <path d="M 410.022969 278.350281 
L 410.022969 39.958281 
" clip-path="url(#pc112f51b14)" style="fill: none; stroke: #d6d6d6; stroke-width: 0.6; stroke-linecap: square"/>
     </g>
     <g id="line2d_42">
      <g>
       <use xlink:href="#m25fc7f65fc" x="410.022969" y="278.350281" style="fill: #777777; stroke: #777777; stroke-width: 0.8"/>
      </g>
     </g>
     <g id="text_25">
      <!-- 0.50 -->
      <g style="fill: #777777" transform="translate(400.003438 292.188172) scale(0.09 -0.09)">
       <use xlink:href="#DejaVuSans-13"/>
       <use xlink:href="#DejaVuSans-11" transform="translate(63.625 0)"/>
       <use xlink:href="#DejaVuSans-18" transform="translate(95.40625 0)"/>
       <use xlink:href="#DejaVuSans-13" transform="translate(159.03125 0)"/>
      </g>
     </g>
    </g>
    <g id="xtick_13">
     <g id="line2d_43">
      <path d="M 442.718281 278.350281 
L 442.718281 39.958281 
" clip-path="url(#pc112f51b14)" style="fill: none; stroke: #d6d6d6; stroke-width: 0.6; stroke-linecap: square"/>
     </g>
     <g id="line2d_44">
      <g>
       <use xlink:href="#m25fc7f65fc" x="442.718281" y="278.350281" style="fill: #777777; stroke: #777777; stroke-width: 0.8"/>
      </g>
     </g>
     <g id="text_26">
      <!-- 0.75 -->
      <g style="fill: #777777" transform="translate(432.69875 292.188172) scale(0.09 -0.09)">
       <use xlink:href="#DejaVuSans-13"/>
       <use xlink:href="#DejaVuSans-11" transform="translate(63.625 0)"/>
       <use xlink:href="#DejaVuSans-1a" transform="translate(95.40625 0)"/>
       <use xlink:href="#DejaVuSans-18" transform="translate(159.03125 0)"/>
      </g>
     </g>
    </g>
    <g id="xtick_14">
     <g id="line2d_45">
      <path d="M 475.413594 278.350281 
L 475.413594 39.958281 
" clip-path="url(#pc112f51b14)" style="fill: none; stroke: #d6d6d6; stroke-width: 0.6; stroke-linecap: square"/>
     </g>
     <g id="line2d_46">
      <g>
       <use xlink:href="#m25fc7f65fc" x="475.413594" y="278.350281" style="fill: #777777; stroke: #777777; stroke-width: 0.8"/>
      </g>
     </g>
     <g id="text_27">
      <!-- 1.00 -->
      <g style="fill: #777777" transform="translate(465.394063 292.188172) scale(0.09 -0.09)">
       <use xlink:href="#DejaVuSans-14"/>
       <use xlink:href="#DejaVuSans-11" transform="translate(63.625 0)"/>
       <use xlink:href="#DejaVuSans-13" transform="translate(95.40625 0)"/>
       <use xlink:href="#DejaVuSans-13" transform="translate(159.03125 0)"/>
      </g>
     </g>
    </g>
    <g id="xtick_15">
     <g id="line2d_47">
      <path d="M 508.108906 278.350281 
L 508.108906 39.958281 
" clip-path="url(#pc112f51b14)" style="fill: none; stroke: #d6d6d6; stroke-width: 0.6; stroke-linecap: square"/>
     </g>
     <g id="line2d_48">
      <g>
       <use xlink:href="#m25fc7f65fc" x="508.108906" y="278.350281" style="fill: #777777; stroke: #777777; stroke-width: 0.8"/>
      </g>
     </g>
     <g id="text_28">
      <!-- 1.25 -->
      <g style="fill: #777777" transform="translate(498.089375 292.188172) scale(0.09 -0.09)">
       <use xlink:href="#DejaVuSans-14"/>
       <use xlink:href="#DejaVuSans-11" transform="translate(63.625 0)"/>
       <use xlink:href="#DejaVuSans-15" transform="translate(95.40625 0)"/>
       <use xlink:href="#DejaVuSans-18" transform="translate(159.03125 0)"/>
      </g>
     </g>
    </g>
    <g id="xtick_16">
     <g id="line2d_49">
      <path d="M 540.804219 278.350281 
L 540.804219 39.958281 
" clip-path="url(#pc112f51b14)" style="fill: none; stroke: #d6d6d6; stroke-width: 0.6; stroke-linecap: square"/>
     </g>
     <g id="line2d_50">
      <g>
       <use xlink:href="#m25fc7f65fc" x="540.804219" y="278.350281" style="fill: #777777; stroke: #777777; stroke-width: 0.8"/>
      </g>
     </g>
     <g id="text_29">
      <!-- 1.50 -->
      <g style="fill: #777777" transform="translate(530.784688 292.188172) scale(0.09 -0.09)">
       <use xlink:href="#DejaVuSans-14"/>
       <use xlink:href="#DejaVuSans-11" transform="translate(63.625 0)"/>
       <use xlink:href="#DejaVuSans-18" transform="translate(95.40625 0)"/>
       <use xlink:href="#DejaVuSans-13" transform="translate(159.03125 0)"/>
      </g>
     </g>
    </g>
    <g id="xtick_17">
     <g id="line2d_51">
      <path d="M 573.499531 278.350281 
L 573.499531 39.958281 
" clip-path="url(#pc112f51b14)" style="fill: none; stroke: #d6d6d6; stroke-width: 0.6; stroke-linecap: square"/>
     </g>
     <g id="line2d_52">
      <g>
       <use xlink:href="#m25fc7f65fc" x="573.499531" y="278.350281" style="fill: #777777; stroke: #777777; stroke-width: 0.8"/>
      </g>
     </g>
     <g id="text_30">
      <!-- 1.75 -->
      <g style="fill: #777777" transform="translate(563.48 292.188172) scale(0.09 -0.09)">
       <use xlink:href="#DejaVuSans-14"/>
       <use xlink:href="#DejaVuSans-11" transform="translate(63.625 0)"/>
       <use xlink:href="#DejaVuSans-1a" transform="translate(95.40625 0)"/>
       <use xlink:href="#DejaVuSans-18" transform="translate(159.03125 0)"/>
      </g>
     </g>
    </g>
    <g id="xtick_18">
     <g id="line2d_53">
      <path d="M 606.194844 278.350281 
L 606.194844 39.958281 
" clip-path="url(#pc112f51b14)" style="fill: none; stroke: #d6d6d6; stroke-width: 0.6; stroke-linecap: square"/>
     </g>
     <g id="line2d_54">
      <g>
       <use xlink:href="#m25fc7f65fc" x="606.194844" y="278.350281" style="fill: #777777; stroke: #777777; stroke-width: 0.8"/>
      </g>
     </g>
     <g id="text_31">
      <!-- 2.00 -->
      <g style="fill: #777777" transform="translate(596.175313 292.188172) scale(0.09 -0.09)">
       <use xlink:href="#DejaVuSans-15"/>
       <use xlink:href="#DejaVuSans-11" transform="translate(63.625 0)"/>
       <use xlink:href="#DejaVuSans-13" transform="translate(95.40625 0)"/>
       <use xlink:href="#DejaVuSans-13" transform="translate(159.03125 0)"/>
      </g>
     </g>
    </g>
    <g id="text_32">
     <!-- time (s) -->
     <g style="fill: #222222" transform="translate(456.022188 305.948719) scale(0.1 -0.1)">
      <use xlink:href="#DejaVuSans-57"/>
      <use xlink:href="#DejaVuSans-4c" transform="translate(39.203125 0)"/>
      <use xlink:href="#DejaVuSans-50" transform="translate(66.984375 0)"/>
      <use xlink:href="#DejaVuSans-48" transform="translate(164.390625 0)"/>
      <use xlink:href="#DejaVuSans-3" transform="translate(225.921875 0)"/>
      <use xlink:href="#DejaVuSans-b" transform="translate(257.703125 0)"/>
      <use xlink:href="#DejaVuSans-56" transform="translate(296.71875 0)"/>
      <use xlink:href="#DejaVuSans-c" transform="translate(348.8125 0)"/>
     </g>
    </g>
   </g>
   <g id="matplotlib.axis_4">
    <g id="ytick_9">
     <g id="line2d_55">
      <path d="M 344.632344 278.350281 
L 606.194844 278.350281 
" clip-path="url(#pc112f51b14)" style="fill: none; stroke: #d6d6d6; stroke-width: 0.6; stroke-linecap: square"/>
     </g>
     <g id="line2d_56">
      <g>
       <use xlink:href="#mab3052560b" x="344.632344" y="278.350281" style="fill: #777777; stroke: #777777; stroke-width: 0.8"/>
      </g>
     </g>
    </g>
    <g id="ytick_10">
     <g id="line2d_57">
      <path d="M 344.632344 246.564681 
L 606.194844 246.564681 
" clip-path="url(#pc112f51b14)" style="fill: none; stroke: #d6d6d6; stroke-width: 0.6; stroke-linecap: square"/>
     </g>
     <g id="line2d_58">
      <g>
       <use xlink:href="#mab3052560b" x="344.632344" y="246.564681" style="fill: #777777; stroke: #777777; stroke-width: 0.8"/>
      </g>
     </g>
    </g>
    <g id="ytick_11">
     <g id="line2d_59">
      <path d="M 344.632344 214.779081 
L 606.194844 214.779081 
" clip-path="url(#pc112f51b14)" style="fill: none; stroke: #d6d6d6; stroke-width: 0.6; stroke-linecap: square"/>
     </g>
     <g id="line2d_60">
      <g>
       <use xlink:href="#mab3052560b" x="344.632344" y="214.779081" style="fill: #777777; stroke: #777777; stroke-width: 0.8"/>
      </g>
     </g>
    </g>
    <g id="ytick_12">
     <g id="line2d_61">
      <path d="M 344.632344 182.993481 
L 606.194844 182.993481 
" clip-path="url(#pc112f51b14)" style="fill: none; stroke: #d6d6d6; stroke-width: 0.6; stroke-linecap: square"/>
     </g>
     <g id="line2d_62">
      <g>
       <use xlink:href="#mab3052560b" x="344.632344" y="182.993481" style="fill: #777777; stroke: #777777; stroke-width: 0.8"/>
      </g>
     </g>
    </g>
    <g id="ytick_13">
     <g id="line2d_63">
      <path d="M 344.632344 151.207881 
L 606.194844 151.207881 
" clip-path="url(#pc112f51b14)" style="fill: none; stroke: #d6d6d6; stroke-width: 0.6; stroke-linecap: square"/>
     </g>
     <g id="line2d_64">
      <g>
       <use xlink:href="#mab3052560b" x="344.632344" y="151.207881" style="fill: #777777; stroke: #777777; stroke-width: 0.8"/>
      </g>
     </g>
    </g>
    <g id="ytick_14">
     <g id="line2d_65">
      <path d="M 344.632344 119.422281 
L 606.194844 119.422281 
" clip-path="url(#pc112f51b14)" style="fill: none; stroke: #d6d6d6; stroke-width: 0.6; stroke-linecap: square"/>
     </g>
     <g id="line2d_66">
      <g>
       <use xlink:href="#mab3052560b" x="344.632344" y="119.422281" style="fill: #777777; stroke: #777777; stroke-width: 0.8"/>
      </g>
     </g>
    </g>
    <g id="ytick_15">
     <g id="line2d_67">
      <path d="M 344.632344 87.636681 
L 606.194844 87.636681 
" clip-path="url(#pc112f51b14)" style="fill: none; stroke: #d6d6d6; stroke-width: 0.6; stroke-linecap: square"/>
     </g>
     <g id="line2d_68">
      <g>
       <use xlink:href="#mab3052560b" x="344.632344" y="87.636681" style="fill: #777777; stroke: #777777; stroke-width: 0.8"/>
      </g>
     </g>
    </g>
    <g id="ytick_16">
     <g id="line2d_69">
      <path d="M 344.632344 55.851081 
L 606.194844 55.851081 
" clip-path="url(#pc112f51b14)" style="fill: none; stroke: #d6d6d6; stroke-width: 0.6; stroke-linecap: square"/>
     </g>
     <g id="line2d_70">
      <g>
       <use xlink:href="#mab3052560b" x="344.632344" y="55.851081" style="fill: #777777; stroke: #777777; stroke-width: 0.8"/>
      </g>
     </g>
    </g>
   </g>
   <g id="line2d_71">
    <path d="M 344.632344 119.422281 
L 606.194844 119.422281 
" clip-path="url(#pc112f51b14)" style="fill: none; stroke-dasharray: 4.44,1.92; stroke-dashoffset: 0; stroke: #777777; stroke-width: 1.2"/>
   </g>
   <g id="line2d_72">
    <path d="M 344.632344 278.350281 
L 344.893906 278.230645 
L 345.155469 277.885869 
L 345.547813 276.955769 
L 346.070938 274.968836 
L 346.724844 271.341294 
L 347.509531 265.424286 
L 348.425 256.571158 
L 349.47125 244.226363 
L 350.779063 226.110946 
L 352.61 197.368618 
L 357.579688 117.402317 
L 359.149063 96.39132 
L 360.456875 81.677617 
L 361.633906 70.913668 
L 362.680156 63.448287 
L 363.595625 58.582355 
L 364.380313 55.651239 
L 365.034219 54.070985 
L 365.557344 53.359185 
L 365.949688 53.139944 
L 366.342031 53.183796 
L 366.734375 53.484003 
L 367.2575 54.270069 
L 367.780625 55.479031 
L 368.434531 57.552078 
L 369.219219 60.802956 
L 370.134688 65.538852 
L 371.311719 72.893592 
L 372.750313 83.367287 
L 374.973594 101.401485 
L 378.373906 128.87147 
L 380.074063 140.751855 
L 381.381875 148.49912 
L 382.558906 154.254803 
L 383.605156 158.32259 
L 384.520625 161.041471 
L 385.305313 162.74097 
L 385.959219 163.715051 
L 386.613125 164.293951 
L 387.13625 164.479173 
L 387.659375 164.424484 
L 388.1825 164.137777 
L 388.836406 163.467009 
L 389.490313 162.467928 
L 390.275 160.867195 
L 391.190469 158.499454 
L 392.3675 154.776601 
L 393.806094 149.415461 
L 395.898594 140.637039 
L 399.822031 124.019311 
L 401.522188 117.831195 
L 402.960781 113.427037 
L 404.137812 110.487321 
L 405.184063 108.414916 
L 406.099531 107.03229 
L 407.015 106.053796 
L 407.799688 105.532551 
L 408.584375 105.296322 
L 409.238281 105.309165 
L 410.022969 105.563944 
L 410.807656 106.063879 
L 411.723125 106.931104 
L 412.769375 108.254419 
L 414.077188 110.324275 
L 415.646563 113.262872 
L 418.262188 118.724717 
L 421.139375 124.604252 
L 422.839531 127.611806 
L 424.278125 129.737698 
L 425.585938 131.277998 
L 426.762969 132.318617 
L 427.809219 132.960122 
L 428.855469 133.335131 
L 429.901719 133.45052 
L 430.947969 133.318955 
L 431.994219 132.958219 
L 433.17125 132.306176 
L 434.479063 131.319433 
L 436.048438 129.848392 
L 438.271719 127.422603 
L 443.110625 122.050626 
L 444.941563 120.388472 
L 446.510938 119.242239 
L 447.949531 118.447968 
L 449.388125 117.911203 
L 450.695938 117.646157 
L 452.134531 117.588937 
L 453.573125 117.756425 
L 455.1425 118.160747 
L 456.973438 118.864052 
L 459.458281 120.07527 
L 465.081875 122.898278 
L 467.305156 123.715411 
L 469.266875 124.201427 
L 471.097813 124.438196 
L 473.059531 124.46208 
L 475.152031 124.249551 
L 477.506094 123.772211 
L 480.644844 122.884068 
L 487.183906 120.969123 
L 490.061094 120.402584 
L 492.676719 120.11419 
L 495.423125 120.043234 
L 498.431094 120.194373 
L 502.616094 120.649284 
L 509.678281 121.423213 
L 513.470937 121.590219 
L 517.263594 121.531367 
L 521.971719 121.217904 
L 533.742031 120.330425 
L 538.973281 120.236087 
L 546.035469 120.358867 
L 556.236406 120.511681 
L 564.214062 120.377402 
L 581.346406 120.024926 
L 606.325625 119.965228 
L 606.325625 119.965228 
" clip-path="url(#pc112f51b14)" style="fill: none; stroke: #e07b39; stroke-width: 2.2; stroke-linecap: square"/>
   </g>
   <g id="patch_8">
    <path d="M 344.632344 278.350281 
L 344.632344 39.958281 
" style="fill: none; stroke: #777777; stroke-width: 0.8; stroke-linejoin: miter; stroke-linecap: square"/>
   </g>
   <g id="patch_9">
    <path d="M 344.632344 278.350281 
L 606.194844 278.350281 
" style="fill: none; stroke: #777777; stroke-width: 0.8; stroke-linejoin: miter; stroke-linecap: square"/>
   </g>
   <g id="text_33">
    <!-- PI (Kp = 20, Ki = 30) -->
    <g style="fill: #222222" transform="translate(344.632344 29.958281) scale(0.11 -0.11)">
     <defs>
      <path id="DejaVuSans-Bold-2c" d="M 588 4666 
L 1791 4666 
L 1791 0 
L 588 0 
L 588 4666 
z
" transform="scale(0.015625)"/>
      <path id="DejaVuSans-Bold-f" d="M 653 1209 
L 1778 1209 
L 1778 256 
L 1006 -909 
L 341 -909 
L 653 256 
L 653 1209 
z
" transform="scale(0.015625)"/>
      <path id="DejaVuSans-Bold-4c" d="M 538 3500 
L 1656 3500 
L 1656 0 
L 538 0 
L 538 3500 
z
M 538 4863 
L 1656 4863 
L 1656 3950 
L 538 3950 
L 538 4863 
z
" transform="scale(0.015625)"/>
      <path id="DejaVuSans-Bold-16" d="M 2981 2516 
Q 3453 2394 3698 2092 
Q 3944 1791 3944 1325 
Q 3944 631 3412 270 
Q 2881 -91 1863 -91 
Q 1503 -91 1142 -33 
Q 781 25 428 141 
L 428 1069 
Q 766 900 1098 814 
Q 1431 728 1753 728 
Q 2231 728 2486 893 
Q 2741 1059 2741 1369 
Q 2741 1688 2480 1852 
Q 2219 2016 1709 2016 
L 1228 2016 
L 1228 2791 
L 1734 2791 
Q 2188 2791 2409 2933 
Q 2631 3075 2631 3366 
Q 2631 3634 2415 3781 
Q 2200 3928 1806 3928 
Q 1516 3928 1219 3862 
Q 922 3797 628 3669 
L 628 4550 
Q 984 4650 1334 4700 
Q 1684 4750 2022 4750 
Q 2931 4750 3382 4451 
Q 3834 4153 3834 3553 
Q 3834 3144 3618 2883 
Q 3403 2622 2981 2516 
z
" transform="scale(0.015625)"/>
     </defs>
     <use xlink:href="#DejaVuSans-Bold-33"/>
     <use xlink:href="#DejaVuSans-Bold-2c" transform="translate(73.296875 0)"/>
     <use xlink:href="#DejaVuSans-Bold-3" transform="translate(110.5 0)"/>
     <use xlink:href="#DejaVuSans-Bold-b" transform="translate(145.3125 0)"/>
     <use xlink:href="#DejaVuSans-Bold-2e" transform="translate(191.015625 0)"/>
     <use xlink:href="#DejaVuSans-Bold-53" transform="translate(268.5 0)"/>
     <use xlink:href="#DejaVuSans-Bold-3" transform="translate(340.078125 0)"/>
     <use xlink:href="#DejaVuSans-Bold-20" transform="translate(374.890625 0)"/>
     <use xlink:href="#DejaVuSans-Bold-3" transform="translate(458.6875 0)"/>
     <use xlink:href="#DejaVuSans-Bold-15" transform="translate(493.5 0)"/>
     <use xlink:href="#DejaVuSans-Bold-13" transform="translate(563.078125 0)"/>
     <use xlink:href="#DejaVuSans-Bold-f" transform="translate(632.65625 0)"/>
     <use xlink:href="#DejaVuSans-Bold-3" transform="translate(670.640625 0)"/>
     <use xlink:href="#DejaVuSans-Bold-2e" transform="translate(705.453125 0)"/>
     <use xlink:href="#DejaVuSans-Bold-4c" transform="translate(782.9375 0)"/>
     <use xlink:href="#DejaVuSans-Bold-3" transform="translate(817.21875 0)"/>
     <use xlink:href="#DejaVuSans-Bold-20" transform="translate(852.03125 0)"/>
     <use xlink:href="#DejaVuSans-Bold-3" transform="translate(935.828125 0)"/>
     <use xlink:href="#DejaVuSans-Bold-16" transform="translate(970.640625 0)"/>
     <use xlink:href="#DejaVuSans-Bold-13" transform="translate(1040.21875 0)"/>
     <use xlink:href="#DejaVuSans-Bold-c" transform="translate(1109.796875 0)"/>
    </g>
   </g>
   <g id="text_34">
    <g id="patch_10">
     <path d="M 553.833281 111.311601 
L 603.696406 111.311601 
L 603.696406 98.961601 
L 553.833281 98.961601 
z
" style="fill: #ffffff; opacity: 0.85"/>
    </g>
    <!-- target 0.5 -->
    <g style="fill: #777777" transform="translate(555.258281 107.604375) scale(0.095 -0.095)">
     <use xlink:href="#DejaVuSans-57"/>
     <use xlink:href="#DejaVuSans-44" transform="translate(39.203125 0)"/>
     <use xlink:href="#DejaVuSans-55" transform="translate(100.484375 0)"/>
     <use xlink:href="#DejaVuSans-4a" transform="translate(139.84375 0)"/>
     <use xlink:href="#DejaVuSans-48" transform="translate(203.328125 0)"/>
     <use xlink:href="#DejaVuSans-57" transform="translate(264.859375 0)"/>
     <use xlink:href="#DejaVuSans-3" transform="translate(304.0625 0)"/>
     <use xlink:href="#DejaVuSans-13" transform="translate(335.84375 0)"/>
     <use xlink:href="#DejaVuSans-11" transform="translate(399.46875 0)"/>
     <use xlink:href="#DejaVuSans-18" transform="translate(431.25 0)"/>
    </g>
   </g>
   <g id="text_35">
    <g id="patch_11">
     <path d="M 517.012031 253.710296 
L 603.771406 253.710296 
L 603.771406 226.704827 
L 517.012031 226.704827 
z
" style="fill: #ffffff; opacity: 0.85"/>
    </g>
    <!-- overshoot 42% -->
    <g style="fill: #e07b39" transform="translate(526.860469 236.804241) scale(0.1 -0.1)">
     <use xlink:href="#DejaVuSans-52"/>
     <use xlink:href="#DejaVuSans-59" transform="translate(61.1875 0)"/>
     <use xlink:href="#DejaVuSans-48" transform="translate(120.375 0)"/>
     <use xlink:href="#DejaVuSans-55" transform="translate(181.90625 0)"/>
     <use xlink:href="#DejaVuSans-56" transform="translate(223.015625 0)"/>
     <use xlink:href="#DejaVuSans-4b" transform="translate(275.109375 0)"/>
     <use xlink:href="#DejaVuSans-52" transform="translate(338.484375 0)"/>
     <use xlink:href="#DejaVuSans-52" transform="translate(399.671875 0)"/>
     <use xlink:href="#DejaVuSans-57" transform="translate(460.859375 0)"/>
     <use xlink:href="#DejaVuSans-3" transform="translate(500.0625 0)"/>
     <use xlink:href="#DejaVuSans-17" transform="translate(531.84375 0)"/>
     <use xlink:href="#DejaVuSans-15" transform="translate(595.46875 0)"/>
     <use xlink:href="#DejaVuSans-8" transform="translate(659.09375 0)"/>
    </g>
    <!-- settled by 1.05 s -->
    <g style="fill: #e07b39" transform="translate(518.512031 248.806975) scale(0.1 -0.1)">
     <defs>
      <path id="DejaVuSans-45" d="M 3116 1747 
Q 3116 2381 2855 2742 
Q 2594 3103 2138 3103 
Q 1681 3103 1420 2742 
Q 1159 2381 1159 1747 
Q 1159 1113 1420 752 
Q 1681 391 2138 391 
Q 2594 391 2855 752 
Q 3116 1113 3116 1747 
z
M 1159 2969 
Q 1341 3281 1617 3432 
Q 1894 3584 2278 3584 
Q 2916 3584 3314 3078 
Q 3713 2572 3713 1747 
Q 3713 922 3314 415 
Q 2916 -91 2278 -91 
Q 1894 -91 1617 61 
Q 1341 213 1159 525 
L 1159 0 
L 581 0 
L 581 4863 
L 1159 4863 
L 1159 2969 
z
" transform="scale(0.015625)"/>
      <path id="DejaVuSans-5c" d="M 2059 -325 
Q 1816 -950 1584 -1140 
Q 1353 -1331 966 -1331 
L 506 -1331 
L 506 -850 
L 844 -850 
Q 1081 -850 1212 -737 
Q 1344 -625 1503 -206 
L 1606 56 
L 191 3500 
L 800 3500 
L 1894 763 
L 2988 3500 
L 3597 3500 
L 2059 -325 
z
" transform="scale(0.015625)"/>
     </defs>
     <use xlink:href="#DejaVuSans-56"/>
     <use xlink:href="#DejaVuSans-48" transform="translate(52.09375 0)"/>
     <use xlink:href="#DejaVuSans-57" transform="translate(113.625 0)"/>
     <use xlink:href="#DejaVuSans-57" transform="translate(152.828125 0)"/>
     <use xlink:href="#DejaVuSans-4f" transform="translate(192.03125 0)"/>
     <use xlink:href="#DejaVuSans-48" transform="translate(219.8125 0)"/>
     <use xlink:href="#DejaVuSans-47" transform="translate(281.34375 0)"/>
     <use xlink:href="#DejaVuSans-3" transform="translate(344.828125 0)"/>
     <use xlink:href="#DejaVuSans-45" transform="translate(376.609375 0)"/>
     <use xlink:href="#DejaVuSans-5c" transform="translate(440.09375 0)"/>
     <use xlink:href="#DejaVuSans-3" transform="translate(499.28125 0)"/>
     <use xlink:href="#DejaVuSans-14" transform="translate(531.0625 0)"/>
     <use xlink:href="#DejaVuSans-11" transform="translate(594.6875 0)"/>
     <use xlink:href="#DejaVuSans-13" transform="translate(626.46875 0)"/>
     <use xlink:href="#DejaVuSans-18" transform="translate(690.09375 0)"/>
     <use xlink:href="#DejaVuSans-3" transform="translate(753.71875 0)"/>
     <use xlink:href="#DejaVuSans-56" transform="translate(785.5 0)"/>
    </g>
   </g>
  </g>
  <g id="axes_3">
   <g id="patch_12">
    <path d="M 632.351094 278.350281 
L 893.913594 278.350281 
L 893.913594 39.958281 
L 632.351094 39.958281 
z
" style="fill: #ffffff"/>
   </g>
   <g id="matplotlib.axis_5">
    <g id="xtick_19">
     <g id="line2d_73">
      <path d="M 632.351094 278.350281 
L 632.351094 39.958281 
" clip-path="url(#p60ec2afa65)" style="fill: none; stroke: #d6d6d6; stroke-width: 0.6; stroke-linecap: square"/>
     </g>
     <g id="line2d_74">
      <g>
       <use xlink:href="#m25fc7f65fc" x="632.351094" y="278.350281" style="fill: #777777; stroke: #777777; stroke-width: 0.8"/>
      </g>
     </g>
     <g id="text_36">
      <!-- 0.00 -->
      <g style="fill: #777777" transform="translate(622.331562 292.188172) scale(0.09 -0.09)">
       <use xlink:href="#DejaVuSans-13"/>
       <use xlink:href="#DejaVuSans-11" transform="translate(63.625 0)"/>
       <use xlink:href="#DejaVuSans-13" transform="translate(95.40625 0)"/>
       <use xlink:href="#DejaVuSans-13" transform="translate(159.03125 0)"/>
      </g>
     </g>
    </g>
    <g id="xtick_20">
     <g id="line2d_75">
      <path d="M 665.046406 278.350281 
L 665.046406 39.958281 
" clip-path="url(#p60ec2afa65)" style="fill: none; stroke: #d6d6d6; stroke-width: 0.6; stroke-linecap: square"/>
     </g>
     <g id="line2d_76">
      <g>
       <use xlink:href="#m25fc7f65fc" x="665.046406" y="278.350281" style="fill: #777777; stroke: #777777; stroke-width: 0.8"/>
      </g>
     </g>
     <g id="text_37">
      <!-- 0.25 -->
      <g style="fill: #777777" transform="translate(655.026875 292.188172) scale(0.09 -0.09)">
       <use xlink:href="#DejaVuSans-13"/>
       <use xlink:href="#DejaVuSans-11" transform="translate(63.625 0)"/>
       <use xlink:href="#DejaVuSans-15" transform="translate(95.40625 0)"/>
       <use xlink:href="#DejaVuSans-18" transform="translate(159.03125 0)"/>
      </g>
     </g>
    </g>
    <g id="xtick_21">
     <g id="line2d_77">
      <path d="M 697.741719 278.350281 
L 697.741719 39.958281 
" clip-path="url(#p60ec2afa65)" style="fill: none; stroke: #d6d6d6; stroke-width: 0.6; stroke-linecap: square"/>
     </g>
     <g id="line2d_78">
      <g>
       <use xlink:href="#m25fc7f65fc" x="697.741719" y="278.350281" style="fill: #777777; stroke: #777777; stroke-width: 0.8"/>
      </g>
     </g>
     <g id="text_38">
      <!-- 0.50 -->
      <g style="fill: #777777" transform="translate(687.722187 292.188172) scale(0.09 -0.09)">
       <use xlink:href="#DejaVuSans-13"/>
       <use xlink:href="#DejaVuSans-11" transform="translate(63.625 0)"/>
       <use xlink:href="#DejaVuSans-18" transform="translate(95.40625 0)"/>
       <use xlink:href="#DejaVuSans-13" transform="translate(159.03125 0)"/>
      </g>
     </g>
    </g>
    <g id="xtick_22">
     <g id="line2d_79">
      <path d="M 730.437031 278.350281 
L 730.437031 39.958281 
" clip-path="url(#p60ec2afa65)" style="fill: none; stroke: #d6d6d6; stroke-width: 0.6; stroke-linecap: square"/>
     </g>
     <g id="line2d_80">
      <g>
       <use xlink:href="#m25fc7f65fc" x="730.437031" y="278.350281" style="fill: #777777; stroke: #777777; stroke-width: 0.8"/>
      </g>
     </g>
     <g id="text_39">
      <!-- 0.75 -->
      <g style="fill: #777777" transform="translate(720.4175 292.188172) scale(0.09 -0.09)">
       <use xlink:href="#DejaVuSans-13"/>
       <use xlink:href="#DejaVuSans-11" transform="translate(63.625 0)"/>
       <use xlink:href="#DejaVuSans-1a" transform="translate(95.40625 0)"/>
       <use xlink:href="#DejaVuSans-18" transform="translate(159.03125 0)"/>
      </g>
     </g>
    </g>
    <g id="xtick_23">
     <g id="line2d_81">
      <path d="M 763.132344 278.350281 
L 763.132344 39.958281 
" clip-path="url(#p60ec2afa65)" style="fill: none; stroke: #d6d6d6; stroke-width: 0.6; stroke-linecap: square"/>
     </g>
     <g id="line2d_82">
      <g>
       <use xlink:href="#m25fc7f65fc" x="763.132344" y="278.350281" style="fill: #777777; stroke: #777777; stroke-width: 0.8"/>
      </g>
     </g>
     <g id="text_40">
      <!-- 1.00 -->
      <g style="fill: #777777" transform="translate(753.112812 292.188172) scale(0.09 -0.09)">
       <use xlink:href="#DejaVuSans-14"/>
       <use xlink:href="#DejaVuSans-11" transform="translate(63.625 0)"/>
       <use xlink:href="#DejaVuSans-13" transform="translate(95.40625 0)"/>
       <use xlink:href="#DejaVuSans-13" transform="translate(159.03125 0)"/>
      </g>
     </g>
    </g>
    <g id="xtick_24">
     <g id="line2d_83">
      <path d="M 795.827656 278.350281 
L 795.827656 39.958281 
" clip-path="url(#p60ec2afa65)" style="fill: none; stroke: #d6d6d6; stroke-width: 0.6; stroke-linecap: square"/>
     </g>
     <g id="line2d_84">
      <g>
       <use xlink:href="#m25fc7f65fc" x="795.827656" y="278.350281" style="fill: #777777; stroke: #777777; stroke-width: 0.8"/>
      </g>
     </g>
     <g id="text_41">
      <!-- 1.25 -->
      <g style="fill: #777777" transform="translate(785.808125 292.188172) scale(0.09 -0.09)">
       <use xlink:href="#DejaVuSans-14"/>
       <use xlink:href="#DejaVuSans-11" transform="translate(63.625 0)"/>
       <use xlink:href="#DejaVuSans-15" transform="translate(95.40625 0)"/>
       <use xlink:href="#DejaVuSans-18" transform="translate(159.03125 0)"/>
      </g>
     </g>
    </g>
    <g id="xtick_25">
     <g id="line2d_85">
      <path d="M 828.522969 278.350281 
L 828.522969 39.958281 
" clip-path="url(#p60ec2afa65)" style="fill: none; stroke: #d6d6d6; stroke-width: 0.6; stroke-linecap: square"/>
     </g>
     <g id="line2d_86">
      <g>
       <use xlink:href="#m25fc7f65fc" x="828.522969" y="278.350281" style="fill: #777777; stroke: #777777; stroke-width: 0.8"/>
      </g>
     </g>
     <g id="text_42">
      <!-- 1.50 -->
      <g style="fill: #777777" transform="translate(818.503437 292.188172) scale(0.09 -0.09)">
       <use xlink:href="#DejaVuSans-14"/>
       <use xlink:href="#DejaVuSans-11" transform="translate(63.625 0)"/>
       <use xlink:href="#DejaVuSans-18" transform="translate(95.40625 0)"/>
       <use xlink:href="#DejaVuSans-13" transform="translate(159.03125 0)"/>
      </g>
     </g>
    </g>
    <g id="xtick_26">
     <g id="line2d_87">
      <path d="M 861.218281 278.350281 
L 861.218281 39.958281 
" clip-path="url(#p60ec2afa65)" style="fill: none; stroke: #d6d6d6; stroke-width: 0.6; stroke-linecap: square"/>
     </g>
     <g id="line2d_88">
      <g>
       <use xlink:href="#m25fc7f65fc" x="861.218281" y="278.350281" style="fill: #777777; stroke: #777777; stroke-width: 0.8"/>
      </g>
     </g>
     <g id="text_43">
      <!-- 1.75 -->
      <g style="fill: #777777" transform="translate(851.19875 292.188172) scale(0.09 -0.09)">
       <use xlink:href="#DejaVuSans-14"/>
       <use xlink:href="#DejaVuSans-11" transform="translate(63.625 0)"/>
       <use xlink:href="#DejaVuSans-1a" transform="translate(95.40625 0)"/>
       <use xlink:href="#DejaVuSans-18" transform="translate(159.03125 0)"/>
      </g>
     </g>
    </g>
    <g id="xtick_27">
     <g id="line2d_89">
      <path d="M 893.913594 278.350281 
L 893.913594 39.958281 
" clip-path="url(#p60ec2afa65)" style="fill: none; stroke: #d6d6d6; stroke-width: 0.6; stroke-linecap: square"/>
     </g>
     <g id="line2d_90">
      <g>
       <use xlink:href="#m25fc7f65fc" x="893.913594" y="278.350281" style="fill: #777777; stroke: #777777; stroke-width: 0.8"/>
      </g>
     </g>
     <g id="text_44">
      <!-- 2.00 -->
      <g style="fill: #777777" transform="translate(883.894062 292.188172) scale(0.09 -0.09)">
       <use xlink:href="#DejaVuSans-15"/>
       <use xlink:href="#DejaVuSans-11" transform="translate(63.625 0)"/>
       <use xlink:href="#DejaVuSans-13" transform="translate(95.40625 0)"/>
       <use xlink:href="#DejaVuSans-13" transform="translate(159.03125 0)"/>
      </g>
     </g>
    </g>
    <g id="text_45">
     <!-- time (s) -->
     <g style="fill: #222222" transform="translate(743.740937 305.948719) scale(0.1 -0.1)">
      <use xlink:href="#DejaVuSans-57"/>
      <use xlink:href="#DejaVuSans-4c" transform="translate(39.203125 0)"/>
      <use xlink:href="#DejaVuSans-50" transform="translate(66.984375 0)"/>
      <use xlink:href="#DejaVuSans-48" transform="translate(164.390625 0)"/>
      <use xlink:href="#DejaVuSans-3" transform="translate(225.921875 0)"/>
      <use xlink:href="#DejaVuSans-b" transform="translate(257.703125 0)"/>
      <use xlink:href="#DejaVuSans-56" transform="translate(296.71875 0)"/>
      <use xlink:href="#DejaVuSans-c" transform="translate(348.8125 0)"/>
     </g>
    </g>
   </g>
   <g id="matplotlib.axis_6">
    <g id="ytick_17">
     <g id="line2d_91">
      <path d="M 632.351094 278.350281 
L 893.913594 278.350281 
" clip-path="url(#p60ec2afa65)" style="fill: none; stroke: #d6d6d6; stroke-width: 0.6; stroke-linecap: square"/>
     </g>
     <g id="line2d_92">
      <g>
       <use xlink:href="#mab3052560b" x="632.351094" y="278.350281" style="fill: #777777; stroke: #777777; stroke-width: 0.8"/>
      </g>
     </g>
    </g>
    <g id="ytick_18">
     <g id="line2d_93">
      <path d="M 632.351094 246.564681 
L 893.913594 246.564681 
" clip-path="url(#p60ec2afa65)" style="fill: none; stroke: #d6d6d6; stroke-width: 0.6; stroke-linecap: square"/>
     </g>
     <g id="line2d_94">
      <g>
       <use xlink:href="#mab3052560b" x="632.351094" y="246.564681" style="fill: #777777; stroke: #777777; stroke-width: 0.8"/>
      </g>
     </g>
    </g>
    <g id="ytick_19">
     <g id="line2d_95">
      <path d="M 632.351094 214.779081 
L 893.913594 214.779081 
" clip-path="url(#p60ec2afa65)" style="fill: none; stroke: #d6d6d6; stroke-width: 0.6; stroke-linecap: square"/>
     </g>
     <g id="line2d_96">
      <g>
       <use xlink:href="#mab3052560b" x="632.351094" y="214.779081" style="fill: #777777; stroke: #777777; stroke-width: 0.8"/>
      </g>
     </g>
    </g>
    <g id="ytick_20">
     <g id="line2d_97">
      <path d="M 632.351094 182.993481 
L 893.913594 182.993481 
" clip-path="url(#p60ec2afa65)" style="fill: none; stroke: #d6d6d6; stroke-width: 0.6; stroke-linecap: square"/>
     </g>
     <g id="line2d_98">
      <g>
       <use xlink:href="#mab3052560b" x="632.351094" y="182.993481" style="fill: #777777; stroke: #777777; stroke-width: 0.8"/>
      </g>
     </g>
    </g>
    <g id="ytick_21">
     <g id="line2d_99">
      <path d="M 632.351094 151.207881 
L 893.913594 151.207881 
" clip-path="url(#p60ec2afa65)" style="fill: none; stroke: #d6d6d6; stroke-width: 0.6; stroke-linecap: square"/>
     </g>
     <g id="line2d_100">
      <g>
       <use xlink:href="#mab3052560b" x="632.351094" y="151.207881" style="fill: #777777; stroke: #777777; stroke-width: 0.8"/>
      </g>
     </g>
    </g>
    <g id="ytick_22">
     <g id="line2d_101">
      <path d="M 632.351094 119.422281 
L 893.913594 119.422281 
" clip-path="url(#p60ec2afa65)" style="fill: none; stroke: #d6d6d6; stroke-width: 0.6; stroke-linecap: square"/>
     </g>
     <g id="line2d_102">
      <g>
       <use xlink:href="#mab3052560b" x="632.351094" y="119.422281" style="fill: #777777; stroke: #777777; stroke-width: 0.8"/>
      </g>
     </g>
    </g>
    <g id="ytick_23">
     <g id="line2d_103">
      <path d="M 632.351094 87.636681 
L 893.913594 87.636681 
" clip-path="url(#p60ec2afa65)" style="fill: none; stroke: #d6d6d6; stroke-width: 0.6; stroke-linecap: square"/>
     </g>
     <g id="line2d_104">
      <g>
       <use xlink:href="#mab3052560b" x="632.351094" y="87.636681" style="fill: #777777; stroke: #777777; stroke-width: 0.8"/>
      </g>
     </g>
    </g>
    <g id="ytick_24">
     <g id="line2d_105">
      <path d="M 632.351094 55.851081 
L 893.913594 55.851081 
" clip-path="url(#p60ec2afa65)" style="fill: none; stroke: #d6d6d6; stroke-width: 0.6; stroke-linecap: square"/>
     </g>
     <g id="line2d_106">
      <g>
       <use xlink:href="#mab3052560b" x="632.351094" y="55.851081" style="fill: #777777; stroke: #777777; stroke-width: 0.8"/>
      </g>
     </g>
    </g>
   </g>
   <g id="line2d_107">
    <path d="M 632.351094 119.422281 
L 893.913594 119.422281 
" clip-path="url(#p60ec2afa65)" style="fill: none; stroke-dasharray: 4.44,1.92; stroke-dashoffset: 0; stroke: #777777; stroke-width: 1.2"/>
   </g>
   <g id="line2d_108">
    <path d="M 632.351094 278.350281 
L 632.612656 278.230989 
L 633.005 277.643513 
L 633.397344 276.603203 
L 633.920469 274.581677 
L 634.574375 271.161452 
L 635.489844 264.993913 
L 636.666875 255.275318 
L 638.367031 239.011174 
L 644.252187 180.887965 
L 646.083125 165.796581 
L 647.6525 154.564 
L 649.221875 144.941739 
L 650.660469 137.496438 
L 651.968281 131.803535 
L 653.276094 127.056442 
L 654.583906 123.168377 
L 655.760937 120.327677 
L 656.937969 118.040597 
L 658.115 116.240625 
L 659.292031 114.863918 
L 660.469062 113.850333 
L 661.646094 113.144119 
L 662.823125 112.694346 
L 664.130937 112.439697 
L 665.569531 112.393727 
L 667.269687 112.572101 
L 669.492969 113.052054 
L 673.285625 114.152476 
L 678.386094 115.586359 
L 682.047969 116.375173 
L 685.709844 116.937256 
L 689.894844 117.349191 
L 695.126094 117.630195 
L 703.496094 117.826265 
L 763.263125 118.64731 
L 808.382656 118.991781 
L 871.026875 119.231982 
L 894.044375 119.281297 
L 894.044375 119.281297 
" clip-path="url(#p60ec2afa65)" style="fill: none; stroke: #2a9d3f; stroke-width: 2.2; stroke-linecap: square"/>
   </g>
   <g id="patch_13">
    <path d="M 632.351094 278.350281 
L 632.351094 39.958281 
" style="fill: none; stroke: #777777; stroke-width: 0.8; stroke-linejoin: miter; stroke-linecap: square"/>
   </g>
   <g id="patch_14">
    <path d="M 632.351094 278.350281 
L 893.913594 278.350281 
" style="fill: none; stroke: #777777; stroke-width: 0.8; stroke-linejoin: miter; stroke-linecap: square"/>
   </g>
   <g id="text_46">
    <!-- PID (Kp = 20, Ki = 30, Kd = 1) -->
    <g style="fill: #222222" transform="translate(632.351094 29.958281) scale(0.11 -0.11)">
     <defs>
      <path id="DejaVuSans-Bold-27" d="M 1791 3756 
L 1791 909 
L 2222 909 
Q 2959 909 3348 1275 
Q 3738 1641 3738 2338 
Q 3738 3031 3350 3393 
Q 2963 3756 2222 3756 
L 1791 3756 
z
M 588 4666 
L 1856 4666 
Q 2919 4666 3439 4514 
Q 3959 4363 4331 4000 
Q 4659 3684 4818 3271 
Q 4978 2859 4978 2338 
Q 4978 1809 4818 1395 
Q 4659 981 4331 666 
Q 3956 303 3431 151 
Q 2906 0 1856 0 
L 588 0 
L 588 4666 
z
" transform="scale(0.015625)"/>
      <path id="DejaVuSans-Bold-47" d="M 2919 2988 
L 2919 4863 
L 4044 4863 
L 4044 0 
L 2919 0 
L 2919 506 
Q 2688 197 2409 53 
Q 2131 -91 1766 -91 
Q 1119 -91 703 423 
Q 288 938 288 1747 
Q 288 2556 703 3070 
Q 1119 3584 1766 3584 
Q 2128 3584 2408 3439 
Q 2688 3294 2919 2988 
z
M 2181 722 
Q 2541 722 2730 984 
Q 2919 1247 2919 1747 
Q 2919 2247 2730 2509 
Q 2541 2772 2181 2772 
Q 1825 2772 1636 2509 
Q 1447 2247 1447 1747 
Q 1447 1247 1636 984 
Q 1825 722 2181 722 
z
" transform="scale(0.015625)"/>
      <path id="DejaVuSans-Bold-14" d="M 750 831 
L 1813 831 
L 1813 3847 
L 722 3622 
L 722 4441 
L 1806 4666 
L 2950 4666 
L 2950 831 
L 4013 831 
L 4013 0 
L 750 0 
L 750 831 
z
" transform="scale(0.015625)"/>
     </defs>
     <use xlink:href="#DejaVuSans-Bold-33"/>
     <use xlink:href="#DejaVuSans-Bold-2c" transform="translate(73.296875 0)"/>
     <use xlink:href="#DejaVuSans-Bold-27" transform="translate(110.5 0)"/>
     <use xlink:href="#DejaVuSans-Bold-3" transform="translate(193.515625 0)"/>
     <use xlink:href="#DejaVuSans-Bold-b" transform="translate(228.328125 0)"/>
     <use xlink:href="#DejaVuSans-Bold-2e" transform="translate(274.03125 0)"/>
     <use xlink:href="#DejaVuSans-Bold-53" transform="translate(351.515625 0)"/>
     <use xlink:href="#DejaVuSans-Bold-3" transform="translate(423.09375 0)"/>
     <use xlink:href="#DejaVuSans-Bold-20" transform="translate(457.90625 0)"/>
     <use xlink:href="#DejaVuSans-Bold-3" transform="translate(541.703125 0)"/>
     <use xlink:href="#DejaVuSans-Bold-15" transform="translate(576.515625 0)"/>
     <use xlink:href="#DejaVuSans-Bold-13" transform="translate(646.09375 0)"/>
     <use xlink:href="#DejaVuSans-Bold-f" transform="translate(715.671875 0)"/>
     <use xlink:href="#DejaVuSans-Bold-3" transform="translate(753.65625 0)"/>
     <use xlink:href="#DejaVuSans-Bold-2e" transform="translate(788.46875 0)"/>
     <use xlink:href="#DejaVuSans-Bold-4c" transform="translate(865.953125 0)"/>
     <use xlink:href="#DejaVuSans-Bold-3" transform="translate(900.234375 0)"/>
     <use xlink:href="#DejaVuSans-Bold-20" transform="translate(935.046875 0)"/>
     <use xlink:href="#DejaVuSans-Bold-3" transform="translate(1018.84375 0)"/>
     <use xlink:href="#DejaVuSans-Bold-16" transform="translate(1053.65625 0)"/>
     <use xlink:href="#DejaVuSans-Bold-13" transform="translate(1123.234375 0)"/>
     <use xlink:href="#DejaVuSans-Bold-f" transform="translate(1192.8125 0)"/>
     <use xlink:href="#DejaVuSans-Bold-3" transform="translate(1230.796875 0)"/>
     <use xlink:href="#DejaVuSans-Bold-2e" transform="translate(1265.609375 0)"/>
     <use xlink:href="#DejaVuSans-Bold-47" transform="translate(1343.09375 0)"/>
     <use xlink:href="#DejaVuSans-Bold-3" transform="translate(1414.671875 0)"/>
     <use xlink:href="#DejaVuSans-Bold-20" transform="translate(1449.484375 0)"/>
     <use xlink:href="#DejaVuSans-Bold-3" transform="translate(1533.28125 0)"/>
     <use xlink:href="#DejaVuSans-Bold-14" transform="translate(1568.09375 0)"/>
     <use xlink:href="#DejaVuSans-Bold-c" transform="translate(1637.671875 0)"/>
    </g>
   </g>
   <g id="text_47">
    <g id="patch_15">
     <path d="M 841.552031 111.311601 
L 891.415156 111.311601 
L 891.415156 98.961601 
L 841.552031 98.961601 
z
" style="fill: #ffffff; opacity: 0.85"/>
    </g>
    <!-- target 0.5 -->
    <g style="fill: #777777" transform="translate(842.977031 107.604375) scale(0.095 -0.095)">
     <use xlink:href="#DejaVuSans-57"/>
     <use xlink:href="#DejaVuSans-44" transform="translate(39.203125 0)"/>
     <use xlink:href="#DejaVuSans-55" transform="translate(100.484375 0)"/>
     <use xlink:href="#DejaVuSans-4a" transform="translate(139.84375 0)"/>
     <use xlink:href="#DejaVuSans-48" transform="translate(203.328125 0)"/>
     <use xlink:href="#DejaVuSans-57" transform="translate(264.859375 0)"/>
     <use xlink:href="#DejaVuSans-3" transform="translate(304.0625 0)"/>
     <use xlink:href="#DejaVuSans-13" transform="translate(335.84375 0)"/>
     <use xlink:href="#DejaVuSans-11" transform="translate(399.46875 0)"/>
     <use xlink:href="#DejaVuSans-18" transform="translate(431.25 0)"/>
    </g>
   </g>
   <g id="text_48">
    <g id="patch_16">
     <path d="M 804.730781 253.710296 
L 891.490156 253.710296 
L 891.490156 226.704827 
L 804.730781 226.704827 
z
" style="fill: #ffffff; opacity: 0.85"/>
    </g>
    <!-- overshoot 4% -->
    <g style="fill: #2a9d3f" transform="translate(820.941719 236.804241) scale(0.1 -0.1)">
     <use xlink:href="#DejaVuSans-52"/>
     <use xlink:href="#DejaVuSans-59" transform="translate(61.1875 0)"/>
     <use xlink:href="#DejaVuSans-48" transform="translate(120.375 0)"/>
     <use xlink:href="#DejaVuSans-55" transform="translate(181.90625 0)"/>
     <use xlink:href="#DejaVuSans-56" transform="translate(223.015625 0)"/>
     <use xlink:href="#DejaVuSans-4b" transform="translate(275.109375 0)"/>
     <use xlink:href="#DejaVuSans-52" transform="translate(338.484375 0)"/>
     <use xlink:href="#DejaVuSans-52" transform="translate(399.671875 0)"/>
     <use xlink:href="#DejaVuSans-57" transform="translate(460.859375 0)"/>
     <use xlink:href="#DejaVuSans-3" transform="translate(500.0625 0)"/>
     <use xlink:href="#DejaVuSans-17" transform="translate(531.84375 0)"/>
     <use xlink:href="#DejaVuSans-8" transform="translate(595.46875 0)"/>
    </g>
    <!-- settled by 0.38 s -->
    <g style="fill: #2a9d3f" transform="translate(806.230781 248.806975) scale(0.1 -0.1)">
     <defs>
      <path id="DejaVuSans-1b" d="M 2034 2216 
Q 1584 2216 1326 1975 
Q 1069 1734 1069 1313 
Q 1069 891 1326 650 
Q 1584 409 2034 409 
Q 2484 409 2743 651 
Q 3003 894 3003 1313 
Q 3003 1734 2745 1975 
Q 2488 2216 2034 2216 
z
M 1403 2484 
Q 997 2584 770 2862 
Q 544 3141 544 3541 
Q 544 4100 942 4425 
Q 1341 4750 2034 4750 
Q 2731 4750 3128 4425 
Q 3525 4100 3525 3541 
Q 3525 3141 3298 2862 
Q 3072 2584 2669 2484 
Q 3125 2378 3379 2068 
Q 3634 1759 3634 1313 
Q 3634 634 3220 271 
Q 2806 -91 2034 -91 
Q 1263 -91 848 271 
Q 434 634 434 1313 
Q 434 1759 690 2068 
Q 947 2378 1403 2484 
z
M 1172 3481 
Q 1172 3119 1398 2916 
Q 1625 2713 2034 2713 
Q 2441 2713 2670 2916 
Q 2900 3119 2900 3481 
Q 2900 3844 2670 4047 
Q 2441 4250 2034 4250 
Q 1625 4250 1398 4047 
Q 1172 3844 1172 3481 
z
" transform="scale(0.015625)"/>
     </defs>
     <use xlink:href="#DejaVuSans-56"/>
     <use xlink:href="#DejaVuSans-48" transform="translate(52.09375 0)"/>
     <use xlink:href="#DejaVuSans-57" transform="translate(113.625 0)"/>
     <use xlink:href="#DejaVuSans-57" transform="translate(152.828125 0)"/>
     <use xlink:href="#DejaVuSans-4f" transform="translate(192.03125 0)"/>
     <use xlink:href="#DejaVuSans-48" transform="translate(219.8125 0)"/>
     <use xlink:href="#DejaVuSans-47" transform="translate(281.34375 0)"/>
     <use xlink:href="#DejaVuSans-3" transform="translate(344.828125 0)"/>
     <use xlink:href="#DejaVuSans-45" transform="translate(376.609375 0)"/>
     <use xlink:href="#DejaVuSans-5c" transform="translate(440.09375 0)"/>
     <use xlink:href="#DejaVuSans-3" transform="translate(499.28125 0)"/>
     <use xlink:href="#DejaVuSans-13" transform="translate(531.0625 0)"/>
     <use xlink:href="#DejaVuSans-11" transform="translate(594.6875 0)"/>
     <use xlink:href="#DejaVuSans-16" transform="translate(626.46875 0)"/>
     <use xlink:href="#DejaVuSans-1b" transform="translate(690.09375 0)"/>
     <use xlink:href="#DejaVuSans-3" transform="translate(753.71875 0)"/>
     <use xlink:href="#DejaVuSans-56" transform="translate(785.5 0)"/>
    </g>
   </g>
  </g>
 </g>
 <defs>
  <clipPath id="p1bd55d8a41">
   <rect x="56.913594" y="39.958281" width="261.5625" height="238.392"/>
  </clipPath>
  <clipPath id="pc112f51b14">
   <rect x="344.632344" y="39.958281" width="261.5625" height="238.392"/>
  </clipPath>
  <clipPath id="p60ec2afa65">
   <rect x="632.351094" y="39.958281" width="261.5625" height="238.392"/>
  </clipPath>
 </defs>
</svg>
