<?xml version="1.0" encoding="utf-8" standalone="no"?>
<!DOCTYPE svg PUBLIC "-//W3C//DTD SVG 1.1//EN"
  "http://www.w3.org/Graphics/SVG/1.1/DTD/svg11.dtd">
<svg xmlns:xlink="http://www.w3.org/1999/xlink" width="841.943438pt" height="345.279336pt" viewBox="0 0 841.943438 345.279336" xmlns="http://www.w3.org/2000/svg" version="1.1">
 <metadata>
  <rdf:RDF xmlns:dc="http://purl.org/dc/elements/1.1/" xmlns:cc="http://creativecommons.org/ns#" xmlns:rdf="http://www.w3.org/1999/02/22-rdf-syntax-ns#">
   <cc:Work>
    <dc:type rdf:resource="http://purl.org/dc/dcmitype/StillImage"/>
    <dc:date>2026-10-03T03:10:41.629316</dc:date>
    <dc:format>image/svg+xml</dc:format>
    <dc:creator>
     <cc:Agent>
      <dc:title>Matplotlib v3.11.2, https://matplotlib.org/</dc:title>
     </cc:Agent>
    </dc:creator>
   </cc:Work>
  </rdf:RDF>
 </metadata>
 <defs>
  <style type="text/css">*{stroke-linejoin: round; stroke-linecap: butt}</style>
 </defs>
 <g id="figure_1">
  <g id="patch_1">
   <path d="M -0 345.279336 
L 841.943438 345.279336 
L 841.943438 0 
L -0 0 
z
" style="fill: #ffffff"/>
  </g>
  <g id="axes_1">
   <g id="patch_2">
    <path d="M 69.105781 293.178555 
L 415.343438 293.178555 
L 415.343438 36.338203 
L 69.105781 36.338203 
z
" style="fill: #ffffff"/>
   </g>
   <g id="matplotlib.axis_1">
    <g id="xtick_1">
     <g id="line2d_1">
      <path d="M 84.843857 293.178555 
L 84.843857 36.338203 
" clip-path="url(#p7ae86f9698)" style="fill: none; stroke: #d6d6d6; stroke-opacity: 0.7; stroke-width: 0.6; stroke-linecap: square"/>
     </g>
     <g id="line2d_2">
      <defs>
       <path id="md9e31824e4" d="M 0 0 
L 0 3.5 
" style="stroke: #222222; stroke-width: 0.8"/>
      </defs>
      <g>
       <use xlink:href="#md9e31824e4" x="84.843857" y="293.178555" style="fill: #222222; stroke: #222222; stroke-width: 0.8"/>
      </g>
     </g>
     <g id="text_1">
      <!-- 0 -->
      <g style="fill: #222222" transform="translate(81.821669 307.396328) scale(0.095 -0.095)">
       <defs>
        <path id="DejaVuSans-13" d="M 2034 4250 
Q 1547 4250 1301 3770 
Q 1056 3291 1056 2328 
Q 1056 1369 1301 889 
Q 1547 409 2034 409 
Q 2525 409 2770 889 
Q 3016 1369 3016 2328 
Q 3016 3291 2770 3770 
Q 2525 4250 2034 4250 
z
M 2034 4750 
Q 2819 4750 3233 4129 
Q 3647 3509 3647 2328 
Q 3647 1150 3233 529 
Q 2819 -91 2034 -91 
Q 1250 -91 836 529 
Q 422 1150 422 2328 
Q 422 3509 836 4129 
Q 1250 4750 2034 4750 
z
" transform="scale(0.015625)"/>
       </defs>
       <use xlink:href="#DejaVuSans-13"/>
      </g>
     </g>
    </g>
    <g id="xtick_2">
     <g id="line2d_3">
      <path d="M 124.189045 293.178555 
L 124.189045 36.338203 
" clip-path="url(#p7ae86f9698)" style="fill: none; stroke: #d6d6d6; stroke-opacity: 0.7; stroke-width: 0.6; stroke-linecap: square"/>
     </g>
     <g id="line2d_4">
      <g>
       <use xlink:href="#md9e31824e4" x="124.189045" y="293.178555" style="fill: #222222; stroke: #222222; stroke-width: 0.8"/>
      </g>
     </g>
     <g id="text_2">
      <!-- 5 -->
      <g style="fill: #222222" transform="translate(121.166857 307.396328) scale(0.095 -0.095)">
       <defs>
        <path id="DejaVuSans-18" d="M 691 4666 
L 3169 4666 
L 3169 4134 
L 1269 4134 
L 1269 2991 
Q 1406 3038 1543 3061 
Q 1681 3084 1819 3084 
Q 2600 3084 3056 2656 
Q 3513 2228 3513 1497 
Q 3513 744 3044 326 
Q 2575 -91 1722 -91 
Q 1428 -91 1123 -41 
Q 819 9 494 109 
L 494 744 
Q 775 591 1075 516 
Q 1375 441 1709 441 
Q 2250 441 2565 725 
Q 2881 1009 2881 1497 
Q 2881 1984 2565 2268 
Q 2250 2553 1709 2553 
Q 1456 2553 1204 2497 
Q 953 2441 691 2322 
L 691 4666 
z
" transform="scale(0.015625)"/>
       </defs>
       <use xlink:href="#DejaVuSans-18"/>
      </g>
     </g>
    </g>
    <g id="xtick_3">
     <g id="line2d_5">
      <path d="M 163.534233 293.178555 
L 163.534233 36.338203 
" clip-path="url(#p7ae86f9698)" style="fill: none; stroke: #d6d6d6; stroke-opacity: 0.7; stroke-width: 0.6; stroke-linecap: square"/>
     </g>
     <g id="line2d_6">
      <g>
       <use xlink:href="#md9e31824e4" x="163.534233" y="293.178555" style="fill: #222222; stroke: #222222; stroke-width: 0.8"/>
      </g>
     </g>
     <g id="text_3">
      <!-- 10 -->
      <g style="fill: #222222" transform="translate(157.489858 307.396328) scale(0.095 -0.095)">
       <defs>
        <path id="DejaVuSans-14" d="M 794 531 
L 1825 531 
L 1825 4091 
L 703 3866 
L 703 4441 
L 1819 4666 
L 2450 4666 
L 2450 531 
L 3481 531 
L 3481 0 
L 794 0 
L 794 531 
z
" transform="scale(0.015625)"/>
       </defs>
       <use xlink:href="#DejaVuSans-14"/>
       <use xlink:href="#DejaVuSans-13" transform="translate(63.625 0)"/>
      </g>
     </g>
    </g>
    <g id="xtick_4">
     <g id="line2d_7">
      <path d="M 202.879421 293.178555 
L 202.879421 36.338203 
" clip-path="url(#p7ae86f9698)" style="fill: none; stroke: #d6d6d6; stroke-opacity: 0.7; stroke-width: 0.6; stroke-linecap: square"/>
     </g>
     <g id="line2d_8">
      <g>
       <use xlink:href="#md9e31824e4" x="202.879421" y="293.178555" style="fill: #222222; stroke: #222222; stroke-width: 0.8"/>
      </g>
     </g>
     <g id="text_4">
      <!-- 15 -->
      <g style="fill: #222222" transform="translate(196.835046 307.396328) scale(0.095 -0.095)">
       <use xlink:href="#DejaVuSans-14"/>
       <use xlink:href="#DejaVuSans-18" transform="translate(63.625 0)"/>
      </g>
     </g>
    </g>
    <g id="xtick_5">
     <g id="line2d_9">
      <path d="M 242.224609 293.178555 
L 242.224609 36.338203 
" clip-path="url(#p7ae86f9698)" style="fill: none; stroke: #d6d6d6; stroke-opacity: 0.7; stroke-width: 0.6; stroke-linecap: square"/>
     </g>
     <g id="line2d_10">
      <g>
       <use xlink:href="#md9e31824e4" x="242.224609" y="293.178555" style="fill: #222222; stroke: #222222; stroke-width: 0.8"/>
      </g>
     </g>
     <g id="text_5">
      <!-- 20 -->
      <g style="fill: #222222" transform="translate(236.180234 307.396328) scale(0.095 -0.095)">
       <defs>
        <path id="DejaVuSans-15" d="M 1228 531 
L 3431 531 
L 3431 0 
L 469 0 
L 469 531 
Q 828 903 1448 1529 
Q 2069 2156 2228 2338 
Q 2531 2678 2651 2914 
Q 2772 3150 2772 3378 
Q 2772 3750 2511 3984 
Q 2250 4219 1831 4219 
Q 1534 4219 1204 4116 
Q 875 4013 500 3803 
L 500 4441 
Q 881 4594 1212 4672 
Q 1544 4750 1819 4750 
Q 2544 4750 2975 4387 
Q 3406 4025 3406 3419 
Q 3406 3131 3298 2873 
Q 3191 2616 2906 2266 
Q 2828 2175 2409 1742 
Q 1991 1309 1228 531 
z
" transform="scale(0.015625)"/>
       </defs>
       <use xlink:href="#DejaVuSans-15"/>
       <use xlink:href="#DejaVuSans-13" transform="translate(63.625 0)"/>
      </g>
     </g>
    </g>
    <g id="xtick_6">
     <g id="line2d_11">
      <path d="M 281.569798 293.178555 
L 281.569798 36.338203 
" clip-path="url(#p7ae86f9698)" style="fill: none; stroke: #d6d6d6; stroke-opacity: 0.7; stroke-width: 0.6; stroke-linecap: square"/>
     </g>
     <g id="line2d_12">
      <g>
       <use xlink:href="#md9e31824e4" x="281.569798" y="293.178555" style="fill: #222222; stroke: #222222; stroke-width: 0.8"/>
      </g>
     </g>
     <g id="text_6">
      <!-- 25 -->
      <g style="fill: #222222" transform="translate(275.525423 307.396328) scale(0.095 -0.095)">
       <use xlink:href="#DejaVuSans-15"/>
       <use xlink:href="#DejaVuSans-18" transform="translate(63.625 0)"/>
      </g>
     </g>
    </g>
    <g id="xtick_7">
     <g id="line2d_13">
      <path d="M 320.914986 293.178555 
L 320.914986 36.338203 
" clip-path="url(#p7ae86f9698)" style="fill: none; stroke: #d6d6d6; stroke-opacity: 0.7; stroke-width: 0.6; stroke-linecap: square"/>
     </g>
     <g id="line2d_14">
      <g>
       <use xlink:href="#md9e31824e4" x="320.914986" y="293.178555" style="fill: #222222; stroke: #222222; stroke-width: 0.8"/>
      </g>
     </g>
     <g id="text_7">
      <!-- 30 -->
      <g style="fill: #222222" transform="translate(314.870611 307.396328) scale(0.095 -0.095)">
       <defs>
        <path id="DejaVuSans-16" d="M 2597 2516 
Q 3050 2419 3304 2112 
Q 3559 1806 3559 1356 
Q 3559 666 3084 287 
Q 2609 -91 1734 -91 
Q 1441 -91 1130 -33 
Q 819 25 488 141 
L 488 750 
Q 750 597 1062 519 
Q 1375 441 1716 441 
Q 2309 441 2620 675 
Q 2931 909 2931 1356 
Q 2931 1769 2642 2001 
Q 2353 2234 1838 2234 
L 1294 2234 
L 1294 2753 
L 1863 2753 
Q 2328 2753 2575 2939 
Q 2822 3125 2822 3475 
Q 2822 3834 2567 4026 
Q 2313 4219 1838 4219 
Q 1578 4219 1281 4162 
Q 984 4106 628 3988 
L 628 4550 
Q 988 4650 1302 4700 
Q 1616 4750 1894 4750 
Q 2613 4750 3031 4423 
Q 3450 4097 3450 3541 
Q 3450 3153 3228 2886 
Q 3006 2619 2597 2516 
z
" transform="scale(0.015625)"/>
       </defs>
       <use xlink:href="#DejaVuSans-16"/>
       <use xlink:href="#DejaVuSans-13" transform="translate(63.625 0)"/>
      </g>
     </g>
    </g>
    <g id="xtick_8">
     <g id="line2d_15">
      <path d="M 360.260174 293.178555 
L 360.260174 36.338203 
" clip-path="url(#p7ae86f9698)" style="fill: none; stroke: #d6d6d6; stroke-opacity: 0.7; stroke-width: 0.6; stroke-linecap: square"/>
     </g>
     <g id="line2d_16">
      <g>
       <use xlink:href="#md9e31824e4" x="360.260174" y="293.178555" style="fill: #222222; stroke: #222222; stroke-width: 0.8"/>
      </g>
     </g>
     <g id="text_8">
      <!-- 35 -->
      <g style="fill: #222222" transform="translate(354.215799 307.396328) scale(0.095 -0.095)">
       <use xlink:href="#DejaVuSans-16"/>
       <use xlink:href="#DejaVuSans-18" transform="translate(63.625 0)"/>
      </g>
     </g>
    </g>
    <g id="xtick_9">
     <g id="line2d_17">
      <path d="M 399.605362 293.178555 
L 399.605362 36.338203 
" clip-path="url(#p7ae86f9698)" style="fill: none; stroke: #d6d6d6; stroke-opacity: 0.7; stroke-width: 0.6; stroke-linecap: square"/>
     </g>
     <g id="line2d_18">
      <g>
       <use xlink:href="#md9e31824e4" x="399.605362" y="293.178555" style="fill: #222222; stroke: #222222; stroke-width: 0.8"/>
      </g>
     </g>
     <g id="text_9">
      <!-- 40 -->
      <g style="fill: #222222" transform="translate(393.560987 307.396328) scale(0.095 -0.095)">
       <defs>
        <path id="DejaVuSans-17" d="M 2419 4116 
L 825 1625 
L 2419 1625 
L 2419 4116 
z
M 2253 4666 
L 3047 4666 
L 3047 1625 
L 3713 1625 
L 3713 1100 
L 3047 1100 
L 3047 0 
L 2419 0 
L 2419 1100 
L 313 1100 
L 313 1709 
L 2253 4666 
z
" transform="scale(0.015625)"/>
       </defs>
       <use xlink:href="#DejaVuSans-17"/>
       <use xlink:href="#DejaVuSans-13" transform="translate(63.625 0)"/>
      </g>
     </g>
    </g>
    <g id="text_10">
     <!-- layer, counting from the input -->
     <g transform="translate(167.194922 321.276992) scale(0.1 -0.1)">
      <defs>
       <path id="DejaVuSans-4f" d="M 603 4863 
L 1178 4863 
L 1178 0 
L 603 0 
L 603 4863 
z
" transform="scale(0.015625)"/>
       <path id="DejaVuSans-44" d="M 2194 1759 
Q 1497 1759 1228 1600 
Q 959 1441 959 1056 
Q 959 750 1161 570 
Q 1363 391 1709 391 
Q 2188 391 2477 730 
Q 2766 1069 2766 1631 
L 2766 1759 
L 2194 1759 
z
M 3341 1997 
L 3341 0 
L 2766 0 
L 2766 531 
Q 2569 213 2275 61 
Q 1981 -91 1556 -91 
Q 1019 -91 701 211 
Q 384 513 384 1019 
Q 384 1609 779 1909 
Q 1175 2209 1959 2209 
L 2766 2209 
L 2766 2266 
Q 2766 2663 2505 2880 
Q 2244 3097 1772 3097 
Q 1472 3097 1187 3025 
Q 903 2953 641 2809 
L 641 3341 
Q 956 3463 1253 3523 
Q 1550 3584 1831 3584 
Q 2591 3584 2966 3190 
Q 3341 2797 3341 1997 
z
" transform="scale(0.015625)"/>
       <path id="DejaVuSans-5c" d="M 2059 -325 
Q 1816 -950 1584 -1140 
Q 1353 -1331 966 -1331 
L 506 -1331 
L 506 -850 
L 844 -850 
Q 1081 -850 1212 -737 
Q 1344 -625 1503 -206 
L 1606 56 
L 191 3500 
L 800 3500 
L 1894 763 
L 2988 3500 
L 3597 3500 
L 2059 -325 
z
" transform="scale(0.015625)"/>
       <path id="DejaVuSans-48" d="M 3597 1894 
L 3597 1613 
L 953 1613 
Q 991 1019 1311 708 
Q 1631 397 2203 397 
Q 2534 397 2845 478 
Q 3156 559 3463 722 
L 3463 178 
Q 3153 47 2828 -22 
Q 2503 -91 2169 -91 
Q 1331 -91 842 396 
Q 353 884 353 1716 
Q 353 2575 817 3079 
Q 1281 3584 2069 3584 
Q 2775 3584 3186 3129 
Q 3597 2675 3597 1894 
z
M 3022 2063 
Q 3016 2534 2758 2815 
Q 2500 3097 2075 3097 
Q 1594 3097 1305 2825 
Q 1016 2553 972 2059 
L 3022 2063 
z
" transform="scale(0.015625)"/>
       <path id="DejaVuSans-55" d="M 2631 2963 
Q 2534 3019 2420 3045 
Q 2306 3072 2169 3072 
Q 1681 3072 1420 2755 
Q 1159 2438 1159 1844 
L 1159 0 
L 581 0 
L 581 3500 
L 1159 3500 
L 1159 2956 
Q 1341 3275 1631 3429 
Q 1922 3584 2338 3584 
Q 2397 3584 2469 3576 
Q 2541 3569 2628 3553 
L 2631 2963 
z
" transform="scale(0.015625)"/>
       <path id="DejaVuSans-f" d="M 750 794 
L 1409 794 
L 1409 256 
L 897 -744 
L 494 -744 
L 750 256 
L 750 794 
z
" transform="scale(0.015625)"/>
       <path id="DejaVuSans-3" transform="scale(0.015625)"/>
       <path id="DejaVuSans-46" d="M 3122 3366 
L 3122 2828 
Q 2878 2963 2633 3030 
Q 2388 3097 2138 3097 
Q 1578 3097 1268 2742 
Q 959 2388 959 1747 
Q 959 1106 1268 751 
Q 1578 397 2138 397 
Q 2388 397 2633 464 
Q 2878 531 3122 666 
L 3122 134 
Q 2881 22 2623 -34 
Q 2366 -91 2075 -91 
Q 1284 -91 818 406 
Q 353 903 353 1747 
Q 353 2603 823 3093 
Q 1294 3584 2113 3584 
Q 2378 3584 2631 3529 
Q 2884 3475 3122 3366 
z
" transform="scale(0.015625)"/>
       <path id="DejaVuSans-52" d="M 1959 3097 
Q 1497 3097 1228 2736 
Q 959 2375 959 1747 
Q 959 1119 1226 758 
Q 1494 397 1959 397 
Q 2419 397 2687 759 
Q 2956 1122 2956 1747 
Q 2956 2369 2687 2733 
Q 2419 3097 1959 3097 
z
M 1959 3584 
Q 2709 3584 3137 3096 
Q 3566 2609 3566 1747 
Q 3566 888 3137 398 
Q 2709 -91 1959 -91 
Q 1206 -91 779 398 
Q 353 888 353 1747 
Q 353 2609 779 3096 
Q 1206 3584 1959 3584 
z
" transform="scale(0.015625)"/>
       <path id="DejaVuSans-58" d="M 544 1381 
L 544 3500 
L 1119 3500 
L 1119 1403 
Q 1119 906 1312 657 
Q 1506 409 1894 409 
Q 2359 409 2629 706 
Q 2900 1003 2900 1516 
L 2900 3500 
L 3475 3500 
L 3475 0 
L 2900 0 
L 2900 538 
Q 2691 219 2414 64 
Q 2138 -91 1772 -91 
Q 1169 -91 856 284 
Q 544 659 544 1381 
z
M 1991 3584 
L 1991 3584 
z
" transform="scale(0.015625)"/>
       <path id="DejaVuSans-51" d="M 3513 2113 
L 3513 0 
L 2938 0 
L 2938 2094 
Q 2938 2591 2744 2837 
Q 2550 3084 2163 3084 
Q 1697 3084 1428 2787 
Q 1159 2491 1159 1978 
L 1159 0 
L 581 0 
L 581 3500 
L 1159 3500 
L 1159 2956 
Q 1366 3272 1645 3428 
Q 1925 3584 2291 3584 
Q 2894 3584 3203 3211 
Q 3513 2838 3513 2113 
z
" transform="scale(0.015625)"/>
       <path id="DejaVuSans-57" d="M 1172 4494 
L 1172 3500 
L 2356 3500 
L 2356 3053 
L 1172 3053 
L 1172 1153 
Q 1172 725 1289 603 
Q 1406 481 1766 481 
L 2356 481 
L 2356 0 
L 1766 0 
Q 1100 0 847 248 
Q 594 497 594 1153 
L 594 3053 
L 172 3053 
L 172 3500 
L 594 3500 
L 594 4494 
L 1172 4494 
z
" transform="scale(0.015625)"/>
       <path id="DejaVuSans-4c" d="M 603 3500 
L 1178 3500 
L 1178 0 
L 603 0 
L 603 3500 
z
M 603 4863 
L 1178 4863 
L 1178 4134 
L 603 4134 
L 603 4863 
z
" transform="scale(0.015625)"/>
       <path id="DejaVuSans-4a" d="M 2906 1791 
Q 2906 2416 2648 2759 
Q 2391 3103 1925 3103 
Q 1463 3103 1205 2759 
Q 947 2416 947 1791 
Q 947 1169 1205 825 
Q 1463 481 1925 481 
Q 2391 481 2648 825 
Q 2906 1169 2906 1791 
z
M 3481 434 
Q 3481 -459 3084 -895 
Q 2688 -1331 1869 -1331 
Q 1566 -1331 1297 -1286 
Q 1028 -1241 775 -1147 
L 775 -588 
Q 1028 -725 1275 -790 
Q 1522 -856 1778 -856 
Q 2344 -856 2625 -561 
Q 2906 -266 2906 331 
L 2906 616 
Q 2728 306 2450 153 
Q 2172 0 1784 0 
Q 1141 0 747 490 
Q 353 981 353 1791 
Q 353 2603 747 3093 
Q 1141 3584 1784 3584 
Q 2172 3584 2450 3431 
Q 2728 3278 2906 2969 
L 2906 3500 
L 3481 3500 
L 3481 434 
z
" transform="scale(0.015625)"/>
       <path id="DejaVuSans-49" d="M 2375 4863 
L 2375 4384 
L 1825 4384 
Q 1516 4384 1395 4259 
Q 1275 4134 1275 3809 
L 1275 3500 
L 2222 3500 
L 2222 3053 
L 1275 3053 
L 1275 0 
L 697 0 
L 697 3053 
L 147 3053 
L 147 3500 
L 697 3500 
L 697 3744 
Q 697 4328 969 4595 
Q 1241 4863 1831 4863 
L 2375 4863 
z
" transform="scale(0.015625)"/>
       <path id="DejaVuSans-50" d="M 3328 2828 
Q 3544 3216 3844 3400 
Q 4144 3584 4550 3584 
Q 5097 3584 5394 3201 
Q 5691 2819 5691 2113 
L 5691 0 
L 5113 0 
L 5113 2094 
Q 5113 2597 4934 2840 
Q 4756 3084 4391 3084 
Q 3944 3084 3684 2787 
Q 3425 2491 3425 1978 
L 3425 0 
L 2847 0 
L 2847 2094 
Q 2847 2600 2669 2842 
Q 2491 3084 2119 3084 
Q 1678 3084 1418 2786 
Q 1159 2488 1159 1978 
L 1159 0 
L 581 0 
L 581 3500 
L 1159 3500 
L 1159 2956 
Q 1356 3278 1631 3431 
Q 1906 3584 2284 3584 
Q 2666 3584 2933 3390 
Q 3200 3197 3328 2828 
z
" transform="scale(0.015625)"/>
       <path id="DejaVuSans-4b" d="M 3513 2113 
L 3513 0 
L 2938 0 
L 2938 2094 
Q 2938 2591 2744 2837 
Q 2550 3084 2163 3084 
Q 1697 3084 1428 2787 
Q 1159 2491 1159 1978 
L 1159 0 
L 581 0 
L 581 4863 
L 1159 4863 
L 1159 2956 
Q 1366 3272 1645 3428 
Q 1925 3584 2291 3584 
Q 2894 3584 3203 3211 
Q 3513 2838 3513 2113 
z
" transform="scale(0.015625)"/>
       <path id="DejaVuSans-53" d="M 1159 525 
L 1159 -1331 
L 581 -1331 
L 581 3500 
L 1159 3500 
L 1159 2969 
Q 1341 3281 1617 3432 
Q 1894 3584 2278 3584 
Q 2916 3584 3314 3078 
Q 3713 2572 3713 1747 
Q 3713 922 3314 415 
Q 2916 -91 2278 -91 
Q 1894 -91 1617 61 
Q 1341 213 1159 525 
z
M 3116 1747 
Q 3116 2381 2855 2742 
Q 2594 3103 2138 3103 
Q 1681 3103 1420 2742 
Q 1159 2381 1159 1747 
Q 1159 1113 1420 752 
Q 1681 391 2138 391 
Q 2594 391 2855 752 
Q 3116 1113 3116 1747 
z
" transform="scale(0.015625)"/>
      </defs>
      <use xlink:href="#DejaVuSans-4f"/>
      <use xlink:href="#DejaVuSans-44" transform="translate(27.78125 0)"/>
      <use xlink:href="#DejaVuSans-5c" transform="translate(89.0625 0)"/>
      <use xlink:href="#DejaVuSans-48" transform="translate(148.25 0)"/>
      <use xlink:href="#DejaVuSans-55" transform="translate(209.78125 0)"/>
      <use xlink:href="#DejaVuSans-f" transform="translate(250.890625 0)"/>
      <use xlink:href="#DejaVuSans-3" transform="translate(282.671875 0)"/>
      <use xlink:href="#DejaVuSans-46" transform="translate(314.453125 0)"/>
      <use xlink:href="#DejaVuSans-52" transform="translate(369.4375 0)"/>
      <use xlink:href="#DejaVuSans-58" transform="translate(430.625 0)"/>
      <use xlink:href="#DejaVuSans-51" transform="translate(494 0)"/>
      <use xlink:href="#DejaVuSans-57" transform="translate(557.375 0)"/>
      <use xlink:href="#DejaVuSans-4c" transform="translate(596.578125 0)"/>
      <use xlink:href="#DejaVuSans-51" transform="translate(624.359375 0)"/>
      <use xlink:href="#DejaVuSans-4a" transform="translate(687.734375 0)"/>
      <use xlink:href="#DejaVuSans-3" transform="translate(751.21875 0)"/>
      <use xlink:href="#DejaVuSans-49" transform="translate(783 0)"/>
      <use xlink:href="#DejaVuSans-55" transform="translate(818.203125 0)"/>
      <use xlink:href="#DejaVuSans-52" transform="translate(857.109375 0)"/>
      <use xlink:href="#DejaVuSans-50" transform="translate(918.296875 0)"/>
      <use xlink:href="#DejaVuSans-3" transform="translate(1015.703125 0)"/>
      <use xlink:href="#DejaVuSans-57" transform="translate(1047.484375 0)"/>
      <use xlink:href="#DejaVuSans-4b" transform="translate(1086.6875 0)"/>
      <use xlink:href="#DejaVuSans-48" transform="translate(1150.0625 0)"/>
      <use xlink:href="#DejaVuSans-3" transform="translate(1211.59375 0)"/>
      <use xlink:href="#DejaVuSans-4c" transform="translate(1243.375 0)"/>
      <use xlink:href="#DejaVuSans-51" transform="translate(1271.15625 0)"/>
      <use xlink:href="#DejaVuSans-53" transform="translate(1334.53125 0)"/>
      <use xlink:href="#DejaVuSans-58" transform="translate(1398.015625 0)"/>
      <use xlink:href="#DejaVuSans-57" transform="translate(1461.390625 0)"/>
     </g>
    </g>
   </g>
   <g id="matplotlib.axis_2">
    <g id="ytick_1">
     <g id="line2d_19">
      <path d="M 69.105781 282.904941 
L 415.343438 282.904941 
" clip-path="url(#p7ae86f9698)" style="fill: none; stroke: #d6d6d6; stroke-opacity: 0.7; stroke-width: 0.6; stroke-linecap: square"/>
     </g>
     <g id="line2d_20">
      <defs>
       <path id="m4aad408d9d" d="M 0 0 
L -3.5 0 
" style="stroke: #222222; stroke-width: 0.8"/>
      </defs>
      <g>
       <use xlink:href="#m4aad408d9d" x="69.105781" y="282.904941" style="fill: #222222; stroke: #222222; stroke-width: 0.8"/>
      </g>
     </g>
     <g id="text_11">
      <!-- $\mathdefault{10^{-15}}$ -->
      <g style="fill: #222222" transform="translate(35.600781 287.322441) scale(0.095 -0.095)">
       <defs>
        <path id="DejaVuSans-c9c" d="M 678 2272 
L 4684 2272 
L 4684 1741 
L 678 1741 
L 678 2272 
z
" transform="scale(0.015625)"/>
       </defs>
       <use xlink:href="#DejaVuSans-14" transform="translate(0 0.665625)"/>
       <use xlink:href="#DejaVuSans-13" transform="translate(63.623047 0.665625)"/>
       <use xlink:href="#DejaVuSans-c9c" transform="translate(128.203125 41.965625) scale(0.7)"/>
       <use xlink:href="#DejaVuSans-14" transform="translate(186.855469 41.965625) scale(0.7)"/>
       <use xlink:href="#DejaVuSans-18" transform="translate(231.391602 41.965625) scale(0.7)"/>
      </g>
     </g>
    </g>
    <g id="ytick_2">
     <g id="line2d_21">
      <path d="M 69.105781 252.084098 
L 415.343438 252.084098 
" clip-path="url(#p7ae86f9698)" style="fill: none; stroke: #d6d6d6; stroke-opacity: 0.7; stroke-width: 0.6; stroke-linecap: square"/>
     </g>
     <g id="line2d_22">
      <g>
       <use xlink:href="#m4aad408d9d" x="69.105781" y="252.084098" style="fill: #222222; stroke: #222222; stroke-width: 0.8"/>
      </g>
     </g>
     <g id="text_12">
      <!-- $\mathdefault{10^{-12}}$ -->
      <g style="fill: #222222" transform="translate(35.600781 256.549098) scale(0.095 -0.095)">
       <use xlink:href="#DejaVuSans-14" transform="translate(0 0.746875)"/>
       <use xlink:href="#DejaVuSans-13" transform="translate(63.623047 0.746875)"/>
       <use xlink:href="#DejaVuSans-c9c" transform="translate(128.203125 42.046875) scale(0.7)"/>
       <use xlink:href="#DejaVuSans-14" transform="translate(186.855469 42.046875) scale(0.7)"/>
       <use xlink:href="#DejaVuSans-15" transform="translate(231.391602 42.046875) scale(0.7)"/>
      </g>
     </g>
    </g>
    <g id="ytick_3">
     <g id="line2d_23">
      <path d="M 69.105781 221.263256 
L 415.343438 221.263256 
" clip-path="url(#p7ae86f9698)" style="fill: none; stroke: #d6d6d6; stroke-opacity: 0.7; stroke-width: 0.6; stroke-linecap: square"/>
     </g>
     <g id="line2d_24">
      <g>
       <use xlink:href="#m4aad408d9d" x="69.105781" y="221.263256" style="fill: #222222; stroke: #222222; stroke-width: 0.8"/>
      </g>
     </g>
     <g id="text_13">
      <!-- $\mathdefault{10^{-9}}$ -->
      <g style="fill: #222222" transform="translate(39.780781 225.728256) scale(0.095 -0.095)">
       <defs>
        <path id="DejaVuSans-1c" d="M 703 97 
L 703 672 
Q 941 559 1184 500 
Q 1428 441 1663 441 
Q 2288 441 2617 861 
Q 2947 1281 2994 2138 
Q 2813 1869 2534 1725 
Q 2256 1581 1919 1581 
Q 1219 1581 811 2004 
Q 403 2428 403 3163 
Q 403 3881 828 4315 
Q 1253 4750 1959 4750 
Q 2769 4750 3195 4129 
Q 3622 3509 3622 2328 
Q 3622 1225 3098 567 
Q 2575 -91 1691 -91 
Q 1453 -91 1209 -44 
Q 966 3 703 97 
z
M 1959 2075 
Q 2384 2075 2632 2365 
Q 2881 2656 2881 3163 
Q 2881 3666 2632 3958 
Q 2384 4250 1959 4250 
Q 1534 4250 1286 3958 
Q 1038 3666 1038 3163 
Q 1038 2656 1286 2365 
Q 1534 2075 1959 2075 
z
" transform="scale(0.015625)"/>
       </defs>
       <use xlink:href="#DejaVuSans-14" transform="translate(0 0.746875)"/>
       <use xlink:href="#DejaVuSans-13" transform="translate(63.623047 0.746875)"/>
       <use xlink:href="#DejaVuSans-c9c" transform="translate(128.203125 42.046875) scale(0.7)"/>
       <use xlink:href="#DejaVuSans-1c" transform="translate(186.855469 42.046875) scale(0.7)"/>
      </g>
     </g>
    </g>
    <g id="ytick_4">
     <g id="line2d_25">
      <path d="M 69.105781 190.442414 
L 415.343438 190.442414 
" clip-path="url(#p7ae86f9698)" style="fill: none; stroke: #d6d6d6; stroke-opacity: 0.7; stroke-width: 0.6; stroke-linecap: square"/>
     </g>
     <g id="line2d_26">
      <g>
       <use xlink:href="#m4aad408d9d" x="69.105781" y="190.442414" style="fill: #222222; stroke: #222222; stroke-width: 0.8"/>
      </g>
     </g>
     <g id="text_14">
      <!-- $\mathdefault{10^{-6}}$ -->
      <g style="fill: #222222" transform="translate(39.780781 194.907414) scale(0.095 -0.095)">
       <defs>
        <path id="DejaVuSans-19" d="M 2113 2584 
Q 1688 2584 1439 2293 
Q 1191 2003 1191 1497 
Q 1191 994 1439 701 
Q 1688 409 2113 409 
Q 2538 409 2786 701 
Q 3034 994 3034 1497 
Q 3034 2003 2786 2293 
Q 2538 2584 2113 2584 
z
M 3366 4563 
L 3366 3988 
Q 3128 4100 2886 4159 
Q 2644 4219 2406 4219 
Q 1781 4219 1451 3797 
Q 1122 3375 1075 2522 
Q 1259 2794 1537 2939 
Q 1816 3084 2150 3084 
Q 2853 3084 3261 2657 
Q 3669 2231 3669 1497 
Q 3669 778 3244 343 
Q 2819 -91 2113 -91 
Q 1303 -91 875 529 
Q 447 1150 447 2328 
Q 447 3434 972 4092 
Q 1497 4750 2381 4750 
Q 2619 4750 2861 4703 
Q 3103 4656 3366 4563 
z
" transform="scale(0.015625)"/>
       </defs>
       <use xlink:href="#DejaVuSans-14" transform="translate(0 0.746875)"/>
       <use xlink:href="#DejaVuSans-13" transform="translate(63.623047 0.746875)"/>
       <use xlink:href="#DejaVuSans-c9c" transform="translate(128.203125 42.046875) scale(0.7)"/>
       <use xlink:href="#DejaVuSans-19" transform="translate(186.855469 42.046875) scale(0.7)"/>
      </g>
     </g>
    </g>
    <g id="ytick_5">
     <g id="line2d_27">
      <path d="M 69.105781 159.621572 
L 415.343438 159.621572 
" clip-path="url(#p7ae86f9698)" style="fill: none; stroke: #d6d6d6; stroke-opacity: 0.7; stroke-width: 0.6; stroke-linecap: square"/>
     </g>
     <g id="line2d_28">
      <g>
       <use xlink:href="#m4aad408d9d" x="69.105781" y="159.621572" style="fill: #222222; stroke: #222222; stroke-width: 0.8"/>
      </g>
     </g>
     <g id="text_15">
      <!-- $\mathdefault{10^{-3}}$ -->
      <g style="fill: #222222" transform="translate(39.780781 164.086572) scale(0.095 -0.095)">
       <use xlink:href="#DejaVuSans-14" transform="translate(0 0.746875)"/>
       <use xlink:href="#DejaVuSans-13" transform="translate(63.623047 0.746875)"/>
       <use xlink:href="#DejaVuSans-c9c" transform="translate(128.203125 42.046875) scale(0.7)"/>
       <use xlink:href="#DejaVuSans-16" transform="translate(186.855469 42.046875) scale(0.7)"/>
      </g>
     </g>
    </g>
    <g id="ytick_6">
     <g id="line2d_29">
      <path d="M 69.105781 128.80073 
L 415.343438 128.80073 
" clip-path="url(#p7ae86f9698)" style="fill: none; stroke: #d6d6d6; stroke-opacity: 0.7; stroke-width: 0.6; stroke-linecap: square"/>
     </g>
     <g id="line2d_30">
      <g>
       <use xlink:href="#m4aad408d9d" x="69.105781" y="128.80073" style="fill: #222222; stroke: #222222; stroke-width: 0.8"/>
      </g>
     </g>
     <g id="text_16">
      <!-- $\mathdefault{10^{0}}$ -->
      <g style="fill: #222222" transform="translate(45.385781 133.26573) scale(0.095 -0.095)">
       <use xlink:href="#DejaVuSans-14" transform="translate(0 0.746875)"/>
       <use xlink:href="#DejaVuSans-13" transform="translate(63.623047 0.746875)"/>
       <use xlink:href="#DejaVuSans-13" transform="translate(128.203125 42.046875) scale(0.7)"/>
      </g>
     </g>
    </g>
    <g id="ytick_7">
     <g id="line2d_31">
      <path d="M 69.105781 97.979888 
L 415.343438 97.979888 
" clip-path="url(#p7ae86f9698)" style="fill: none; stroke: #d6d6d6; stroke-opacity: 0.7; stroke-width: 0.6; stroke-linecap: square"/>
     </g>
     <g id="line2d_32">
      <g>
       <use xlink:href="#m4aad408d9d" x="69.105781" y="97.979888" style="fill: #222222; stroke: #222222; stroke-width: 0.8"/>
      </g>
     </g>
     <g id="text_17">
      <!-- $\mathdefault{10^{3}}$ -->
      <g style="fill: #222222" transform="translate(45.385781 102.444887) scale(0.095 -0.095)">
       <use xlink:href="#DejaVuSans-14" transform="translate(0 0.746875)"/>
       <use xlink:href="#DejaVuSans-13" transform="translate(63.623047 0.746875)"/>
       <use xlink:href="#DejaVuSans-16" transform="translate(128.203125 42.046875) scale(0.7)"/>
      </g>
     </g>
    </g>
    <g id="ytick_8">
     <g id="line2d_33">
      <path d="M 69.105781 67.159045 
L 415.343438 67.159045 
" clip-path="url(#p7ae86f9698)" style="fill: none; stroke: #d6d6d6; stroke-opacity: 0.7; stroke-width: 0.6; stroke-linecap: square"/>
     </g>
     <g id="line2d_34">
      <g>
       <use xlink:href="#m4aad408d9d" x="69.105781" y="67.159045" style="fill: #222222; stroke: #222222; stroke-width: 0.8"/>
      </g>
     </g>
     <g id="text_18">
      <!-- $\mathdefault{10^{6}}$ -->
      <g style="fill: #222222" transform="translate(45.385781 71.624045) scale(0.095 -0.095)">
       <use xlink:href="#DejaVuSans-14" transform="translate(0 0.746875)"/>
       <use xlink:href="#DejaVuSans-13" transform="translate(63.623047 0.746875)"/>
       <use xlink:href="#DejaVuSans-19" transform="translate(128.203125 42.046875) scale(0.7)"/>
      </g>
     </g>
    </g>
    <g id="ytick_9">
     <g id="line2d_35">
      <path d="M 69.105781 36.338203 
L 415.343438 36.338203 
" clip-path="url(#p7ae86f9698)" style="fill: none; stroke: #d6d6d6; stroke-opacity: 0.7; stroke-width: 0.6; stroke-linecap: square"/>
     </g>
     <g id="line2d_36">
      <g>
       <use xlink:href="#m4aad408d9d" x="69.105781" y="36.338203" style="fill: #222222; stroke: #222222; stroke-width: 0.8"/>
      </g>
     </g>
     <g id="text_19">
      <!-- $\mathdefault{10^{9}}$ -->
      <g style="fill: #222222" transform="translate(45.385781 40.803203) scale(0.095 -0.095)">
       <use xlink:href="#DejaVuSans-14" transform="translate(0 0.746875)"/>
       <use xlink:href="#DejaVuSans-13" transform="translate(63.623047 0.746875)"/>
       <use xlink:href="#DejaVuSans-1c" transform="translate(128.203125 42.046875) scale(0.7)"/>
      </g>
     </g>
    </g>
    <g id="text_20">
     <!-- size of the numbers coming out (log scale) -->
     <g transform="translate(29.198438 271.727129) rotate(-90) scale(0.1 -0.1)">
      <defs>
       <path id="DejaVuSans-56" d="M 2834 3397 
L 2834 2853 
Q 2591 2978 2328 3040 
Q 2066 3103 1784 3103 
Q 1356 3103 1142 2972 
Q 928 2841 928 2578 
Q 928 2378 1081 2264 
Q 1234 2150 1697 2047 
L 1894 2003 
Q 2506 1872 2764 1633 
Q 3022 1394 3022 966 
Q 3022 478 2636 193 
Q 2250 -91 1575 -91 
Q 1294 -91 989 -36 
Q 684 19 347 128 
L 347 722 
Q 666 556 975 473 
Q 1284 391 1588 391 
Q 1994 391 2212 530 
Q 2431 669 2431 922 
Q 2431 1156 2273 1281 
Q 2116 1406 1581 1522 
L 1381 1569 
Q 847 1681 609 1914 
Q 372 2147 372 2553 
Q 372 3047 722 3315 
Q 1072 3584 1716 3584 
Q 2034 3584 2315 3537 
Q 2597 3491 2834 3397 
z
" transform="scale(0.015625)"/>
       <path id="DejaVuSans-5d" d="M 353 3500 
L 3084 3500 
L 3084 2975 
L 922 459 
L 3084 459 
L 3084 0 
L 275 0 
L 275 525 
L 2438 3041 
L 353 3041 
L 353 3500 
z
" transform="scale(0.015625)"/>
       <path id="DejaVuSans-45" d="M 3116 1747 
Q 3116 2381 2855 2742 
Q 2594 3103 2138 3103 
Q 1681 3103 1420 2742 
Q 1159 2381 1159 1747 
Q 1159 1113 1420 752 
Q 1681 391 2138 391 
Q 2594 391 2855 752 
Q 3116 1113 3116 1747 
z
M 1159 2969 
Q 1341 3281 1617 3432 
Q 1894 3584 2278 3584 
Q 2916 3584 3314 3078 
Q 3713 2572 3713 1747 
Q 3713 922 3314 415 
Q 2916 -91 2278 -91 
Q 1894 -91 1617 61 
Q 1341 213 1159 525 
L 1159 0 
L 581 0 
L 581 4863 
L 1159 4863 
L 1159 2969 
z
" transform="scale(0.015625)"/>
       <path id="DejaVuSans-b" d="M 1984 4856 
Q 1566 4138 1362 3434 
Q 1159 2731 1159 2009 
Q 1159 1288 1364 580 
Q 1569 -128 1984 -844 
L 1484 -844 
Q 1016 -109 783 600 
Q 550 1309 550 2009 
Q 550 2706 781 3412 
Q 1013 4119 1484 4856 
L 1984 4856 
z
" transform="scale(0.015625)"/>
       <path id="DejaVuSans-c" d="M 513 4856 
L 1013 4856 
Q 1481 4119 1714 3412 
Q 1947 2706 1947 2009 
Q 1947 1309 1714 600 
Q 1481 -109 1013 -844 
L 513 -844 
Q 928 -128 1133 580 
Q 1338 1288 1338 2009 
Q 1338 2731 1133 3434 
Q 928 4138 513 4856 
z
" transform="scale(0.015625)"/>
      </defs>
      <use xlink:href="#DejaVuSans-56"/>
      <use xlink:href="#DejaVuSans-4c" transform="translate(52.09375 0)"/>
      <use xlink:href="#DejaVuSans-5d" transform="translate(79.875 0)"/>
      <use xlink:href="#DejaVuSans-48" transform="translate(132.359375 0)"/>
      <use xlink:href="#DejaVuSans-3" transform="translate(193.890625 0)"/>
      <use xlink:href="#DejaVuSans-52" transform="translate(225.671875 0)"/>
      <use xlink:href="#DejaVuSans-49" transform="translate(286.859375 0)"/>
      <use xlink:href="#DejaVuSans-3" transform="translate(322.0625 0)"/>
      <use xlink:href="#DejaVuSans-57" transform="translate(353.84375 0)"/>
      <use xlink:href="#DejaVuSans-4b" transform="translate(393.046875 0)"/>
      <use xlink:href="#DejaVuSans-48" transform="translate(456.421875 0)"/>
      <use xlink:href="#DejaVuSans-3" transform="translate(517.953125 0)"/>
      <use xlink:href="#DejaVuSans-51" transform="translate(549.734375 0)"/>
      <use xlink:href="#DejaVuSans-58" transform="translate(613.109375 0)"/>
      <use xlink:href="#DejaVuSans-50" transform="translate(676.484375 0)"/>
      <use xlink:href="#DejaVuSans-45" transform="translate(773.890625 0)"/>
      <use xlink:href="#DejaVuSans-48" transform="translate(837.375 0)"/>
      <use xlink:href="#DejaVuSans-55" transform="translate(898.90625 0)"/>
      <use xlink:href="#DejaVuSans-56" transform="translate(940.015625 0)"/>
      <use xlink:href="#DejaVuSans-3" transform="translate(992.109375 0)"/>
      <use xlink:href="#DejaVuSans-46" transform="translate(1023.890625 0)"/>
      <use xlink:href="#DejaVuSans-52" transform="translate(1078.875 0)"/>
      <use xlink:href="#DejaVuSans-50" transform="translate(1140.0625 0)"/>
      <use xlink:href="#DejaVuSans-4c" transform="translate(1237.46875 0)"/>
      <use xlink:href="#DejaVuSans-51" transform="translate(1265.25 0)"/>
      <use xlink:href="#DejaVuSans-4a" transform="translate(1328.625 0)"/>
      <use xlink:href="#DejaVuSans-3" transform="translate(1392.109375 0)"/>
      <use xlink:href="#DejaVuSans-52" transform="translate(1423.890625 0)"/>
      <use xlink:href="#DejaVuSans-58" transform="translate(1485.078125 0)"/>
      <use xlink:href="#DejaVuSans-57" transform="translate(1548.453125 0)"/>
      <use xlink:href="#DejaVuSans-3" transform="translate(1587.65625 0)"/>
      <use xlink:href="#DejaVuSans-b" transform="translate(1619.4375 0)"/>
      <use xlink:href="#DejaVuSans-4f" transform="translate(1658.453125 0)"/>
      <use xlink:href="#DejaVuSans-52" transform="translate(1686.234375 0)"/>
      <use xlink:href="#DejaVuSans-4a" transform="translate(1747.421875 0)"/>
      <use xlink:href="#DejaVuSans-3" transform="translate(1810.90625 0)"/>
      <use xlink:href="#DejaVuSans-56" transform="translate(1842.6875 0)"/>
      <use xlink:href="#DejaVuSans-46" transform="translate(1894.78125 0)"/>
      <use xlink:href="#DejaVuSans-44" transform="translate(1949.765625 0)"/>
      <use xlink:href="#DejaVuSans-4f" transform="translate(2011.046875 0)"/>
      <use xlink:href="#DejaVuSans-48" transform="translate(2038.828125 0)"/>
      <use xlink:href="#DejaVuSans-c" transform="translate(2100.359375 0)"/>
     </g>
    </g>
   </g>
   <g id="line2d_37">
    <path d="M 84.843857 128.842145 
L 92.712894 127.088871 
L 100.581932 125.784881 
L 108.450969 124.081491 
L 116.320007 122.842581 
L 124.189045 121.903116 
L 132.058082 120.418065 
L 139.92712 118.77588 
L 147.796158 117.855829 
L 155.665195 117.480753 
L 163.534233 115.253286 
L 171.403271 115.213647 
L 179.272308 112.605742 
L 187.141346 110.547056 
L 195.010384 109.403703 
L 202.879421 108.740168 
L 210.748459 106.804593 
L 218.617496 105.68422 
L 226.486534 104.123827 
L 234.355572 102.049592 
L 242.224609 100.019451 
L 250.093647 99.951772 
L 257.962685 99.312008 
L 265.831722 97.551915 
L 273.70076 96.903668 
L 281.569798 94.771356 
L 289.438835 92.990679 
L 297.307873 91.254448 
L 305.176911 89.674744 
L 313.045948 88.6124 
L 320.914986 86.376459 
L 328.784023 83.535463 
L 336.653061 81.671156 
L 344.522099 79.551095 
L 352.391136 78.62755 
L 360.260174 77.478102 
L 368.129212 75.513672 
L 375.998249 73.969179 
L 383.867287 73.184927 
L 391.736325 72.167316 
L 399.605362 70.141428 
" clip-path="url(#p7ae86f9698)" style="fill: none; stroke: #6a4fb3; stroke-width: 2.2; stroke-linecap: square"/>
   </g>
   <g id="line2d_38">
    <path d="M 84.843857 128.842145 
L 92.712894 128.80073 
L 100.581932 128.80073 
L 108.450969 128.80073 
L 116.320007 128.80073 
L 124.189045 128.80073 
L 132.058082 128.80073 
L 139.92712 128.80073 
L 147.796158 128.80073 
L 155.665195 128.80073 
L 163.534233 128.80073 
L 171.403271 128.80073 
L 179.272308 128.80073 
L 187.141346 128.80073 
L 195.010384 128.80073 
L 202.879421 128.80073 
L 210.748459 128.80073 
L 218.617496 128.80073 
L 226.486534 128.80073 
L 234.355572 128.80073 
L 242.224609 128.80073 
L 250.093647 128.80073 
L 257.962685 128.80073 
L 265.831722 128.80073 
L 273.70076 128.80073 
L 281.569798 128.80073 
L 289.438835 128.80073 
L 297.307873 128.80073 
L 305.176911 128.80073 
L 313.045948 128.80073 
L 320.914986 128.80073 
L 328.784023 128.80073 
L 336.653061 128.80073 
L 344.522099 128.80073 
L 352.391136 128.80073 
L 360.260174 128.80073 
L 368.129212 128.80073 
L 375.998249 128.80073 
L 383.867287 128.80073 
L 391.736325 128.80073 
L 399.605362 128.80073 
" clip-path="url(#p7ae86f9698)" style="fill: none; stroke-dasharray: 8.14,3.52; stroke-dashoffset: 0; stroke: #6a4fb3; stroke-width: 2.2"/>
   </g>
   <g id="line2d_39">
    <path d="M 84.843857 128.842145 
L 92.712894 131.77294 
L 100.581932 135.153019 
L 108.450969 138.133698 
L 116.320007 141.578857 
L 124.189045 145.323461 
L 132.058082 148.522479 
L 139.92712 151.564362 
L 147.796158 155.328381 
L 155.665195 159.637373 
L 163.534233 162.093975 
L 171.403271 166.738405 
L 179.272308 168.81457 
L 187.141346 171.439953 
L 195.010384 174.980669 
L 202.879421 179.001202 
L 210.748459 181.749696 
L 218.617496 185.313392 
L 226.486534 188.437068 
L 234.355572 191.046902 
L 242.224609 193.70083 
L 250.093647 198.31722 
L 257.962685 202.361525 
L 265.831722 205.285501 
L 273.70076 209.321323 
L 281.569798 211.87308 
L 289.438835 214.776471 
L 297.307873 217.72431 
L 305.176911 220.828675 
L 313.045948 224.4504 
L 320.914986 226.898527 
L 328.784023 228.741601 
L 336.653061 231.561363 
L 344.522099 234.125371 
L 352.391136 237.885894 
L 360.260174 241.420515 
L 368.129212 244.140154 
L 375.998249 247.27973 
L 383.867287 251.179548 
L 391.736325 254.846005 
L 399.605362 257.504186 
" clip-path="url(#p7ae86f9698)" style="fill: none; stroke: #e05555; stroke-width: 2.2; stroke-linecap: square"/>
   </g>
   <g id="line2d_40">
    <path d="M 84.843857 128.842145 
L 92.712894 128.80073 
L 100.581932 128.80073 
L 108.450969 128.80073 
L 116.320007 128.80073 
L 124.189045 128.80073 
L 132.058082 128.80073 
L 139.92712 128.80073 
L 147.796158 128.80073 
L 155.665195 128.80073 
L 163.534233 128.80073 
L 171.403271 128.80073 
L 179.272308 128.80073 
L 187.141346 128.80073 
L 195.010384 128.80073 
L 202.879421 128.80073 
L 210.748459 128.80073 
L 218.617496 128.80073 
L 226.486534 128.80073 
L 234.355572 128.80073 
L 242.224609 128.80073 
L 250.093647 128.80073 
L 257.962685 128.80073 
L 265.831722 128.80073 
L 273.70076 128.80073 
L 281.569798 128.80073 
L 289.438835 128.80073 
L 297.307873 128.80073 
L 305.176911 128.80073 
L 313.045948 128.80073 
L 320.914986 128.80073 
L 328.784023 128.80073 
L 336.653061 128.80073 
L 344.522099 128.80073 
L 352.391136 128.80073 
L 360.260174 128.80073 
L 368.129212 128.80073 
L 375.998249 128.80073 
L 383.867287 128.80073 
L 391.736325 128.80073 
L 399.605362 128.80073 
" clip-path="url(#p7ae86f9698)" style="fill: none; stroke-dasharray: 8.14,3.52; stroke-dashoffset: 0; stroke: #e05555; stroke-width: 2.2"/>
   </g>
   <g id="patch_3">
    <path d="M 69.105781 293.178555 
L 69.105781 36.338203 
" style="fill: none; stroke: #777777; stroke-width: 0.8; stroke-linejoin: miter; stroke-linecap: square"/>
   </g>
   <g id="patch_4">
    <path d="M 69.105781 293.178555 
L 415.343438 293.178555 
" style="fill: none; stroke: #777777; stroke-width: 0.8; stroke-linejoin: miter; stroke-linecap: square"/>
   </g>
   <g id="text_21">
    <!-- Rescaling every layer holds the forward numbers at about 1 -->
    <g transform="translate(47.133398 30.338203) scale(0.115 -0.115)">
     <defs>
      <path id="DejaVuSans-Bold-35" d="M 2297 2597 
Q 2675 2597 2839 2737 
Q 3003 2878 3003 3200 
Q 3003 3519 2839 3656 
Q 2675 3794 2297 3794 
L 1791 3794 
L 1791 2597 
L 2297 2597 
z
M 1791 1766 
L 1791 0 
L 588 0 
L 588 4666 
L 2425 4666 
Q 3347 4666 3776 4356 
Q 4206 4047 4206 3378 
Q 4206 2916 3982 2619 
Q 3759 2322 3309 2181 
Q 3556 2125 3751 1926 
Q 3947 1728 4147 1325 
L 4800 0 
L 3519 0 
L 2950 1159 
Q 2778 1509 2601 1637 
Q 2425 1766 2131 1766 
L 1791 1766 
z
" transform="scale(0.015625)"/>
      <path id="DejaVuSans-Bold-48" d="M 4031 1759 
L 4031 1441 
L 1416 1441 
Q 1456 1047 1700 850 
Q 1944 653 2381 653 
Q 2734 653 3104 758 
Q 3475 863 3866 1075 
L 3866 213 
Q 3469 63 3072 -14 
Q 2675 -91 2278 -91 
Q 1328 -91 801 392 
Q 275 875 275 1747 
Q 275 2603 792 3093 
Q 1309 3584 2216 3584 
Q 3041 3584 3536 3087 
Q 4031 2591 4031 1759 
z
M 2881 2131 
Q 2881 2450 2695 2645 
Q 2509 2841 2209 2841 
Q 1884 2841 1681 2658 
Q 1478 2475 1428 2131 
L 2881 2131 
z
" transform="scale(0.015625)"/>
      <path id="DejaVuSans-Bold-56" d="M 3272 3391 
L 3272 2541 
Q 2913 2691 2578 2766 
Q 2244 2841 1947 2841 
Q 1628 2841 1473 2761 
Q 1319 2681 1319 2516 
Q 1319 2381 1436 2309 
Q 1553 2238 1856 2203 
L 2053 2175 
Q 2913 2066 3209 1816 
Q 3506 1566 3506 1031 
Q 3506 472 3093 190 
Q 2681 -91 1863 -91 
Q 1516 -91 1145 -36 
Q 775 19 384 128 
L 384 978 
Q 719 816 1070 734 
Q 1422 653 1784 653 
Q 2113 653 2278 743 
Q 2444 834 2444 1013 
Q 2444 1163 2330 1236 
Q 2216 1309 1875 1350 
L 1678 1375 
Q 931 1469 631 1722 
Q 331 1975 331 2491 
Q 331 3047 712 3315 
Q 1094 3584 1881 3584 
Q 2191 3584 2531 3537 
Q 2872 3491 3272 3391 
z
" transform="scale(0.015625)"/>
      <path id="DejaVuSans-Bold-46" d="M 3366 3391 
L 3366 2478 
Q 3138 2634 2908 2709 
Q 2678 2784 2431 2784 
Q 1963 2784 1702 2511 
Q 1441 2238 1441 1747 
Q 1441 1256 1702 982 
Q 1963 709 2431 709 
Q 2694 709 2930 787 
Q 3166 866 3366 1019 
L 3366 103 
Q 3103 6 2833 -42 
Q 2563 -91 2291 -91 
Q 1344 -91 809 395 
Q 275 881 275 1747 
Q 275 2613 809 3098 
Q 1344 3584 2291 3584 
Q 2566 3584 2833 3536 
Q 3100 3488 3366 3391 
z
" transform="scale(0.015625)"/>
      <path id="DejaVuSans-Bold-44" d="M 2106 1575 
Q 1756 1575 1579 1456 
Q 1403 1338 1403 1106 
Q 1403 894 1545 773 
Q 1688 653 1941 653 
Q 2256 653 2472 879 
Q 2688 1106 2688 1447 
L 2688 1575 
L 2106 1575 
z
M 3816 1997 
L 3816 0 
L 2688 0 
L 2688 519 
Q 2463 200 2181 54 
Q 1900 -91 1497 -91 
Q 953 -91 614 226 
Q 275 544 275 1050 
Q 275 1666 698 1953 
Q 1122 2241 2028 2241 
L 2688 2241 
L 2688 2328 
Q 2688 2594 2478 2717 
Q 2269 2841 1825 2841 
Q 1466 2841 1156 2769 
Q 847 2697 581 2553 
L 581 3406 
Q 941 3494 1303 3539 
Q 1666 3584 2028 3584 
Q 2975 3584 3395 3211 
Q 3816 2838 3816 1997 
z
" transform="scale(0.015625)"/>
      <path id="DejaVuSans-Bold-4f" d="M 538 4863 
L 1656 4863 
L 1656 0 
L 538 0 
L 538 4863 
z
" transform="scale(0.015625)"/>
      <path id="DejaVuSans-Bold-4c" d="M 538 3500 
L 1656 3500 
L 1656 0 
L 538 0 
L 538 3500 
z
M 538 4863 
L 1656 4863 
L 1656 3950 
L 538 3950 
L 538 4863 
z
" transform="scale(0.015625)"/>
      <path id="DejaVuSans-Bold-51" d="M 4056 2131 
L 4056 0 
L 2931 0 
L 2931 347 
L 2931 1631 
Q 2931 2084 2911 2256 
Q 2891 2428 2841 2509 
Q 2775 2619 2662 2680 
Q 2550 2741 2406 2741 
Q 2056 2741 1856 2470 
Q 1656 2200 1656 1722 
L 1656 0 
L 538 0 
L 538 3500 
L 1656 3500 
L 1656 2988 
Q 1909 3294 2193 3439 
Q 2478 3584 2822 3584 
Q 3428 3584 3742 3212 
Q 4056 2841 4056 2131 
z
" transform="scale(0.015625)"/>
      <path id="DejaVuSans-Bold-4a" d="M 2919 594 
Q 2688 288 2409 144 
Q 2131 0 1766 0 
Q 1125 0 706 504 
Q 288 1009 288 1791 
Q 288 2575 706 3076 
Q 1125 3578 1766 3578 
Q 2131 3578 2409 3434 
Q 2688 3291 2919 2981 
L 2919 3500 
L 4044 3500 
L 4044 353 
Q 4044 -491 3511 -936 
Q 2978 -1381 1966 -1381 
Q 1638 -1381 1331 -1331 
Q 1025 -1281 716 -1178 
L 716 -306 
Q 1009 -475 1290 -558 
Q 1572 -641 1856 -641 
Q 2406 -641 2662 -400 
Q 2919 -159 2919 353 
L 2919 594 
z
M 2181 2772 
Q 1834 2772 1640 2515 
Q 1447 2259 1447 1791 
Q 1447 1309 1634 1061 
Q 1822 813 2181 813 
Q 2531 813 2725 1069 
Q 2919 1325 2919 1791 
Q 2919 2259 2725 2515 
Q 2531 2772 2181 2772 
z
" transform="scale(0.015625)"/>
      <path id="DejaVuSans-Bold-3" transform="scale(0.015625)"/>
      <path id="DejaVuSans-Bold-59" d="M 97 3500 
L 1216 3500 
L 2088 1081 
L 2956 3500 
L 4078 3500 
L 2700 0 
L 1472 0 
L 97 3500 
z
" transform="scale(0.015625)"/>
      <path id="DejaVuSans-Bold-55" d="M 3138 2547 
Q 2991 2616 2845 2648 
Q 2700 2681 2553 2681 
Q 2122 2681 1889 2404 
Q 1656 2128 1656 1613 
L 1656 0 
L 538 0 
L 538 3500 
L 1656 3500 
L 1656 2925 
Q 1872 3269 2151 3426 
Q 2431 3584 2822 3584 
Q 2878 3584 2943 3579 
Q 3009 3575 3134 3559 
L 3138 2547 
z
" transform="scale(0.015625)"/>
      <path id="DejaVuSans-Bold-5c" d="M 78 3500 
L 1197 3500 
L 2138 1125 
L 2938 3500 
L 4056 3500 
L 2584 -331 
Q 2363 -916 2067 -1148 
Q 1772 -1381 1288 -1381 
L 641 -1381 
L 641 -647 
L 991 -647 
Q 1275 -647 1404 -556 
Q 1534 -466 1606 -231 
L 1638 -134 
L 78 3500 
z
" transform="scale(0.015625)"/>
      <path id="DejaVuSans-Bold-4b" d="M 4056 2131 
L 4056 0 
L 2931 0 
L 2931 347 
L 2931 1625 
Q 2931 2084 2911 2256 
Q 2891 2428 2841 2509 
Q 2775 2619 2662 2680 
Q 2550 2741 2406 2741 
Q 2056 2741 1856 2470 
Q 1656 2200 1656 1722 
L 1656 0 
L 538 0 
L 538 4863 
L 1656 4863 
L 1656 2988 
Q 1909 3294 2193 3439 
Q 2478 3584 2822 3584 
Q 3428 3584 3742 3212 
Q 4056 2841 4056 2131 
z
" transform="scale(0.015625)"/>
      <path id="DejaVuSans-Bold-52" d="M 2203 2784 
Q 1831 2784 1636 2517 
Q 1441 2250 1441 1747 
Q 1441 1244 1636 976 
Q 1831 709 2203 709 
Q 2569 709 2762 976 
Q 2956 1244 2956 1747 
Q 2956 2250 2762 2517 
Q 2569 2784 2203 2784 
z
M 2203 3584 
Q 3106 3584 3614 3096 
Q 4122 2609 4122 1747 
Q 4122 884 3614 396 
Q 3106 -91 2203 -91 
Q 1297 -91 786 396 
Q 275 884 275 1747 
Q 275 2609 786 3096 
Q 1297 3584 2203 3584 
z
" transform="scale(0.015625)"/>
      <path id="DejaVuSans-Bold-47" d="M 2919 2988 
L 2919 4863 
L 4044 4863 
L 4044 0 
L 2919 0 
L 2919 506 
Q 2688 197 2409 53 
Q 2131 -91 1766 -91 
Q 1119 -91 703 423 
Q 288 938 288 1747 
Q 288 2556 703 3070 
Q 1119 3584 1766 3584 
Q 2128 3584 2408 3439 
Q 2688 3294 2919 2988 
z
M 2181 722 
Q 2541 722 2730 984 
Q 2919 1247 2919 1747 
Q 2919 2247 2730 2509 
Q 2541 2772 2181 2772 
Q 1825 2772 1636 2509 
Q 1447 2247 1447 1747 
Q 1447 1247 1636 984 
Q 1825 722 2181 722 
z
" transform="scale(0.015625)"/>
      <path id="DejaVuSans-Bold-57" d="M 1759 4494 
L 1759 3500 
L 2913 3500 
L 2913 2700 
L 1759 2700 
L 1759 1216 
Q 1759 972 1856 886 
Q 1953 800 2241 800 
L 2816 800 
L 2816 0 
L 1856 0 
Q 1194 0 917 276 
Q 641 553 641 1216 
L 641 2700 
L 84 2700 
L 84 3500 
L 641 3500 
L 641 4494 
L 1759 4494 
z
" transform="scale(0.015625)"/>
      <path id="DejaVuSans-Bold-49" d="M 2841 4863 
L 2841 4128 
L 2222 4128 
Q 1984 4128 1890 4042 
Q 1797 3956 1797 3744 
L 1797 3500 
L 2753 3500 
L 2753 2700 
L 1797 2700 
L 1797 0 
L 678 0 
L 678 2700 
L 122 2700 
L 122 3500 
L 678 3500 
L 678 3744 
Q 678 4316 997 4589 
Q 1316 4863 1984 4863 
L 2841 4863 
z
" transform="scale(0.015625)"/>
      <path id="DejaVuSans-Bold-5a" d="M 225 3500 
L 1313 3500 
L 1900 1088 
L 2491 3500 
L 3425 3500 
L 4013 1113 
L 4603 3500 
L 5691 3500 
L 4769 0 
L 3547 0 
L 2956 2406 
L 2369 0 
L 1147 0 
L 225 3500 
z
" transform="scale(0.015625)"/>
      <path id="DejaVuSans-Bold-58" d="M 500 1363 
L 500 3500 
L 1625 3500 
L 1625 3150 
Q 1625 2866 1622 2436 
Q 1619 2006 1619 1863 
Q 1619 1441 1641 1255 
Q 1663 1069 1716 984 
Q 1784 875 1895 815 
Q 2006 756 2150 756 
Q 2500 756 2700 1025 
Q 2900 1294 2900 1772 
L 2900 3500 
L 4019 3500 
L 4019 0 
L 2900 0 
L 2900 506 
Q 2647 200 2364 54 
Q 2081 -91 1741 -91 
Q 1134 -91 817 281 
Q 500 653 500 1363 
z
" transform="scale(0.015625)"/>
      <path id="DejaVuSans-Bold-50" d="M 3781 2919 
Q 3994 3244 4286 3414 
Q 4578 3584 4928 3584 
Q 5531 3584 5847 3212 
Q 6163 2841 6163 2131 
L 6163 0 
L 5038 0 
L 5038 1825 
Q 5041 1866 5042 1909 
Q 5044 1953 5044 2034 
Q 5044 2406 4934 2573 
Q 4825 2741 4581 2741 
Q 4263 2741 4089 2478 
Q 3916 2216 3909 1719 
L 3909 0 
L 2784 0 
L 2784 1825 
Q 2784 2406 2684 2573 
Q 2584 2741 2328 2741 
Q 2006 2741 1831 2477 
Q 1656 2213 1656 1722 
L 1656 0 
L 531 0 
L 531 3500 
L 1656 3500 
L 1656 2988 
Q 1863 3284 2130 3434 
Q 2397 3584 2719 3584 
Q 3081 3584 3359 3409 
Q 3638 3234 3781 2919 
z
" transform="scale(0.015625)"/>
      <path id="DejaVuSans-Bold-45" d="M 2400 722 
Q 2759 722 2948 984 
Q 3138 1247 3138 1747 
Q 3138 2247 2948 2509 
Q 2759 2772 2400 2772 
Q 2041 2772 1848 2508 
Q 1656 2244 1656 1747 
Q 1656 1250 1848 986 
Q 2041 722 2400 722 
z
M 1656 2988 
Q 1888 3294 2169 3439 
Q 2450 3584 2816 3584 
Q 3463 3584 3878 3070 
Q 4294 2556 4294 1747 
Q 4294 938 3878 423 
Q 3463 -91 2816 -91 
Q 2450 -91 2169 54 
Q 1888 200 1656 506 
L 1656 0 
L 538 0 
L 538 4863 
L 1656 4863 
L 1656 2988 
z
" transform="scale(0.015625)"/>
      <path id="DejaVuSans-Bold-14" d="M 750 831 
L 1813 831 
L 1813 3847 
L 722 3622 
L 722 4441 
L 1806 4666 
L 2950 4666 
L 2950 831 
L 4013 831 
L 4013 0 
L 750 0 
L 750 831 
z
" transform="scale(0.015625)"/>
     </defs>
     <use xlink:href="#DejaVuSans-Bold-35"/>
     <use xlink:href="#DejaVuSans-Bold-48" transform="translate(77 0)"/>
     <use xlink:href="#DejaVuSans-Bold-56" transform="translate(144.828125 0)"/>
     <use xlink:href="#DejaVuSans-Bold-46" transform="translate(204.34375 0)"/>
     <use xlink:href="#DejaVuSans-Bold-44" transform="translate(263.625 0)"/>
     <use xlink:href="#DejaVuSans-Bold-4f" transform="translate(331.109375 0)"/>
     <use xlink:href="#DejaVuSans-Bold-4c" transform="translate(365.390625 0)"/>
     <use xlink:href="#DejaVuSans-Bold-51" transform="translate(399.671875 0)"/>
     <use xlink:href="#DejaVuSans-Bold-4a" transform="translate(470.859375 0)"/>
     <use xlink:href="#DejaVuSans-Bold-3" transform="translate(542.4375 0)"/>
     <use xlink:href="#DejaVuSans-Bold-48" transform="translate(577.25 0)"/>
     <use xlink:href="#DejaVuSans-Bold-59" transform="translate(645.078125 0)"/>
     <use xlink:href="#DejaVuSans-Bold-48" transform="translate(710.265625 0)"/>
     <use xlink:href="#DejaVuSans-Bold-55" transform="translate(778.09375 0)"/>
     <use xlink:href="#DejaVuSans-Bold-5c" transform="translate(827.40625 0)"/>
     <use xlink:href="#DejaVuSans-Bold-3" transform="translate(892.59375 0)"/>
     <use xlink:href="#DejaVuSans-Bold-4f" transform="translate(927.40625 0)"/>
     <use xlink:href="#DejaVuSans-Bold-44" transform="translate(961.6875 0)"/>
     <use xlink:href="#DejaVuSans-Bold-5c" transform="translate(1026.09375 0)"/>
     <use xlink:href="#DejaVuSans-Bold-48" transform="translate(1091.28125 0)"/>
     <use xlink:href="#DejaVuSans-Bold-55" transform="translate(1159.109375 0)"/>
     <use xlink:href="#DejaVuSans-Bold-3" transform="translate(1208.421875 0)"/>
     <use xlink:href="#DejaVuSans-Bold-4b" transform="translate(1243.234375 0)"/>
     <use xlink:href="#DejaVuSans-Bold-52" transform="translate(1314.421875 0)"/>
     <use xlink:href="#DejaVuSans-Bold-4f" transform="translate(1383.125 0)"/>
     <use xlink:href="#DejaVuSans-Bold-47" transform="translate(1417.40625 0)"/>
     <use xlink:href="#DejaVuSans-Bold-56" transform="translate(1488.984375 0)"/>
     <use xlink:href="#DejaVuSans-Bold-3" transform="translate(1548.5 0)"/>
     <use xlink:href="#DejaVuSans-Bold-57" transform="translate(1583.3125 0)"/>
     <use xlink:href="#DejaVuSans-Bold-4b" transform="translate(1631.109375 0)"/>
     <use xlink:href="#DejaVuSans-Bold-48" transform="translate(1702.296875 0)"/>
     <use xlink:href="#DejaVuSans-Bold-3" transform="translate(1770.125 0)"/>
     <use xlink:href="#DejaVuSans-Bold-49" transform="translate(1804.9375 0)"/>
     <use xlink:href="#DejaVuSans-Bold-52" transform="translate(1848.4375 0)"/>
     <use xlink:href="#DejaVuSans-Bold-55" transform="translate(1917.140625 0)"/>
     <use xlink:href="#DejaVuSans-Bold-5a" transform="translate(1966.453125 0)"/>
     <use xlink:href="#DejaVuSans-Bold-44" transform="translate(2058.84375 0)"/>
     <use xlink:href="#DejaVuSans-Bold-55" transform="translate(2126.328125 0)"/>
     <use xlink:href="#DejaVuSans-Bold-47" transform="translate(2175.640625 0)"/>
     <use xlink:href="#DejaVuSans-Bold-3" transform="translate(2247.21875 0)"/>
     <use xlink:href="#DejaVuSans-Bold-51" transform="translate(2282.03125 0)"/>
     <use xlink:href="#DejaVuSans-Bold-58" transform="translate(2353.21875 0)"/>
     <use xlink:href="#DejaVuSans-Bold-50" transform="translate(2424.40625 0)"/>
     <use xlink:href="#DejaVuSans-Bold-45" transform="translate(2528.609375 0)"/>
     <use xlink:href="#DejaVuSans-Bold-48" transform="translate(2600.1875 0)"/>
     <use xlink:href="#DejaVuSans-Bold-55" transform="translate(2668.015625 0)"/>
     <use xlink:href="#DejaVuSans-Bold-56" transform="translate(2717.328125 0)"/>
     <use xlink:href="#DejaVuSans-Bold-3" transform="translate(2776.84375 0)"/>
     <use xlink:href="#DejaVuSans-Bold-44" transform="translate(2811.65625 0)"/>
     <use xlink:href="#DejaVuSans-Bold-57" transform="translate(2879.140625 0)"/>
     <use xlink:href="#DejaVuSans-Bold-3" transform="translate(2926.9375 0)"/>
     <use xlink:href="#DejaVuSans-Bold-44" transform="translate(2961.75 0)"/>
     <use xlink:href="#DejaVuSans-Bold-45" transform="translate(3029.234375 0)"/>
     <use xlink:href="#DejaVuSans-Bold-52" transform="translate(3100.8125 0)"/>
     <use xlink:href="#DejaVuSans-Bold-58" transform="translate(3169.515625 0)"/>
     <use xlink:href="#DejaVuSans-Bold-57" transform="translate(3240.703125 0)"/>
     <use xlink:href="#DejaVuSans-Bold-3" transform="translate(3288.5 0)"/>
     <use xlink:href="#DejaVuSans-Bold-14" transform="translate(3323.3125 0)"/>
    </g>
   </g>
   <g id="legend_1">
    <g id="line2d_41">
     <path d="M 77.205781 239.264336 
L 86.205781 239.264336 
L 95.205781 239.264336 
" style="fill: none; stroke: #6a4fb3; stroke-width: 2.2; stroke-linecap: square"/>
    </g>
    <g id="text_22">
     <!-- scale 2.0, as it is -->
     <g transform="translate(102.405781 242.414336) scale(0.09 -0.09)">
      <defs>
       <path id="DejaVuSans-11" d="M 684 794 
L 1344 794 
L 1344 0 
L 684 0 
L 684 794 
z
" transform="scale(0.015625)"/>
      </defs>
      <use xlink:href="#DejaVuSans-56"/>
      <use xlink:href="#DejaVuSans-46" transform="translate(52.09375 0)"/>
      <use xlink:href="#DejaVuSans-44" transform="translate(107.078125 0)"/>
      <use xlink:href="#DejaVuSans-4f" transform="translate(168.359375 0)"/>
      <use xlink:href="#DejaVuSans-48" transform="translate(196.140625 0)"/>
      <use xlink:href="#DejaVuSans-3" transform="translate(257.671875 0)"/>
      <use xlink:href="#DejaVuSans-15" transform="translate(289.453125 0)"/>
      <use xlink:href="#DejaVuSans-11" transform="translate(353.078125 0)"/>
      <use xlink:href="#DejaVuSans-13" transform="translate(384.859375 0)"/>
      <use xlink:href="#DejaVuSans-f" transform="translate(448.484375 0)"/>
      <use xlink:href="#DejaVuSans-3" transform="translate(480.265625 0)"/>
      <use xlink:href="#DejaVuSans-44" transform="translate(512.046875 0)"/>
      <use xlink:href="#DejaVuSans-56" transform="translate(573.328125 0)"/>
      <use xlink:href="#DejaVuSans-3" transform="translate(625.421875 0)"/>
      <use xlink:href="#DejaVuSans-4c" transform="translate(657.203125 0)"/>
      <use xlink:href="#DejaVuSans-57" transform="translate(684.984375 0)"/>
      <use xlink:href="#DejaVuSans-3" transform="translate(724.1875 0)"/>
      <use xlink:href="#DejaVuSans-4c" transform="translate(755.96875 0)"/>
      <use xlink:href="#DejaVuSans-56" transform="translate(783.75 0)"/>
     </g>
    </g>
    <g id="line2d_42">
     <path d="M 77.205781 252.765039 
L 86.205781 252.765039 
L 95.205781 252.765039 
" style="fill: none; stroke-dasharray: 8.14,3.52; stroke-dashoffset: 0; stroke: #6a4fb3; stroke-width: 2.2"/>
    </g>
    <g id="text_23">
     <!-- scale 2.0, rescaled -->
     <g transform="translate(102.405781 255.915039) scale(0.09 -0.09)">
      <defs>
       <path id="DejaVuSans-47" d="M 2906 2969 
L 2906 4863 
L 3481 4863 
L 3481 0 
L 2906 0 
L 2906 525 
Q 2725 213 2448 61 
Q 2172 -91 1784 -91 
Q 1150 -91 751 415 
Q 353 922 353 1747 
Q 353 2572 751 3078 
Q 1150 3584 1784 3584 
Q 2172 3584 2448 3432 
Q 2725 3281 2906 2969 
z
M 947 1747 
Q 947 1113 1208 752 
Q 1469 391 1925 391 
Q 2381 391 2643 752 
Q 2906 1113 2906 1747 
Q 2906 2381 2643 2742 
Q 2381 3103 1925 3103 
Q 1469 3103 1208 2742 
Q 947 2381 947 1747 
z
" transform="scale(0.015625)"/>
      </defs>
      <use xlink:href="#DejaVuSans-56"/>
      <use xlink:href="#DejaVuSans-46" transform="translate(52.09375 0)"/>
      <use xlink:href="#DejaVuSans-44" transform="translate(107.078125 0)"/>
      <use xlink:href="#DejaVuSans-4f" transform="translate(168.359375 0)"/>
      <use xlink:href="#DejaVuSans-48" transform="translate(196.140625 0)"/>
      <use xlink:href="#DejaVuSans-3" transform="translate(257.671875 0)"/>
      <use xlink:href="#DejaVuSans-15" transform="translate(289.453125 0)"/>
      <use xlink:href="#DejaVuSans-11" transform="translate(353.078125 0)"/>
      <use xlink:href="#DejaVuSans-13" transform="translate(384.859375 0)"/>
      <use xlink:href="#DejaVuSans-f" transform="translate(448.484375 0)"/>
      <use xlink:href="#DejaVuSans-3" transform="translate(480.265625 0)"/>
      <use xlink:href="#DejaVuSans-55" transform="translate(512.046875 0)"/>
      <use xlink:href="#DejaVuSans-48" transform="translate(550.953125 0)"/>
      <use xlink:href="#DejaVuSans-56" transform="translate(612.484375 0)"/>
      <use xlink:href="#DejaVuSans-46" transform="translate(664.578125 0)"/>
      <use xlink:href="#DejaVuSans-44" transform="translate(719.5625 0)"/>
      <use xlink:href="#DejaVuSans-4f" transform="translate(780.84375 0)"/>
      <use xlink:href="#DejaVuSans-48" transform="translate(808.625 0)"/>
      <use xlink:href="#DejaVuSans-47" transform="translate(870.15625 0)"/>
     </g>
    </g>
    <g id="line2d_43">
     <path d="M 77.205781 266.265742 
L 86.205781 266.265742 
L 95.205781 266.265742 
" style="fill: none; stroke: #e05555; stroke-width: 2.2; stroke-linecap: square"/>
    </g>
    <g id="text_24">
     <!-- scale 0.7, as it is -->
     <g transform="translate(102.405781 269.415742) scale(0.09 -0.09)">
      <defs>
       <path id="DejaVuSans-1a" d="M 525 4666 
L 3525 4666 
L 3525 4397 
L 1831 0 
L 1172 0 
L 2766 4134 
L 525 4134 
L 525 4666 
z
" transform="scale(0.015625)"/>
      </defs>
      <use xlink:href="#DejaVuSans-56"/>
      <use xlink:href="#DejaVuSans-46" transform="translate(52.09375 0)"/>
      <use xlink:href="#DejaVuSans-44" transform="translate(107.078125 0)"/>
      <use xlink:href="#DejaVuSans-4f" transform="translate(168.359375 0)"/>
      <use xlink:href="#DejaVuSans-48" transform="translate(196.140625 0)"/>
      <use xlink:href="#DejaVuSans-3" transform="translate(257.671875 0)"/>
      <use xlink:href="#DejaVuSans-13" transform="translate(289.453125 0)"/>
      <use xlink:href="#DejaVuSans-11" transform="translate(353.078125 0)"/>
      <use xlink:href="#DejaVuSans-1a" transform="translate(384.859375 0)"/>
      <use xlink:href="#DejaVuSans-f" transform="translate(448.484375 0)"/>
      <use xlink:href="#DejaVuSans-3" transform="translate(480.265625 0)"/>
      <use xlink:href="#DejaVuSans-44" transform="translate(512.046875 0)"/>
      <use xlink:href="#DejaVuSans-56" transform="translate(573.328125 0)"/>
      <use xlink:href="#DejaVuSans-3" transform="translate(625.421875 0)"/>
      <use xlink:href="#DejaVuSans-4c" transform="translate(657.203125 0)"/>
      <use xlink:href="#DejaVuSans-57" transform="translate(684.984375 0)"/>
      <use xlink:href="#DejaVuSans-3" transform="translate(724.1875 0)"/>
      <use xlink:href="#DejaVuSans-4c" transform="translate(755.96875 0)"/>
      <use xlink:href="#DejaVuSans-56" transform="translate(783.75 0)"/>
     </g>
    </g>
    <g id="line2d_44">
     <path d="M 77.205781 279.766445 
L 86.205781 279.766445 
L 95.205781 279.766445 
" style="fill: none; stroke-dasharray: 8.14,3.52; stroke-dashoffset: 0; stroke: #e05555; stroke-width: 2.2"/>
    </g>
    <g id="text_25">
     <!-- scale 0.7, rescaled -->
     <g transform="translate(102.405781 282.916445) scale(0.09 -0.09)">
      <use xlink:href="#DejaVuSans-56"/>
      <use xlink:href="#DejaVuSans-46" transform="translate(52.09375 0)"/>
      <use xlink:href="#DejaVuSans-44" transform="translate(107.078125 0)"/>
      <use xlink:href="#DejaVuSans-4f" transform="translate(168.359375 0)"/>
      <use xlink:href="#DejaVuSans-48" transform="translate(196.140625 0)"/>
      <use xlink:href="#DejaVuSans-3" transform="translate(257.671875 0)"/>
      <use xlink:href="#DejaVuSans-13" transform="translate(289.453125 0)"/>
      <use xlink:href="#DejaVuSans-11" transform="translate(353.078125 0)"/>
      <use xlink:href="#DejaVuSans-1a" transform="translate(384.859375 0)"/>
      <use xlink:href="#DejaVuSans-f" transform="translate(448.484375 0)"/>
      <use xlink:href="#DejaVuSans-3" transform="translate(480.265625 0)"/>
      <use xlink:href="#DejaVuSans-55" transform="translate(512.046875 0)"/>
      <use xlink:href="#DejaVuSans-48" transform="translate(550.953125 0)"/>
      <use xlink:href="#DejaVuSans-56" transform="translate(612.484375 0)"/>
      <use xlink:href="#DejaVuSans-46" transform="translate(664.578125 0)"/>
      <use xlink:href="#DejaVuSans-44" transform="translate(719.5625 0)"/>
      <use xlink:href="#DejaVuSans-4f" transform="translate(780.84375 0)"/>
      <use xlink:href="#DejaVuSans-48" transform="translate(808.625 0)"/>
      <use xlink:href="#DejaVuSans-47" transform="translate(870.15625 0)"/>
     </g>
    </g>
   </g>
  </g>
  <g id="axes_2">
   <g id="patch_5">
    <path d="M 474.105781 293.178555 
L 820.343437 293.178555 
L 820.343437 36.338203 
L 474.105781 36.338203 
z
" style="fill: #ffffff"/>
   </g>
   <g id="matplotlib.axis_3">
    <g id="xtick_10">
     <g id="line2d_45">
      <path d="M 481.773049 293.178555 
L 481.773049 36.338203 
" clip-path="url(#p08284cfc80)" style="fill: none; stroke: #d6d6d6; stroke-opacity: 0.7; stroke-width: 0.6; stroke-linecap: square"/>
     </g>
     <g id="line2d_46">
      <g>
       <use xlink:href="#md9e31824e4" x="481.773049" y="293.178555" style="fill: #222222; stroke: #222222; stroke-width: 0.8"/>
      </g>
     </g>
     <g id="text_26">
      <!-- 0 -->
      <g style="fill: #222222" transform="translate(478.750861 307.396328) scale(0.095 -0.095)">
       <use xlink:href="#DejaVuSans-13"/>
      </g>
     </g>
    </g>
    <g id="xtick_11">
     <g id="line2d_47">
      <path d="M 522.127088 293.178555 
L 522.127088 36.338203 
" clip-path="url(#p08284cfc80)" style="fill: none; stroke: #d6d6d6; stroke-opacity: 0.7; stroke-width: 0.6; stroke-linecap: square"/>
     </g>
     <g id="line2d_48">
      <g>
       <use xlink:href="#md9e31824e4" x="522.127088" y="293.178555" style="fill: #222222; stroke: #222222; stroke-width: 0.8"/>
      </g>
     </g>
     <g id="text_27">
      <!-- 5 -->
      <g style="fill: #222222" transform="translate(519.1049 307.396328) scale(0.095 -0.095)">
       <use xlink:href="#DejaVuSans-18"/>
      </g>
     </g>
    </g>
    <g id="xtick_12">
     <g id="line2d_49">
      <path d="M 562.481127 293.178555 
L 562.481127 36.338203 
" clip-path="url(#p08284cfc80)" style="fill: none; stroke: #d6d6d6; stroke-opacity: 0.7; stroke-width: 0.6; stroke-linecap: square"/>
     </g>
     <g id="line2d_50">
      <g>
       <use xlink:href="#md9e31824e4" x="562.481127" y="293.178555" style="fill: #222222; stroke: #222222; stroke-width: 0.8"/>
      </g>
     </g>
     <g id="text_28">
      <!-- 10 -->
      <g style="fill: #222222" transform="translate(556.436752 307.396328) scale(0.095 -0.095)">
       <use xlink:href="#DejaVuSans-14"/>
       <use xlink:href="#DejaVuSans-13" transform="translate(63.625 0)"/>
      </g>
     </g>
    </g>
    <g id="xtick_13">
     <g id="line2d_51">
      <path d="M 602.835166 293.178555 
L 602.835166 36.338203 
" clip-path="url(#p08284cfc80)" style="fill: none; stroke: #d6d6d6; stroke-opacity: 0.7; stroke-width: 0.6; stroke-linecap: square"/>
     </g>
     <g id="line2d_52">
      <g>
       <use xlink:href="#md9e31824e4" x="602.835166" y="293.178555" style="fill: #222222; stroke: #222222; stroke-width: 0.8"/>
      </g>
     </g>
     <g id="text_29">
      <!-- 15 -->
      <g style="fill: #222222" transform="translate(596.790791 307.396328) scale(0.095 -0.095)">
       <use xlink:href="#DejaVuSans-14"/>
       <use xlink:href="#DejaVuSans-18" transform="translate(63.625 0)"/>
      </g>
     </g>
    </g>
    <g id="xtick_14">
     <g id="line2d_53">
      <path d="M 643.189205 293.178555 
L 643.189205 36.338203 
" clip-path="url(#p08284cfc80)" style="fill: none; stroke: #d6d6d6; stroke-opacity: 0.7; stroke-width: 0.6; stroke-linecap: square"/>
     </g>
     <g id="line2d_54">
      <g>
       <use xlink:href="#md9e31824e4" x="643.189205" y="293.178555" style="fill: #222222; stroke: #222222; stroke-width: 0.8"/>
      </g>
     </g>
     <g id="text_30">
      <!-- 20 -->
      <g style="fill: #222222" transform="translate(637.14483 307.396328) scale(0.095 -0.095)">
       <use xlink:href="#DejaVuSans-15"/>
       <use xlink:href="#DejaVuSans-13" transform="translate(63.625 0)"/>
      </g>
     </g>
    </g>
    <g id="xtick_15">
     <g id="line2d_55">
      <path d="M 683.543245 293.178555 
L 683.543245 36.338203 
" clip-path="url(#p08284cfc80)" style="fill: none; stroke: #d6d6d6; stroke-opacity: 0.7; stroke-width: 0.6; stroke-linecap: square"/>
     </g>
     <g id="line2d_56">
      <g>
       <use xlink:href="#md9e31824e4" x="683.543245" y="293.178555" style="fill: #222222; stroke: #222222; stroke-width: 0.8"/>
      </g>
     </g>
     <g id="text_31">
      <!-- 25 -->
      <g style="fill: #222222" transform="translate(677.49887 307.396328) scale(0.095 -0.095)">
       <use xlink:href="#DejaVuSans-15"/>
       <use xlink:href="#DejaVuSans-18" transform="translate(63.625 0)"/>
      </g>
     </g>
    </g>
    <g id="xtick_16">
     <g id="line2d_57">
      <path d="M 723.897284 293.178555 
L 723.897284 36.338203 
" clip-path="url(#p08284cfc80)" style="fill: none; stroke: #d6d6d6; stroke-opacity: 0.7; stroke-width: 0.6; stroke-linecap: square"/>
     </g>
     <g id="line2d_58">
      <g>
       <use xlink:href="#md9e31824e4" x="723.897284" y="293.178555" style="fill: #222222; stroke: #222222; stroke-width: 0.8"/>
      </g>
     </g>
     <g id="text_32">
      <!-- 30 -->
      <g style="fill: #222222" transform="translate(717.852909 307.396328) scale(0.095 -0.095)">
       <use xlink:href="#DejaVuSans-16"/>
       <use xlink:href="#DejaVuSans-13" transform="translate(63.625 0)"/>
      </g>
     </g>
    </g>
    <g id="xtick_17">
     <g id="line2d_59">
      <path d="M 764.251323 293.178555 
L 764.251323 36.338203 
" clip-path="url(#p08284cfc80)" style="fill: none; stroke: #d6d6d6; stroke-opacity: 0.7; stroke-width: 0.6; stroke-linecap: square"/>
     </g>
     <g id="line2d_60">
      <g>
       <use xlink:href="#md9e31824e4" x="764.251323" y="293.178555" style="fill: #222222; stroke: #222222; stroke-width: 0.8"/>
      </g>
     </g>
     <g id="text_33">
      <!-- 35 -->
      <g style="fill: #222222" transform="translate(758.206948 307.396328) scale(0.095 -0.095)">
       <use xlink:href="#DejaVuSans-16"/>
       <use xlink:href="#DejaVuSans-18" transform="translate(63.625 0)"/>
      </g>
     </g>
    </g>
    <g id="xtick_18">
     <g id="line2d_61">
      <path d="M 804.605362 293.178555 
L 804.605362 36.338203 
" clip-path="url(#p08284cfc80)" style="fill: none; stroke: #d6d6d6; stroke-opacity: 0.7; stroke-width: 0.6; stroke-linecap: square"/>
     </g>
     <g id="line2d_62">
      <g>
       <use xlink:href="#md9e31824e4" x="804.605362" y="293.178555" style="fill: #222222; stroke: #222222; stroke-width: 0.8"/>
      </g>
     </g>
     <g id="text_34">
      <!-- 40 -->
      <g style="fill: #222222" transform="translate(798.560987 307.396328) scale(0.095 -0.095)">
       <use xlink:href="#DejaVuSans-17"/>
       <use xlink:href="#DejaVuSans-13" transform="translate(63.625 0)"/>
      </g>
     </g>
    </g>
    <g id="text_35">
     <!-- layer, counting from the input -->
     <g transform="translate(572.194922 321.276992) scale(0.1 -0.1)">
      <use xlink:href="#DejaVuSans-4f"/>
      <use xlink:href="#DejaVuSans-44" transform="translate(27.78125 0)"/>
      <use xlink:href="#DejaVuSans-5c" transform="translate(89.0625 0)"/>
      <use xlink:href="#DejaVuSans-48" transform="translate(148.25 0)"/>
      <use xlink:href="#DejaVuSans-55" transform="translate(209.78125 0)"/>
      <use xlink:href="#DejaVuSans-f" transform="translate(250.890625 0)"/>
      <use xlink:href="#DejaVuSans-3" transform="translate(282.671875 0)"/>
      <use xlink:href="#DejaVuSans-46" transform="translate(314.453125 0)"/>
      <use xlink:href="#DejaVuSans-52" transform="translate(369.4375 0)"/>
      <use xlink:href="#DejaVuSans-58" transform="translate(430.625 0)"/>
      <use xlink:href="#DejaVuSans-51" transform="translate(494 0)"/>
      <use xlink:href="#DejaVuSans-57" transform="translate(557.375 0)"/>
      <use xlink:href="#DejaVuSans-4c" transform="translate(596.578125 0)"/>
      <use xlink:href="#DejaVuSans-51" transform="translate(624.359375 0)"/>
      <use xlink:href="#DejaVuSans-4a" transform="translate(687.734375 0)"/>
      <use xlink:href="#DejaVuSans-3" transform="translate(751.21875 0)"/>
      <use xlink:href="#DejaVuSans-49" transform="translate(783 0)"/>
      <use xlink:href="#DejaVuSans-55" transform="translate(818.203125 0)"/>
      <use xlink:href="#DejaVuSans-52" transform="translate(857.109375 0)"/>
      <use xlink:href="#DejaVuSans-50" transform="translate(918.296875 0)"/>
      <use xlink:href="#DejaVuSans-3" transform="translate(1015.703125 0)"/>
      <use xlink:href="#DejaVuSans-57" transform="translate(1047.484375 0)"/>
      <use xlink:href="#DejaVuSans-4b" transform="translate(1086.6875 0)"/>
      <use xlink:href="#DejaVuSans-48" transform="translate(1150.0625 0)"/>
      <use xlink:href="#DejaVuSans-3" transform="translate(1211.59375 0)"/>
      <use xlink:href="#DejaVuSans-4c" transform="translate(1243.375 0)"/>
      <use xlink:href="#DejaVuSans-51" transform="translate(1271.15625 0)"/>
      <use xlink:href="#DejaVuSans-53" transform="translate(1334.53125 0)"/>
      <use xlink:href="#DejaVuSans-58" transform="translate(1398.015625 0)"/>
      <use xlink:href="#DejaVuSans-57" transform="translate(1461.390625 0)"/>
     </g>
    </g>
   </g>
   <g id="matplotlib.axis_4">
    <g id="ytick_10">
     <g id="line2d_63">
      <path d="M 474.105781 271.295763 
L 820.343437 271.295763 
" clip-path="url(#p08284cfc80)" style="fill: none; stroke: #d6d6d6; stroke-opacity: 0.7; stroke-width: 0.6; stroke-linecap: square"/>
     </g>
     <g id="line2d_64">
      <g>
       <use xlink:href="#m4aad408d9d" x="474.105781" y="271.295763" style="fill: #222222; stroke: #222222; stroke-width: 0.8"/>
      </g>
     </g>
     <g id="text_36">
      <!-- $\mathdefault{10^{-25}}$ -->
      <g style="fill: #222222" transform="translate(440.600781 275.760763) scale(0.095 -0.095)">
       <use xlink:href="#DejaVuSans-14" transform="translate(0 0.746875)"/>
       <use xlink:href="#DejaVuSans-13" transform="translate(63.623047 0.746875)"/>
       <use xlink:href="#DejaVuSans-c9c" transform="translate(128.203125 42.046875) scale(0.7)"/>
       <use xlink:href="#DejaVuSans-15" transform="translate(186.855469 42.046875) scale(0.7)"/>
       <use xlink:href="#DejaVuSans-18" transform="translate(231.391602 42.046875) scale(0.7)"/>
      </g>
     </g>
    </g>
    <g id="ytick_11">
     <g id="line2d_65">
      <path d="M 474.105781 239.53677 
L 820.343437 239.53677 
" clip-path="url(#p08284cfc80)" style="fill: none; stroke: #d6d6d6; stroke-opacity: 0.7; stroke-width: 0.6; stroke-linecap: square"/>
     </g>
     <g id="line2d_66">
      <g>
       <use xlink:href="#m4aad408d9d" x="474.105781" y="239.53677" style="fill: #222222; stroke: #222222; stroke-width: 0.8"/>
      </g>
     </g>
     <g id="text_37">
      <!-- $\mathdefault{10^{-20}}$ -->
      <g style="fill: #222222" transform="translate(440.600781 244.00177) scale(0.095 -0.095)">
       <use xlink:href="#DejaVuSans-14" transform="translate(0 0.746875)"/>
       <use xlink:href="#DejaVuSans-13" transform="translate(63.623047 0.746875)"/>
       <use xlink:href="#DejaVuSans-c9c" transform="translate(128.203125 42.046875) scale(0.7)"/>
       <use xlink:href="#DejaVuSans-15" transform="translate(186.855469 42.046875) scale(0.7)"/>
       <use xlink:href="#DejaVuSans-13" transform="translate(231.391602 42.046875) scale(0.7)"/>
      </g>
     </g>
    </g>
    <g id="ytick_12">
     <g id="line2d_67">
      <path d="M 474.105781 207.777777 
L 820.343437 207.777777 
" clip-path="url(#p08284cfc80)" style="fill: none; stroke: #d6d6d6; stroke-opacity: 0.7; stroke-width: 0.6; stroke-linecap: square"/>
     </g>
     <g id="line2d_68">
      <g>
       <use xlink:href="#m4aad408d9d" x="474.105781" y="207.777777" style="fill: #222222; stroke: #222222; stroke-width: 0.8"/>
      </g>
     </g>
     <g id="text_38">
      <!-- $\mathdefault{10^{-15}}$ -->
      <g style="fill: #222222" transform="translate(440.600781 212.195277) scale(0.095 -0.095)">
       <use xlink:href="#DejaVuSans-14" transform="translate(0 0.665625)"/>
       <use xlink:href="#DejaVuSans-13" transform="translate(63.623047 0.665625)"/>
       <use xlink:href="#DejaVuSans-c9c" transform="translate(128.203125 41.965625) scale(0.7)"/>
       <use xlink:href="#DejaVuSans-14" transform="translate(186.855469 41.965625) scale(0.7)"/>
       <use xlink:href="#DejaVuSans-18" transform="translate(231.391602 41.965625) scale(0.7)"/>
      </g>
     </g>
    </g>
    <g id="ytick_13">
     <g id="line2d_69">
      <path d="M 474.105781 176.018784 
L 820.343437 176.018784 
" clip-path="url(#p08284cfc80)" style="fill: none; stroke: #d6d6d6; stroke-opacity: 0.7; stroke-width: 0.6; stroke-linecap: square"/>
     </g>
     <g id="line2d_70">
      <g>
       <use xlink:href="#m4aad408d9d" x="474.105781" y="176.018784" style="fill: #222222; stroke: #222222; stroke-width: 0.8"/>
      </g>
     </g>
     <g id="text_39">
      <!-- $\mathdefault{10^{-10}}$ -->
      <g style="fill: #222222" transform="translate(440.600781 180.483784) scale(0.095 -0.095)">
       <use xlink:href="#DejaVuSans-14" transform="translate(0 0.746875)"/>
       <use xlink:href="#DejaVuSans-13" transform="translate(63.623047 0.746875)"/>
       <use xlink:href="#DejaVuSans-c9c" transform="translate(128.203125 42.046875) scale(0.7)"/>
       <use xlink:href="#DejaVuSans-14" transform="translate(186.855469 42.046875) scale(0.7)"/>
       <use xlink:href="#DejaVuSans-13" transform="translate(231.391602 42.046875) scale(0.7)"/>
      </g>
     </g>
    </g>
    <g id="ytick_14">
     <g id="line2d_71">
      <path d="M 474.105781 144.259791 
L 820.343437 144.259791 
" clip-path="url(#p08284cfc80)" style="fill: none; stroke: #d6d6d6; stroke-opacity: 0.7; stroke-width: 0.6; stroke-linecap: square"/>
     </g>
     <g id="line2d_72">
      <g>
       <use xlink:href="#m4aad408d9d" x="474.105781" y="144.259791" style="fill: #222222; stroke: #222222; stroke-width: 0.8"/>
      </g>
     </g>
     <g id="text_40">
      <!-- $\mathdefault{10^{-5}}$ -->
      <g style="fill: #222222" transform="translate(444.780781 148.677291) scale(0.095 -0.095)">
       <use xlink:href="#DejaVuSans-14" transform="translate(0 0.665625)"/>
       <use xlink:href="#DejaVuSans-13" transform="translate(63.623047 0.665625)"/>
       <use xlink:href="#DejaVuSans-c9c" transform="translate(128.203125 41.965625) scale(0.7)"/>
       <use xlink:href="#DejaVuSans-18" transform="translate(186.855469 41.965625) scale(0.7)"/>
      </g>
     </g>
    </g>
    <g id="ytick_15">
     <g id="line2d_73">
      <path d="M 474.105781 112.500798 
L 820.343437 112.500798 
" clip-path="url(#p08284cfc80)" style="fill: none; stroke: #d6d6d6; stroke-opacity: 0.7; stroke-width: 0.6; stroke-linecap: square"/>
     </g>
     <g id="line2d_74">
      <g>
       <use xlink:href="#m4aad408d9d" x="474.105781" y="112.500798" style="fill: #222222; stroke: #222222; stroke-width: 0.8"/>
      </g>
     </g>
     <g id="text_41">
      <!-- $\mathdefault{10^{0}}$ -->
      <g style="fill: #222222" transform="translate(450.385781 116.965798) scale(0.095 -0.095)">
       <use xlink:href="#DejaVuSans-14" transform="translate(0 0.746875)"/>
       <use xlink:href="#DejaVuSans-13" transform="translate(63.623047 0.746875)"/>
       <use xlink:href="#DejaVuSans-13" transform="translate(128.203125 42.046875) scale(0.7)"/>
      </g>
     </g>
    </g>
    <g id="ytick_16">
     <g id="line2d_75">
      <path d="M 474.105781 80.741804 
L 820.343437 80.741804 
" clip-path="url(#p08284cfc80)" style="fill: none; stroke: #d6d6d6; stroke-opacity: 0.7; stroke-width: 0.6; stroke-linecap: square"/>
     </g>
     <g id="line2d_76">
      <g>
       <use xlink:href="#m4aad408d9d" x="474.105781" y="80.741804" style="fill: #222222; stroke: #222222; stroke-width: 0.8"/>
      </g>
     </g>
     <g id="text_42">
      <!-- $\mathdefault{10^{5}}$ -->
      <g style="fill: #222222" transform="translate(450.385781 85.159304) scale(0.095 -0.095)">
       <use xlink:href="#DejaVuSans-14" transform="translate(0 0.665625)"/>
       <use xlink:href="#DejaVuSans-13" transform="translate(63.623047 0.665625)"/>
       <use xlink:href="#DejaVuSans-18" transform="translate(128.203125 41.965625) scale(0.7)"/>
      </g>
     </g>
    </g>
    <g id="ytick_17">
     <g id="line2d_77">
      <path d="M 474.105781 48.982811 
L 820.343437 48.982811 
" clip-path="url(#p08284cfc80)" style="fill: none; stroke: #d6d6d6; stroke-opacity: 0.7; stroke-width: 0.6; stroke-linecap: square"/>
     </g>
     <g id="line2d_78">
      <g>
       <use xlink:href="#m4aad408d9d" x="474.105781" y="48.982811" style="fill: #222222; stroke: #222222; stroke-width: 0.8"/>
      </g>
     </g>
     <g id="text_43">
      <!-- $\mathdefault{10^{10}}$ -->
      <g style="fill: #222222" transform="translate(446.110781 53.447811) scale(0.095 -0.095)">
       <use xlink:href="#DejaVuSans-14" transform="translate(0 0.746875)"/>
       <use xlink:href="#DejaVuSans-13" transform="translate(63.623047 0.746875)"/>
       <use xlink:href="#DejaVuSans-14" transform="translate(128.203125 42.046875) scale(0.7)"/>
       <use xlink:href="#DejaVuSans-13" transform="translate(172.739258 42.046875) scale(0.7)"/>
      </g>
     </g>
    </g>
    <g id="text_44">
     <!-- size of that layer's gradient (log scale) -->
     <g transform="translate(434.198437 260.953691) rotate(-90) scale(0.1 -0.1)">
      <defs>
       <path id="DejaVuSans-a" d="M 1147 4666 
L 1147 2931 
L 616 2931 
L 616 4666 
L 1147 4666 
z
" transform="scale(0.015625)"/>
      </defs>
      <use xlink:href="#DejaVuSans-56"/>
      <use xlink:href="#DejaVuSans-4c" transform="translate(52.09375 0)"/>
      <use xlink:href="#DejaVuSans-5d" transform="translate(79.875 0)"/>
      <use xlink:href="#DejaVuSans-48" transform="translate(132.359375 0)"/>
      <use xlink:href="#DejaVuSans-3" transform="translate(193.890625 0)"/>
      <use xlink:href="#DejaVuSans-52" transform="translate(225.671875 0)"/>
      <use xlink:href="#DejaVuSans-49" transform="translate(286.859375 0)"/>
      <use xlink:href="#DejaVuSans-3" transform="translate(322.0625 0)"/>
      <use xlink:href="#DejaVuSans-57" transform="translate(353.84375 0)"/>
      <use xlink:href="#DejaVuSans-4b" transform="translate(393.046875 0)"/>
      <use xlink:href="#DejaVuSans-44" transform="translate(456.421875 0)"/>
      <use xlink:href="#DejaVuSans-57" transform="translate(517.703125 0)"/>
      <use xlink:href="#DejaVuSans-3" transform="translate(556.90625 0)"/>
      <use xlink:href="#DejaVuSans-4f" transform="translate(588.6875 0)"/>
      <use xlink:href="#DejaVuSans-44" transform="translate(616.46875 0)"/>
      <use xlink:href="#DejaVuSans-5c" transform="translate(677.75 0)"/>
      <use xlink:href="#DejaVuSans-48" transform="translate(736.9375 0)"/>
      <use xlink:href="#DejaVuSans-55" transform="translate(798.46875 0)"/>
      <use xlink:href="#DejaVuSans-a" transform="translate(839.578125 0)"/>
      <use xlink:href="#DejaVuSans-56" transform="translate(867.0625 0)"/>
      <use xlink:href="#DejaVuSans-3" transform="translate(919.15625 0)"/>
      <use xlink:href="#DejaVuSans-4a" transform="translate(950.9375 0)"/>
      <use xlink:href="#DejaVuSans-55" transform="translate(1014.421875 0)"/>
      <use xlink:href="#DejaVuSans-44" transform="translate(1055.53125 0)"/>
      <use xlink:href="#DejaVuSans-47" transform="translate(1116.8125 0)"/>
      <use xlink:href="#DejaVuSans-4c" transform="translate(1180.296875 0)"/>
      <use xlink:href="#DejaVuSans-48" transform="translate(1208.078125 0)"/>
      <use xlink:href="#DejaVuSans-51" transform="translate(1269.609375 0)"/>
      <use xlink:href="#DejaVuSans-57" transform="translate(1332.984375 0)"/>
      <use xlink:href="#DejaVuSans-3" transform="translate(1372.1875 0)"/>
      <use xlink:href="#DejaVuSans-b" transform="translate(1403.96875 0)"/>
      <use xlink:href="#DejaVuSans-4f" transform="translate(1442.984375 0)"/>
      <use xlink:href="#DejaVuSans-52" transform="translate(1470.765625 0)"/>
      <use xlink:href="#DejaVuSans-4a" transform="translate(1531.953125 0)"/>
      <use xlink:href="#DejaVuSans-3" transform="translate(1595.4375 0)"/>
      <use xlink:href="#DejaVuSans-56" transform="translate(1627.21875 0)"/>
      <use xlink:href="#DejaVuSans-46" transform="translate(1679.3125 0)"/>
      <use xlink:href="#DejaVuSans-44" transform="translate(1734.296875 0)"/>
      <use xlink:href="#DejaVuSans-4f" transform="translate(1795.578125 0)"/>
      <use xlink:href="#DejaVuSans-48" transform="translate(1823.359375 0)"/>
      <use xlink:href="#DejaVuSans-c" transform="translate(1884.890625 0)"/>
     </g>
    </g>
   </g>
   <g id="line2d_79">
    <path d="M 489.843857 51.441896 
L 497.914664 51.034763 
L 505.985472 50.564552 
L 514.05628 50.441024 
L 522.127088 50.444341 
L 530.197896 51.065493 
L 538.268704 50.797844 
L 546.339511 50.325182 
L 554.410319 50.496561 
L 562.481127 50.351174 
L 570.551935 50.071377 
L 578.622743 50.248448 
L 586.693551 49.536496 
L 594.764358 49.42873 
L 602.835166 49.055989 
L 610.905974 49.214048 
L 618.976782 49.142245 
L 627.04759 49.805228 
L 635.118398 49.247015 
L 643.189205 49.00522 
L 651.260013 48.845118 
L 659.330821 49.040033 
L 667.401629 49.393407 
L 675.472437 49.403702 
L 683.543245 49.536774 
L 691.614052 49.348801 
L 699.68486 49.515695 
L 707.755668 49.307936 
L 715.826476 48.577591 
L 723.897284 48.745346 
L 731.968092 48.873868 
L 740.0389 48.012765 
L 748.109707 48.585545 
L 756.180515 48.277254 
L 764.251323 48.994722 
L 772.322131 49.640723 
L 780.392939 49.790699 
L 788.463747 50.219486 
L 796.534554 50.986902 
L 804.605362 52.720944 
" clip-path="url(#p08284cfc80)" style="fill: none; stroke: #6a4fb3; stroke-width: 2.2; stroke-linecap: square"/>
   </g>
   <g id="line2d_80">
    <path d="M 489.843857 123.975683 
L 497.914664 123.56855 
L 505.985472 123.09834 
L 514.05628 122.974811 
L 522.127088 122.978128 
L 530.197896 123.59928 
L 538.268704 123.331631 
L 546.339511 122.85897 
L 554.410319 123.030349 
L 562.481127 122.884961 
L 570.551935 122.605164 
L 578.622743 122.782236 
L 586.693551 122.070284 
L 594.764358 121.962517 
L 602.835166 121.589777 
L 610.905974 121.747835 
L 618.976782 121.676033 
L 627.04759 122.339016 
L 635.118398 121.780803 
L 643.189205 121.539007 
L 651.260013 121.378905 
L 659.330821 121.57382 
L 667.401629 121.927194 
L 675.472437 121.937489 
L 683.543245 122.070561 
L 691.614052 121.882589 
L 699.68486 122.049482 
L 707.755668 121.841723 
L 715.826476 121.111378 
L 723.897284 121.279134 
L 731.968092 121.407655 
L 740.0389 120.546552 
L 748.109707 121.119332 
L 756.180515 120.811042 
L 764.251323 121.528509 
L 772.322131 122.17451 
L 780.392939 122.324487 
L 788.463747 122.753274 
L 796.534554 123.520689 
L 804.605362 125.254731 
" clip-path="url(#p08284cfc80)" style="fill: none; stroke-dasharray: 8.14,3.52; stroke-dashoffset: 0; stroke: #6a4fb3; stroke-width: 2.2"/>
   </g>
   <g id="line2d_81">
    <path d="M 489.843857 280.224945 
L 497.914664 279.817812 
L 505.985472 279.347602 
L 514.05628 279.224074 
L 522.127088 279.22739 
L 530.197896 279.848542 
L 538.268704 279.580893 
L 546.339511 279.108232 
L 554.410319 279.279611 
L 562.481127 279.134224 
L 570.551935 278.854426 
L 578.622743 279.031498 
L 586.693551 278.319546 
L 594.764358 278.211779 
L 602.835166 277.839039 
L 610.905974 277.997098 
L 618.976782 277.925295 
L 627.04759 278.588278 
L 635.118398 278.030065 
L 643.189205 277.788269 
L 651.260013 277.628167 
L 659.330821 277.823082 
L 667.401629 278.176456 
L 675.472437 278.186751 
L 683.543245 278.319823 
L 691.614052 278.131851 
L 699.68486 278.298744 
L 707.755668 278.090985 
L 715.826476 277.36064 
L 723.897284 277.528396 
L 731.968092 277.656917 
L 740.0389 276.795814 
L 748.109707 277.368594 
L 756.180515 277.060304 
L 764.251323 277.777771 
L 772.322131 278.423773 
L 780.392939 278.573749 
L 788.463747 279.002536 
L 796.534554 279.769951 
L 804.605362 281.503993 
" clip-path="url(#p08284cfc80)" style="fill: none; stroke: #e05555; stroke-width: 2.2; stroke-linecap: square"/>
   </g>
   <g id="line2d_82">
    <path d="M 489.843857 121.079695 
L 497.914664 120.672562 
L 505.985472 120.202352 
L 514.05628 120.078823 
L 522.127088 120.08214 
L 530.197896 120.703292 
L 538.268704 120.435643 
L 546.339511 119.962982 
L 554.410319 120.134361 
L 562.481127 119.988973 
L 570.551935 119.709176 
L 578.622743 119.886248 
L 586.693551 119.174296 
L 594.764358 119.066529 
L 602.835166 118.693789 
L 610.905974 118.851847 
L 618.976782 118.780045 
L 627.04759 119.443028 
L 635.118398 118.884815 
L 643.189205 118.643019 
L 651.260013 118.482917 
L 659.330821 118.677832 
L 667.401629 119.031206 
L 675.472437 119.041501 
L 683.543245 119.174573 
L 691.614052 118.986601 
L 699.68486 119.153494 
L 707.755668 118.945735 
L 715.826476 118.21539 
L 723.897284 118.383146 
L 731.968092 118.511667 
L 740.0389 117.650564 
L 748.109707 118.223344 
L 756.180515 117.915054 
L 764.251323 118.632521 
L 772.322131 119.278523 
L 780.392939 119.428499 
L 788.463747 119.857286 
L 796.534554 120.624701 
L 804.605362 122.358743 
" clip-path="url(#p08284cfc80)" style="fill: none; stroke-dasharray: 8.14,3.52; stroke-dashoffset: 0; stroke: #e05555; stroke-width: 2.2"/>
   </g>
   <g id="patch_6">
    <path d="M 474.105781 293.178555 
L 474.105781 36.338203 
" style="fill: none; stroke: #777777; stroke-width: 0.8; stroke-linejoin: miter; stroke-linecap: square"/>
   </g>
   <g id="patch_7">
    <path d="M 474.105781 293.178555 
L 820.343437 293.178555 
" style="fill: none; stroke: #777777; stroke-width: 0.8; stroke-linejoin: miter; stroke-linecap: square"/>
   </g>
   <g id="text_45">
    <!-- And the gradients follow the forward numbers -->
    <g transform="translate(496.449727 30.338203) scale(0.115 -0.115)">
     <defs>
      <path id="DejaVuSans-Bold-24" d="M 3419 850 
L 1538 850 
L 1241 0 
L 31 0 
L 1759 4666 
L 3194 4666 
L 4922 0 
L 3713 0 
L 3419 850 
z
M 1838 1716 
L 3116 1716 
L 2478 3572 
L 1838 1716 
z
" transform="scale(0.015625)"/>
     </defs>
     <use xlink:href="#DejaVuSans-Bold-24"/>
     <use xlink:href="#DejaVuSans-Bold-51" transform="translate(77.390625 0)"/>
     <use xlink:href="#DejaVuSans-Bold-47" transform="translate(148.578125 0)"/>
     <use xlink:href="#DejaVuSans-Bold-3" transform="translate(220.15625 0)"/>
     <use xlink:href="#DejaVuSans-Bold-57" transform="translate(254.96875 0)"/>
     <use xlink:href="#DejaVuSans-Bold-4b" transform="translate(302.765625 0)"/>
     <use xlink:href="#DejaVuSans-Bold-48" transform="translate(373.953125 0)"/>
     <use xlink:href="#DejaVuSans-Bold-3" transform="translate(441.78125 0)"/>
     <use xlink:href="#DejaVuSans-Bold-4a" transform="translate(476.59375 0)"/>
     <use xlink:href="#DejaVuSans-Bold-55" transform="translate(548.171875 0)"/>
     <use xlink:href="#DejaVuSans-Bold-44" transform="translate(597.484375 0)"/>
     <use xlink:href="#DejaVuSans-Bold-47" transform="translate(664.96875 0)"/>
     <use xlink:href="#DejaVuSans-Bold-4c" transform="translate(736.546875 0)"/>
     <use xlink:href="#DejaVuSans-Bold-48" transform="translate(770.828125 0)"/>
     <use xlink:href="#DejaVuSans-Bold-51" transform="translate(838.65625 0)"/>
     <use xlink:href="#DejaVuSans-Bold-57" transform="translate(909.84375 0)"/>
     <use xlink:href="#DejaVuSans-Bold-56" transform="translate(957.640625 0)"/>
     <use xlink:href="#DejaVuSans-Bold-3" transform="translate(1017.15625 0)"/>
     <use xlink:href="#DejaVuSans-Bold-49" transform="translate(1051.96875 0)"/>
     <use xlink:href="#DejaVuSans-Bold-52" transform="translate(1095.46875 0)"/>
     <use xlink:href="#DejaVuSans-Bold-4f" transform="translate(1164.171875 0)"/>
     <use xlink:href="#DejaVuSans-Bold-4f" transform="translate(1198.453125 0)"/>
     <use xlink:href="#DejaVuSans-Bold-52" transform="translate(1232.734375 0)"/>
     <use xlink:href="#DejaVuSans-Bold-5a" transform="translate(1301.4375 0)"/>
     <use xlink:href="#DejaVuSans-Bold-3" transform="translate(1393.828125 0)"/>
     <use xlink:href="#DejaVuSans-Bold-57" transform="translate(1428.640625 0)"/>
     <use xlink:href="#DejaVuSans-Bold-4b" transform="translate(1476.4375 0)"/>
     <use xlink:href="#DejaVuSans-Bold-48" transform="translate(1547.625 0)"/>
     <use xlink:href="#DejaVuSans-Bold-3" transform="translate(1615.453125 0)"/>
     <use xlink:href="#DejaVuSans-Bold-49" transform="translate(1650.265625 0)"/>
     <use xlink:href="#DejaVuSans-Bold-52" transform="translate(1693.765625 0)"/>
     <use xlink:href="#DejaVuSans-Bold-55" transform="translate(1762.46875 0)"/>
     <use xlink:href="#DejaVuSans-Bold-5a" transform="translate(1811.78125 0)"/>
     <use xlink:href="#DejaVuSans-Bold-44" transform="translate(1904.171875 0)"/>
     <use xlink:href="#DejaVuSans-Bold-55" transform="translate(1971.65625 0)"/>
     <use xlink:href="#DejaVuSans-Bold-47" transform="translate(2020.96875 0)"/>
     <use xlink:href="#DejaVuSans-Bold-3" transform="translate(2092.546875 0)"/>
     <use xlink:href="#DejaVuSans-Bold-51" transform="translate(2127.359375 0)"/>
     <use xlink:href="#DejaVuSans-Bold-58" transform="translate(2198.546875 0)"/>
     <use xlink:href="#DejaVuSans-Bold-50" transform="translate(2269.734375 0)"/>
     <use xlink:href="#DejaVuSans-Bold-45" transform="translate(2373.9375 0)"/>
     <use xlink:href="#DejaVuSans-Bold-48" transform="translate(2445.515625 0)"/>
     <use xlink:href="#DejaVuSans-Bold-55" transform="translate(2513.34375 0)"/>
     <use xlink:href="#DejaVuSans-Bold-56" transform="translate(2562.65625 0)"/>
    </g>
   </g>
   <g id="legend_2">
    <g id="line2d_83">
     <path d="M 703.015781 239.264336 
L 712.015781 239.264336 
L 721.015781 239.264336 
" style="fill: none; stroke: #6a4fb3; stroke-width: 2.2; stroke-linecap: square"/>
    </g>
    <g id="text_46">
     <!-- scale 2.0, as it is -->
     <g transform="translate(728.215781 242.414336) scale(0.09 -0.09)">
      <use xlink:href="#DejaVuSans-56"/>
      <use xlink:href="#DejaVuSans-46" transform="translate(52.09375 0)"/>
      <use xlink:href="#DejaVuSans-44" transform="translate(107.078125 0)"/>
      <use xlink:href="#DejaVuSans-4f" transform="translate(168.359375 0)"/>
      <use xlink:href="#DejaVuSans-48" transform="translate(196.140625 0)"/>
      <use xlink:href="#DejaVuSans-3" transform="translate(257.671875 0)"/>
      <use xlink:href="#DejaVuSans-15" transform="translate(289.453125 0)"/>
      <use xlink:href="#DejaVuSans-11" transform="translate(353.078125 0)"/>
      <use xlink:href="#DejaVuSans-13" transform="translate(384.859375 0)"/>
      <use xlink:href="#DejaVuSans-f" transform="translate(448.484375 0)"/>
      <use xlink:href="#DejaVuSans-3" transform="translate(480.265625 0)"/>
      <use xlink:href="#DejaVuSans-44" transform="translate(512.046875 0)"/>
      <use xlink:href="#DejaVuSans-56" transform="translate(573.328125 0)"/>
      <use xlink:href="#DejaVuSans-3" transform="translate(625.421875 0)"/>
      <use xlink:href="#DejaVuSans-4c" transform="translate(657.203125 0)"/>
      <use xlink:href="#DejaVuSans-57" transform="translate(684.984375 0)"/>
      <use xlink:href="#DejaVuSans-3" transform="translate(724.1875 0)"/>
      <use xlink:href="#DejaVuSans-4c" transform="translate(755.96875 0)"/>
      <use xlink:href="#DejaVuSans-56" transform="translate(783.75 0)"/>
     </g>
    </g>
    <g id="line2d_84">
     <path d="M 703.015781 252.765039 
L 712.015781 252.765039 
L 721.015781 252.765039 
" style="fill: none; stroke-dasharray: 8.14,3.52; stroke-dashoffset: 0; stroke: #6a4fb3; stroke-width: 2.2"/>
    </g>
    <g id="text_47">
     <!-- scale 2.0, rescaled -->
     <g transform="translate(728.215781 255.915039) scale(0.09 -0.09)">
      <use xlink:href="#DejaVuSans-56"/>
      <use xlink:href="#DejaVuSans-46" transform="translate(52.09375 0)"/>
      <use xlink:href="#DejaVuSans-44" transform="translate(107.078125 0)"/>
      <use xlink:href="#DejaVuSans-4f" transform="translate(168.359375 0)"/>
      <use xlink:href="#DejaVuSans-48" transform="translate(196.140625 0)"/>
      <use xlink:href="#DejaVuSans-3" transform="translate(257.671875 0)"/>
      <use xlink:href="#DejaVuSans-15" transform="translate(289.453125 0)"/>
      <use xlink:href="#DejaVuSans-11" transform="translate(353.078125 0)"/>
      <use xlink:href="#DejaVuSans-13" transform="translate(384.859375 0)"/>
      <use xlink:href="#DejaVuSans-f" transform="translate(448.484375 0)"/>
      <use xlink:href="#DejaVuSans-3" transform="translate(480.265625 0)"/>
      <use xlink:href="#DejaVuSans-55" transform="translate(512.046875 0)"/>
      <use xlink:href="#DejaVuSans-48" transform="translate(550.953125 0)"/>
      <use xlink:href="#DejaVuSans-56" transform="translate(612.484375 0)"/>
      <use xlink:href="#DejaVuSans-46" transform="translate(664.578125 0)"/>
      <use xlink:href="#DejaVuSans-44" transform="translate(719.5625 0)"/>
      <use xlink:href="#DejaVuSans-4f" transform="translate(780.84375 0)"/>
      <use xlink:href="#DejaVuSans-48" transform="translate(808.625 0)"/>
      <use xlink:href="#DejaVuSans-47" transform="translate(870.15625 0)"/>
     </g>
    </g>
    <g id="line2d_85">
     <path d="M 703.015781 266.265742 
L 712.015781 266.265742 
L 721.015781 266.265742 
" style="fill: none; stroke: #e05555; stroke-width: 2.2; stroke-linecap: square"/>
    </g>
    <g id="text_48">
     <!-- scale 0.7, as it is -->
     <g transform="translate(728.215781 269.415742) scale(0.09 -0.09)">
      <use xlink:href="#DejaVuSans-56"/>
      <use xlink:href="#DejaVuSans-46" transform="translate(52.09375 0)"/>
      <use xlink:href="#DejaVuSans-44" transform="translate(107.078125 0)"/>
      <use xlink:href="#DejaVuSans-4f" transform="translate(168.359375 0)"/>
      <use xlink:href="#DejaVuSans-48" transform="translate(196.140625 0)"/>
      <use xlink:href="#DejaVuSans-3" transform="translate(257.671875 0)"/>
      <use xlink:href="#DejaVuSans-13" transform="translate(289.453125 0)"/>
      <use xlink:href="#DejaVuSans-11" transform="translate(353.078125 0)"/>
      <use xlink:href="#DejaVuSans-1a" transform="translate(384.859375 0)"/>
      <use xlink:href="#DejaVuSans-f" transform="translate(448.484375 0)"/>
      <use xlink:href="#DejaVuSans-3" transform="translate(480.265625 0)"/>
      <use xlink:href="#DejaVuSans-44" transform="translate(512.046875 0)"/>
      <use xlink:href="#DejaVuSans-56" transform="translate(573.328125 0)"/>
      <use xlink:href="#DejaVuSans-3" transform="translate(625.421875 0)"/>
      <use xlink:href="#DejaVuSans-4c" transform="translate(657.203125 0)"/>
      <use xlink:href="#DejaVuSans-57" transform="translate(684.984375 0)"/>
      <use xlink:href="#DejaVuSans-3" transform="translate(724.1875 0)"/>
      <use xlink:href="#DejaVuSans-4c" transform="translate(755.96875 0)"/>
      <use xlink:href="#DejaVuSans-56" transform="translate(783.75 0)"/>
     </g>
    </g>
    <g id="line2d_86">
     <path d="M 703.015781 279.766445 
L 712.015781 279.766445 
L 721.015781 279.766445 
" style="fill: none; stroke-dasharray: 8.14,3.52; stroke-dashoffset: 0; stroke: #e05555; stroke-width: 2.2"/>
    </g>
    <g id="text_49">
     <!-- scale 0.7, rescaled -->
     <g transform="translate(728.215781 282.916445) scale(0.09 -0.09)">
      <use xlink:href="#DejaVuSans-56"/>
      <use xlink:href="#DejaVuSans-46" transform="translate(52.09375 0)"/>
      <use xlink:href="#DejaVuSans-44" transform="translate(107.078125 0)"/>
      <use xlink:href="#DejaVuSans-4f" transform="translate(168.359375 0)"/>
      <use xlink:href="#DejaVuSans-48" transform="translate(196.140625 0)"/>
      <use xlink:href="#DejaVuSans-3" transform="translate(257.671875 0)"/>
      <use xlink:href="#DejaVuSans-13" transform="translate(289.453125 0)"/>
      <use xlink:href="#DejaVuSans-11" transform="translate(353.078125 0)"/>
      <use xlink:href="#DejaVuSans-1a" transform="translate(384.859375 0)"/>
      <use xlink:href="#DejaVuSans-f" transform="translate(448.484375 0)"/>
      <use xlink:href="#DejaVuSans-3" transform="translate(480.265625 0)"/>
      <use xlink:href="#DejaVuSans-55" transform="translate(512.046875 0)"/>
      <use xlink:href="#DejaVuSans-48" transform="translate(550.953125 0)"/>
      <use xlink:href="#DejaVuSans-56" transform="translate(612.484375 0)"/>
      <use xlink:href="#DejaVuSans-46" transform="translate(664.578125 0)"/>
      <use xlink:href="#DejaVuSans-44" transform="translate(719.5625 0)"/>
      <use xlink:href="#DejaVuSans-4f" transform="translate(780.84375 0)"/>
      <use xlink:href="#DejaVuSans-48" transform="translate(808.625 0)"/>
      <use xlink:href="#DejaVuSans-47" transform="translate(870.15625 0)"/>
     </g>
    </g>
   </g>
  </g>
 </g>
 <defs>
  <clipPath id="p7ae86f9698">
   <rect x="69.105781" y="36.338203" width="346.237656" height="256.840352"/>
  </clipPath>
  <clipPath id="p08284cfc80">
   <rect x="474.105781" y="36.338203" width="346.237656" height="256.840352"/>
  </clipPath>
 </defs>
</svg>
