<?xml version="1.0" encoding="utf-8" standalone="no"?>
<!DOCTYPE svg PUBLIC "-//W3C//DTD SVG 1.1//EN"
  "http://www.w3.org/Graphics/SVG/1.1/DTD/svg11.dtd">
<svg xmlns:xlink="http://www.w3.org/1999/xlink" width="639.784741pt" height="312.054545pt" viewBox="0 0 639.784741 312.054545" xmlns="http://www.w3.org/2000/svg" version="1.1">
 <metadata>
  <rdf:RDF xmlns:dc="http://purl.org/dc/elements/1.1/" xmlns:cc="http://creativecommons.org/ns#" xmlns:rdf="http://www.w3.org/1999/02/22-rdf-syntax-ns#">
   <cc:Work>
    <dc:type rdf:resource="http://purl.org/dc/dcmitype/StillImage"/>
    <dc:date>2026-09-29T18:58:42.060979</dc:date>
    <dc:format>image/svg+xml</dc:format>
    <dc:creator>
     <cc:Agent>
      <dc:title>Matplotlib v3.11.1, https://matplotlib.org/</dc:title>
     </cc:Agent>
    </dc:creator>
   </cc:Work>
  </rdf:RDF>
 </metadata>
 <defs>
  <style type="text/css">*{stroke-linejoin: round; stroke-linecap: butt}</style>
 </defs>
 <g id="figure_1">
  <g id="patch_1">
   <path d="M 0 312.054545 
L 639.784741 312.054545 
L 639.784741 0 
L 0 0 
z
" style="fill: #ffffff"/>
  </g>
  <g id="axes_1">
   <g id="line2d_1">
    <path d="M 42.825359 156.027273 
L 269.229187 156.027273 
" clip-path="url(#pfeb60a61e0)" style="fill: none; stroke: #d6d6d6; stroke-linecap: square"/>
   </g>
   <g id="line2d_2">
    <path d="M 156.027273 269.229187 
L 156.027273 42.825359 
" clip-path="url(#pfeb60a61e0)" style="fill: none; stroke: #d6d6d6; stroke-linecap: square"/>
   </g>
   <g id="line2d_3">
    <path d="M 156.027273 156.027273 
L 260.541763 174.455997 
" clip-path="url(#pfeb60a61e0)" style="fill: none; stroke: #3b82c4; stroke-width: 5; stroke-linecap: round"/>
   </g>
   <g id="patch_2">
    <path d="M 212.62823 156.027273 
C 212.62823 148.802228 211.244827 141.643557 208.552899 134.938724 
C 205.860971 128.233891 201.909977 122.106084 196.913764 116.886972 
C 191.917552 111.66786 185.967917 107.453335 179.386886 104.471509 
C 172.805854 101.489682 165.71434 99.795339 158.496172 99.480187 
C 151.278004 99.165035 144.065803 100.234864 137.249931 102.631769 
C 130.434059 105.028675 124.139745 108.708617 118.707669 113.47242 
C 113.275593 118.236223 108.805559 123.99636 105.53951 130.441062 
C 102.273461 136.885765 100.271404 143.896623 99.6417 151.094174 
C 99.011995 158.291725 99.766214 165.543727 101.863534 172.457663 
C 103.960854 179.3716 107.36274 185.82044 111.885065 191.45514 
C 116.40739 197.08984 121.967064 201.806873 128.263169 205.350927 
C 134.559275 208.894982 141.476132 211.200943 148.639365 212.144001 
C 155.802599 213.087058 163.080596 212.649885 170.079436 210.856143 
C 177.078276 209.062401 183.669367 205.945048 189.495965 201.672809 
C 195.322563 197.400571 200.277615 192.051942 204.092929 185.916418 
C 207.908243 179.780895 210.513718 172.971206 211.768334 165.855926 
" clip-path="url(#pfeb60a61e0)" style="fill: none; stroke: #3b82c4; stroke-width: 2; stroke-linejoin: miter"/>
   </g>
   <g id="patch_3">
    <path d="M 239.638865 170.770252 
C 240.067788 168.337704 240.390351 165.887595 240.605633 163.42692 
C 240.820914 160.966245 240.928708 158.497347 240.928708 156.027273 
" clip-path="url(#pfeb60a61e0)" style="fill: none; stroke: #e05555; stroke-width: 2.4; stroke-linejoin: miter"/>
   </g>
   <g id="text_1">
    <!-- Two numbers, one direction -->
    <g style="fill: #222222" transform="translate(54.137741 32.212679) scale(0.13 -0.13)">
     <defs>
      <path id="DejaVuSans-Bold-37" d="M 31 4666 
L 4331 4666 
L 4331 3756 
L 2784 3756 
L 2784 0 
L 1581 0 
L 1581 3756 
L 31 3756 
L 31 4666 
z
" transform="scale(0.015625)"/>
      <path id="DejaVuSans-Bold-5a" d="M 225 3500 
L 1313 3500 
L 1900 1088 
L 2491 3500 
L 3425 3500 
L 4013 1113 
L 4603 3500 
L 5691 3500 
L 4769 0 
L 3547 0 
L 2956 2406 
L 2369 0 
L 1147 0 
L 225 3500 
z
" transform="scale(0.015625)"/>
      <path id="DejaVuSans-Bold-52" d="M 2203 2784 
Q 1831 2784 1636 2517 
Q 1441 2250 1441 1747 
Q 1441 1244 1636 976 
Q 1831 709 2203 709 
Q 2569 709 2762 976 
Q 2956 1244 2956 1747 
Q 2956 2250 2762 2517 
Q 2569 2784 2203 2784 
z
M 2203 3584 
Q 3106 3584 3614 3096 
Q 4122 2609 4122 1747 
Q 4122 884 3614 396 
Q 3106 -91 2203 -91 
Q 1297 -91 786 396 
Q 275 884 275 1747 
Q 275 2609 786 3096 
Q 1297 3584 2203 3584 
z
" transform="scale(0.015625)"/>
      <path id="DejaVuSans-Bold-3" transform="scale(0.015625)"/>
      <path id="DejaVuSans-Bold-51" d="M 4056 2131 
L 4056 0 
L 2931 0 
L 2931 347 
L 2931 1631 
Q 2931 2084 2911 2256 
Q 2891 2428 2841 2509 
Q 2775 2619 2662 2680 
Q 2550 2741 2406 2741 
Q 2056 2741 1856 2470 
Q 1656 2200 1656 1722 
L 1656 0 
L 538 0 
L 538 3500 
L 1656 3500 
L 1656 2988 
Q 1909 3294 2193 3439 
Q 2478 3584 2822 3584 
Q 3428 3584 3742 3212 
Q 4056 2841 4056 2131 
z
" transform="scale(0.015625)"/>
      <path id="DejaVuSans-Bold-58" d="M 500 1363 
L 500 3500 
L 1625 3500 
L 1625 3150 
Q 1625 2866 1622 2436 
Q 1619 2006 1619 1863 
Q 1619 1441 1641 1255 
Q 1663 1069 1716 984 
Q 1784 875 1895 815 
Q 2006 756 2150 756 
Q 2500 756 2700 1025 
Q 2900 1294 2900 1772 
L 2900 3500 
L 4019 3500 
L 4019 0 
L 2900 0 
L 2900 506 
Q 2647 200 2364 54 
Q 2081 -91 1741 -91 
Q 1134 -91 817 281 
Q 500 653 500 1363 
z
" transform="scale(0.015625)"/>
      <path id="DejaVuSans-Bold-50" d="M 3781 2919 
Q 3994 3244 4286 3414 
Q 4578 3584 4928 3584 
Q 5531 3584 5847 3212 
Q 6163 2841 6163 2131 
L 6163 0 
L 5038 0 
L 5038 1825 
Q 5041 1866 5042 1909 
Q 5044 1953 5044 2034 
Q 5044 2406 4934 2573 
Q 4825 2741 4581 2741 
Q 4263 2741 4089 2478 
Q 3916 2216 3909 1719 
L 3909 0 
L 2784 0 
L 2784 1825 
Q 2784 2406 2684 2573 
Q 2584 2741 2328 2741 
Q 2006 2741 1831 2477 
Q 1656 2213 1656 1722 
L 1656 0 
L 531 0 
L 531 3500 
L 1656 3500 
L 1656 2988 
Q 1863 3284 2130 3434 
Q 2397 3584 2719 3584 
Q 3081 3584 3359 3409 
Q 3638 3234 3781 2919 
z
" transform="scale(0.015625)"/>
      <path id="DejaVuSans-Bold-45" d="M 2400 722 
Q 2759 722 2948 984 
Q 3138 1247 3138 1747 
Q 3138 2247 2948 2509 
Q 2759 2772 2400 2772 
Q 2041 2772 1848 2508 
Q 1656 2244 1656 1747 
Q 1656 1250 1848 986 
Q 2041 722 2400 722 
z
M 1656 2988 
Q 1888 3294 2169 3439 
Q 2450 3584 2816 3584 
Q 3463 3584 3878 3070 
Q 4294 2556 4294 1747 
Q 4294 938 3878 423 
Q 3463 -91 2816 -91 
Q 2450 -91 2169 54 
Q 1888 200 1656 506 
L 1656 0 
L 538 0 
L 538 4863 
L 1656 4863 
L 1656 2988 
z
" transform="scale(0.015625)"/>
      <path id="DejaVuSans-Bold-48" d="M 4031 1759 
L 4031 1441 
L 1416 1441 
Q 1456 1047 1700 850 
Q 1944 653 2381 653 
Q 2734 653 3104 758 
Q 3475 863 3866 1075 
L 3866 213 
Q 3469 63 3072 -14 
Q 2675 -91 2278 -91 
Q 1328 -91 801 392 
Q 275 875 275 1747 
Q 275 2603 792 3093 
Q 1309 3584 2216 3584 
Q 3041 3584 3536 3087 
Q 4031 2591 4031 1759 
z
M 2881 2131 
Q 2881 2450 2695 2645 
Q 2509 2841 2209 2841 
Q 1884 2841 1681 2658 
Q 1478 2475 1428 2131 
L 2881 2131 
z
" transform="scale(0.015625)"/>
      <path id="DejaVuSans-Bold-55" d="M 3138 2547 
Q 2991 2616 2845 2648 
Q 2700 2681 2553 2681 
Q 2122 2681 1889 2404 
Q 1656 2128 1656 1613 
L 1656 0 
L 538 0 
L 538 3500 
L 1656 3500 
L 1656 2925 
Q 1872 3269 2151 3426 
Q 2431 3584 2822 3584 
Q 2878 3584 2943 3579 
Q 3009 3575 3134 3559 
L 3138 2547 
z
" transform="scale(0.015625)"/>
      <path id="DejaVuSans-Bold-56" d="M 3272 3391 
L 3272 2541 
Q 2913 2691 2578 2766 
Q 2244 2841 1947 2841 
Q 1628 2841 1473 2761 
Q 1319 2681 1319 2516 
Q 1319 2381 1436 2309 
Q 1553 2238 1856 2203 
L 2053 2175 
Q 2913 2066 3209 1816 
Q 3506 1566 3506 1031 
Q 3506 472 3093 190 
Q 2681 -91 1863 -91 
Q 1516 -91 1145 -36 
Q 775 19 384 128 
L 384 978 
Q 719 816 1070 734 
Q 1422 653 1784 653 
Q 2113 653 2278 743 
Q 2444 834 2444 1013 
Q 2444 1163 2330 1236 
Q 2216 1309 1875 1350 
L 1678 1375 
Q 931 1469 631 1722 
Q 331 1975 331 2491 
Q 331 3047 712 3315 
Q 1094 3584 1881 3584 
Q 2191 3584 2531 3537 
Q 2872 3491 3272 3391 
z
" transform="scale(0.015625)"/>
      <path id="DejaVuSans-Bold-f" d="M 653 1209 
L 1778 1209 
L 1778 256 
L 1006 -909 
L 341 -909 
L 653 256 
L 653 1209 
z
" transform="scale(0.015625)"/>
      <path id="DejaVuSans-Bold-47" d="M 2919 2988 
L 2919 4863 
L 4044 4863 
L 4044 0 
L 2919 0 
L 2919 506 
Q 2688 197 2409 53 
Q 2131 -91 1766 -91 
Q 1119 -91 703 423 
Q 288 938 288 1747 
Q 288 2556 703 3070 
Q 1119 3584 1766 3584 
Q 2128 3584 2408 3439 
Q 2688 3294 2919 2988 
z
M 2181 722 
Q 2541 722 2730 984 
Q 2919 1247 2919 1747 
Q 2919 2247 2730 2509 
Q 2541 2772 2181 2772 
Q 1825 2772 1636 2509 
Q 1447 2247 1447 1747 
Q 1447 1247 1636 984 
Q 1825 722 2181 722 
z
" transform="scale(0.015625)"/>
      <path id="DejaVuSans-Bold-4c" d="M 538 3500 
L 1656 3500 
L 1656 0 
L 538 0 
L 538 3500 
z
M 538 4863 
L 1656 4863 
L 1656 3950 
L 538 3950 
L 538 4863 
z
" transform="scale(0.015625)"/>
      <path id="DejaVuSans-Bold-46" d="M 3366 3391 
L 3366 2478 
Q 3138 2634 2908 2709 
Q 2678 2784 2431 2784 
Q 1963 2784 1702 2511 
Q 1441 2238 1441 1747 
Q 1441 1256 1702 982 
Q 1963 709 2431 709 
Q 2694 709 2930 787 
Q 3166 866 3366 1019 
L 3366 103 
Q 3103 6 2833 -42 
Q 2563 -91 2291 -91 
Q 1344 -91 809 395 
Q 275 881 275 1747 
Q 275 2613 809 3098 
Q 1344 3584 2291 3584 
Q 2566 3584 2833 3536 
Q 3100 3488 3366 3391 
z
" transform="scale(0.015625)"/>
      <path id="DejaVuSans-Bold-57" d="M 1759 4494 
L 1759 3500 
L 2913 3500 
L 2913 2700 
L 1759 2700 
L 1759 1216 
Q 1759 972 1856 886 
Q 1953 800 2241 800 
L 2816 800 
L 2816 0 
L 1856 0 
Q 1194 0 917 276 
Q 641 553 641 1216 
L 641 2700 
L 84 2700 
L 84 3500 
L 641 3500 
L 641 4494 
L 1759 4494 
z
" transform="scale(0.015625)"/>
     </defs>
     <use xlink:href="#DejaVuSans-Bold-37"/>
     <use xlink:href="#DejaVuSans-Bold-5a" transform="translate(57.234375 0)"/>
     <use xlink:href="#DejaVuSans-Bold-52" transform="translate(149.625 0)"/>
     <use xlink:href="#DejaVuSans-Bold-3" transform="translate(218.328125 0)"/>
     <use xlink:href="#DejaVuSans-Bold-51" transform="translate(253.140625 0)"/>
     <use xlink:href="#DejaVuSans-Bold-58" transform="translate(324.328125 0)"/>
     <use xlink:href="#DejaVuSans-Bold-50" transform="translate(395.515625 0)"/>
     <use xlink:href="#DejaVuSans-Bold-45" transform="translate(499.71875 0)"/>
     <use xlink:href="#DejaVuSans-Bold-48" transform="translate(571.296875 0)"/>
     <use xlink:href="#DejaVuSans-Bold-55" transform="translate(639.125 0)"/>
     <use xlink:href="#DejaVuSans-Bold-56" transform="translate(688.4375 0)"/>
     <use xlink:href="#DejaVuSans-Bold-f" transform="translate(747.953125 0)"/>
     <use xlink:href="#DejaVuSans-Bold-3" transform="translate(785.9375 0)"/>
     <use xlink:href="#DejaVuSans-Bold-52" transform="translate(820.75 0)"/>
     <use xlink:href="#DejaVuSans-Bold-51" transform="translate(889.453125 0)"/>
     <use xlink:href="#DejaVuSans-Bold-48" transform="translate(960.640625 0)"/>
     <use xlink:href="#DejaVuSans-Bold-3" transform="translate(1028.46875 0)"/>
     <use xlink:href="#DejaVuSans-Bold-47" transform="translate(1063.28125 0)"/>
     <use xlink:href="#DejaVuSans-Bold-4c" transform="translate(1134.859375 0)"/>
     <use xlink:href="#DejaVuSans-Bold-55" transform="translate(1169.140625 0)"/>
     <use xlink:href="#DejaVuSans-Bold-48" transform="translate(1218.453125 0)"/>
     <use xlink:href="#DejaVuSans-Bold-46" transform="translate(1286.28125 0)"/>
     <use xlink:href="#DejaVuSans-Bold-57" transform="translate(1345.5625 0)"/>
     <use xlink:href="#DejaVuSans-Bold-4c" transform="translate(1393.359375 0)"/>
     <use xlink:href="#DejaVuSans-Bold-52" transform="translate(1427.640625 0)"/>
     <use xlink:href="#DejaVuSans-Bold-51" transform="translate(1496.34375 0)"/>
    </g>
   </g>
   <g id="text_2">
    <!-- the link ends at the same place either way -->
    <g style="fill: #777777" transform="translate(49.105398 283.379426) scale(0.1 -0.1)">
     <defs>
      <path id="DejaVuSans-57" d="M 1172 4494 
L 1172 3500 
L 2356 3500 
L 2356 3053 
L 1172 3053 
L 1172 1153 
Q 1172 725 1289 603 
Q 1406 481 1766 481 
L 2356 481 
L 2356 0 
L 1766 0 
Q 1100 0 847 248 
Q 594 497 594 1153 
L 594 3053 
L 172 3053 
L 172 3500 
L 594 3500 
L 594 4494 
L 1172 4494 
z
" transform="scale(0.015625)"/>
      <path id="DejaVuSans-4b" d="M 3513 2113 
L 3513 0 
L 2938 0 
L 2938 2094 
Q 2938 2591 2744 2837 
Q 2550 3084 2163 3084 
Q 1697 3084 1428 2787 
Q 1159 2491 1159 1978 
L 1159 0 
L 581 0 
L 581 4863 
L 1159 4863 
L 1159 2956 
Q 1366 3272 1645 3428 
Q 1925 3584 2291 3584 
Q 2894 3584 3203 3211 
Q 3513 2838 3513 2113 
z
" transform="scale(0.015625)"/>
      <path id="DejaVuSans-48" d="M 3597 1894 
L 3597 1613 
L 953 1613 
Q 991 1019 1311 708 
Q 1631 397 2203 397 
Q 2534 397 2845 478 
Q 3156 559 3463 722 
L 3463 178 
Q 3153 47 2828 -22 
Q 2503 -91 2169 -91 
Q 1331 -91 842 396 
Q 353 884 353 1716 
Q 353 2575 817 3079 
Q 1281 3584 2069 3584 
Q 2775 3584 3186 3129 
Q 3597 2675 3597 1894 
z
M 3022 2063 
Q 3016 2534 2758 2815 
Q 2500 3097 2075 3097 
Q 1594 3097 1305 2825 
Q 1016 2553 972 2059 
L 3022 2063 
z
" transform="scale(0.015625)"/>
      <path id="DejaVuSans-3" transform="scale(0.015625)"/>
      <path id="DejaVuSans-4f" d="M 603 4863 
L 1178 4863 
L 1178 0 
L 603 0 
L 603 4863 
z
" transform="scale(0.015625)"/>
      <path id="DejaVuSans-4c" d="M 603 3500 
L 1178 3500 
L 1178 0 
L 603 0 
L 603 3500 
z
M 603 4863 
L 1178 4863 
L 1178 4134 
L 603 4134 
L 603 4863 
z
" transform="scale(0.015625)"/>
      <path id="DejaVuSans-51" d="M 3513 2113 
L 3513 0 
L 2938 0 
L 2938 2094 
Q 2938 2591 2744 2837 
Q 2550 3084 2163 3084 
Q 1697 3084 1428 2787 
Q 1159 2491 1159 1978 
L 1159 0 
L 581 0 
L 581 3500 
L 1159 3500 
L 1159 2956 
Q 1366 3272 1645 3428 
Q 1925 3584 2291 3584 
Q 2894 3584 3203 3211 
Q 3513 2838 3513 2113 
z
" transform="scale(0.015625)"/>
      <path id="DejaVuSans-4e" d="M 581 4863 
L 1159 4863 
L 1159 1991 
L 2875 3500 
L 3609 3500 
L 1753 1863 
L 3688 0 
L 2938 0 
L 1159 1709 
L 1159 0 
L 581 0 
L 581 4863 
z
" transform="scale(0.015625)"/>
      <path id="DejaVuSans-47" d="M 2906 2969 
L 2906 4863 
L 3481 4863 
L 3481 0 
L 2906 0 
L 2906 525 
Q 2725 213 2448 61 
Q 2172 -91 1784 -91 
Q 1150 -91 751 415 
Q 353 922 353 1747 
Q 353 2572 751 3078 
Q 1150 3584 1784 3584 
Q 2172 3584 2448 3432 
Q 2725 3281 2906 2969 
z
M 947 1747 
Q 947 1113 1208 752 
Q 1469 391 1925 391 
Q 2381 391 2643 752 
Q 2906 1113 2906 1747 
Q 2906 2381 2643 2742 
Q 2381 3103 1925 3103 
Q 1469 3103 1208 2742 
Q 947 2381 947 1747 
z
" transform="scale(0.015625)"/>
      <path id="DejaVuSans-56" d="M 2834 3397 
L 2834 2853 
Q 2591 2978 2328 3040 
Q 2066 3103 1784 3103 
Q 1356 3103 1142 2972 
Q 928 2841 928 2578 
Q 928 2378 1081 2264 
Q 1234 2150 1697 2047 
L 1894 2003 
Q 2506 1872 2764 1633 
Q 3022 1394 3022 966 
Q 3022 478 2636 193 
Q 2250 -91 1575 -91 
Q 1294 -91 989 -36 
Q 684 19 347 128 
L 347 722 
Q 666 556 975 473 
Q 1284 391 1588 391 
Q 1994 391 2212 530 
Q 2431 669 2431 922 
Q 2431 1156 2273 1281 
Q 2116 1406 1581 1522 
L 1381 1569 
Q 847 1681 609 1914 
Q 372 2147 372 2553 
Q 372 3047 722 3315 
Q 1072 3584 1716 3584 
Q 2034 3584 2315 3537 
Q 2597 3491 2834 3397 
z
" transform="scale(0.015625)"/>
      <path id="DejaVuSans-44" d="M 2194 1759 
Q 1497 1759 1228 1600 
Q 959 1441 959 1056 
Q 959 750 1161 570 
Q 1363 391 1709 391 
Q 2188 391 2477 730 
Q 2766 1069 2766 1631 
L 2766 1759 
L 2194 1759 
z
M 3341 1997 
L 3341 0 
L 2766 0 
L 2766 531 
Q 2569 213 2275 61 
Q 1981 -91 1556 -91 
Q 1019 -91 701 211 
Q 384 513 384 1019 
Q 384 1609 779 1909 
Q 1175 2209 1959 2209 
L 2766 2209 
L 2766 2266 
Q 2766 2663 2505 2880 
Q 2244 3097 1772 3097 
Q 1472 3097 1187 3025 
Q 903 2953 641 2809 
L 641 3341 
Q 956 3463 1253 3523 
Q 1550 3584 1831 3584 
Q 2591 3584 2966 3190 
Q 3341 2797 3341 1997 
z
" transform="scale(0.015625)"/>
      <path id="DejaVuSans-50" d="M 3328 2828 
Q 3544 3216 3844 3400 
Q 4144 3584 4550 3584 
Q 5097 3584 5394 3201 
Q 5691 2819 5691 2113 
L 5691 0 
L 5113 0 
L 5113 2094 
Q 5113 2597 4934 2840 
Q 4756 3084 4391 3084 
Q 3944 3084 3684 2787 
Q 3425 2491 3425 1978 
L 3425 0 
L 2847 0 
L 2847 2094 
Q 2847 2600 2669 2842 
Q 2491 3084 2119 3084 
Q 1678 3084 1418 2786 
Q 1159 2488 1159 1978 
L 1159 0 
L 581 0 
L 581 3500 
L 1159 3500 
L 1159 2956 
Q 1356 3278 1631 3431 
Q 1906 3584 2284 3584 
Q 2666 3584 2933 3390 
Q 3200 3197 3328 2828 
z
" transform="scale(0.015625)"/>
      <path id="DejaVuSans-53" d="M 1159 525 
L 1159 -1331 
L 581 -1331 
L 581 3500 
L 1159 3500 
L 1159 2969 
Q 1341 3281 1617 3432 
Q 1894 3584 2278 3584 
Q 2916 3584 3314 3078 
Q 3713 2572 3713 1747 
Q 3713 922 3314 415 
Q 2916 -91 2278 -91 
Q 1894 -91 1617 61 
Q 1341 213 1159 525 
z
M 3116 1747 
Q 3116 2381 2855 2742 
Q 2594 3103 2138 3103 
Q 1681 3103 1420 2742 
Q 1159 2381 1159 1747 
Q 1159 1113 1420 752 
Q 1681 391 2138 391 
Q 2594 391 2855 752 
Q 3116 1113 3116 1747 
z
" transform="scale(0.015625)"/>
      <path id="DejaVuSans-46" d="M 3122 3366 
L 3122 2828 
Q 2878 2963 2633 3030 
Q 2388 3097 2138 3097 
Q 1578 3097 1268 2742 
Q 959 2388 959 1747 
Q 959 1106 1268 751 
Q 1578 397 2138 397 
Q 2388 397 2633 464 
Q 2878 531 3122 666 
L 3122 134 
Q 2881 22 2623 -34 
Q 2366 -91 2075 -91 
Q 1284 -91 818 406 
Q 353 903 353 1747 
Q 353 2603 823 3093 
Q 1294 3584 2113 3584 
Q 2378 3584 2631 3529 
Q 2884 3475 3122 3366 
z
" transform="scale(0.015625)"/>
      <path id="DejaVuSans-55" d="M 2631 2963 
Q 2534 3019 2420 3045 
Q 2306 3072 2169 3072 
Q 1681 3072 1420 2755 
Q 1159 2438 1159 1844 
L 1159 0 
L 581 0 
L 581 3500 
L 1159 3500 
L 1159 2956 
Q 1341 3275 1631 3429 
Q 1922 3584 2338 3584 
Q 2397 3584 2469 3576 
Q 2541 3569 2628 3553 
L 2631 2963 
z
" transform="scale(0.015625)"/>
      <path id="DejaVuSans-5a" d="M 269 3500 
L 844 3500 
L 1563 769 
L 2278 3500 
L 2956 3500 
L 3675 769 
L 4391 3500 
L 4966 3500 
L 4050 0 
L 3372 0 
L 2619 2869 
L 1863 0 
L 1184 0 
L 269 3500 
z
" transform="scale(0.015625)"/>
      <path id="DejaVuSans-5c" d="M 2059 -325 
Q 1816 -950 1584 -1140 
Q 1353 -1331 966 -1331 
L 506 -1331 
L 506 -850 
L 844 -850 
Q 1081 -850 1212 -737 
Q 1344 -625 1503 -206 
L 1606 56 
L 191 3500 
L 800 3500 
L 1894 763 
L 2988 3500 
L 3597 3500 
L 2059 -325 
z
" transform="scale(0.015625)"/>
     </defs>
     <use xlink:href="#DejaVuSans-57"/>
     <use xlink:href="#DejaVuSans-4b" transform="translate(39.203125 0)"/>
     <use xlink:href="#DejaVuSans-48" transform="translate(102.578125 0)"/>
     <use xlink:href="#DejaVuSans-3" transform="translate(164.109375 0)"/>
     <use xlink:href="#DejaVuSans-4f" transform="translate(195.890625 0)"/>
     <use xlink:href="#DejaVuSans-4c" transform="translate(223.671875 0)"/>
     <use xlink:href="#DejaVuSans-51" transform="translate(251.453125 0)"/>
     <use xlink:href="#DejaVuSans-4e" transform="translate(314.828125 0)"/>
     <use xlink:href="#DejaVuSans-3" transform="translate(372.734375 0)"/>
     <use xlink:href="#DejaVuSans-48" transform="translate(404.515625 0)"/>
     <use xlink:href="#DejaVuSans-51" transform="translate(466.046875 0)"/>
     <use xlink:href="#DejaVuSans-47" transform="translate(529.421875 0)"/>
     <use xlink:href="#DejaVuSans-56" transform="translate(592.90625 0)"/>
     <use xlink:href="#DejaVuSans-3" transform="translate(645 0)"/>
     <use xlink:href="#DejaVuSans-44" transform="translate(676.78125 0)"/>
     <use xlink:href="#DejaVuSans-57" transform="translate(738.0625 0)"/>
     <use xlink:href="#DejaVuSans-3" transform="translate(777.265625 0)"/>
     <use xlink:href="#DejaVuSans-57" transform="translate(809.046875 0)"/>
     <use xlink:href="#DejaVuSans-4b" transform="translate(848.25 0)"/>
     <use xlink:href="#DejaVuSans-48" transform="translate(911.625 0)"/>
     <use xlink:href="#DejaVuSans-3" transform="translate(973.15625 0)"/>
     <use xlink:href="#DejaVuSans-56" transform="translate(1004.9375 0)"/>
     <use xlink:href="#DejaVuSans-44" transform="translate(1057.03125 0)"/>
     <use xlink:href="#DejaVuSans-50" transform="translate(1118.3125 0)"/>
     <use xlink:href="#DejaVuSans-48" transform="translate(1215.71875 0)"/>
     <use xlink:href="#DejaVuSans-3" transform="translate(1277.25 0)"/>
     <use xlink:href="#DejaVuSans-53" transform="translate(1309.03125 0)"/>
     <use xlink:href="#DejaVuSans-4f" transform="translate(1372.515625 0)"/>
     <use xlink:href="#DejaVuSans-44" transform="translate(1400.296875 0)"/>
     <use xlink:href="#DejaVuSans-46" transform="translate(1461.578125 0)"/>
     <use xlink:href="#DejaVuSans-48" transform="translate(1516.5625 0)"/>
     <use xlink:href="#DejaVuSans-3" transform="translate(1578.09375 0)"/>
     <use xlink:href="#DejaVuSans-48" transform="translate(1609.875 0)"/>
     <use xlink:href="#DejaVuSans-4c" transform="translate(1671.40625 0)"/>
     <use xlink:href="#DejaVuSans-57" transform="translate(1699.1875 0)"/>
     <use xlink:href="#DejaVuSans-4b" transform="translate(1738.390625 0)"/>
     <use xlink:href="#DejaVuSans-48" transform="translate(1801.765625 0)"/>
     <use xlink:href="#DejaVuSans-55" transform="translate(1863.296875 0)"/>
     <use xlink:href="#DejaVuSans-3" transform="translate(1904.40625 0)"/>
     <use xlink:href="#DejaVuSans-5a" transform="translate(1936.1875 0)"/>
     <use xlink:href="#DejaVuSans-44" transform="translate(2017.96875 0)"/>
     <use xlink:href="#DejaVuSans-5c" transform="translate(2079.25 0)"/>
    </g>
   </g>
   <g id="line2d_4">
    <defs>
     <path id="m57e71bba0d" d="M 0 6 
C 1.591219 6 3.117479 5.367802 4.242641 4.242641 
C 5.367802 3.117479 6 1.591219 6 0 
C 6 -1.591219 5.367802 -3.117479 4.242641 -4.242641 
C 3.117479 -5.367802 1.591219 -6 0 -6 
C -1.591219 -6 -3.117479 -5.367802 -4.242641 -4.242641 
C -5.367802 -3.117479 -6 -1.591219 -6 0 
C -6 1.591219 -5.367802 3.117479 -4.242641 4.242641 
C -3.117479 5.367802 -1.591219 6 0 6 
z
" style="stroke: #f0a500"/>
    </defs>
    <g clip-path="url(#pfeb60a61e0)">
     <use xlink:href="#m57e71bba0d" x="156.027273" y="156.027273" style="fill: #f0a500; stroke: #f0a500"/>
    </g>
   </g>
   <g id="text_3">
    <!-- +350°, the long way -->
    <g style="fill: #3b82c4" transform="translate(90.403362 87.638225) scale(0.09 -0.09)">
     <defs>
      <path id="DejaVuSansMono-e" d="M 2188 3659 
L 2188 2272 
L 3578 2272 
L 3578 1741 
L 2188 1741 
L 2188 353 
L 1663 353 
L 1663 1741 
L 275 1741 
L 275 2272 
L 1663 2272 
L 1663 3659 
L 2188 3659 
z
" transform="scale(0.015625)"/>
      <path id="DejaVuSansMono-16" d="M 2425 2497 
Q 2884 2375 3128 2064 
Q 3372 1753 3372 1288 
Q 3372 644 2939 276 
Q 2506 -91 1741 -91 
Q 1419 -91 1084 -31 
Q 750 28 428 141 
L 428 769 
Q 747 603 1056 522 
Q 1366 441 1672 441 
Q 2191 441 2469 675 
Q 2747 909 2747 1350 
Q 2747 1756 2469 1995 
Q 2191 2234 1716 2234 
L 1234 2234 
L 1234 2753 
L 1716 2753 
Q 2150 2753 2394 2943 
Q 2638 3134 2638 3475 
Q 2638 3834 2411 4026 
Q 2184 4219 1766 4219 
Q 1488 4219 1191 4156 
Q 894 4094 569 3969 
L 569 4550 
Q 947 4650 1242 4700 
Q 1538 4750 1766 4750 
Q 2447 4750 2855 4408 
Q 3263 4066 3263 3500 
Q 3263 3116 3048 2859 
Q 2834 2603 2425 2497 
z
" transform="scale(0.015625)"/>
      <path id="DejaVuSansMono-18" d="M 647 4666 
L 3009 4666 
L 3009 4134 
L 1222 4134 
L 1222 2988 
Q 1356 3038 1492 3061 
Q 1628 3084 1766 3084 
Q 2491 3084 2916 2656 
Q 3341 2228 3341 1497 
Q 3341 759 2895 334 
Q 2450 -91 1678 -91 
Q 1306 -91 998 -41 
Q 691 9 447 109 
L 447 750 
Q 734 594 1025 517 
Q 1316 441 1619 441 
Q 2141 441 2423 716 
Q 2706 991 2706 1497 
Q 2706 1997 2414 2275 
Q 2122 2553 1600 2553 
Q 1347 2553 1106 2495 
Q 866 2438 647 2322 
L 647 4666 
z
" transform="scale(0.015625)"/>
      <path id="DejaVuSansMono-13" d="M 1509 2344 
Q 1509 2516 1629 2641 
Q 1750 2766 1919 2766 
Q 2094 2766 2219 2641 
Q 2344 2516 2344 2344 
Q 2344 2169 2220 2047 
Q 2097 1925 1919 1925 
Q 1744 1925 1626 2044 
Q 1509 2163 1509 2344 
z
M 1925 4250 
Q 1484 4250 1267 3775 
Q 1050 3300 1050 2328 
Q 1050 1359 1267 884 
Q 1484 409 1925 409 
Q 2369 409 2586 884 
Q 2803 1359 2803 2328 
Q 2803 3300 2586 3775 
Q 2369 4250 1925 4250 
z
M 1925 4750 
Q 2672 4750 3055 4137 
Q 3438 3525 3438 2328 
Q 3438 1134 3055 521 
Q 2672 -91 1925 -91 
Q 1178 -91 797 521 
Q 416 1134 416 2328 
Q 416 3525 797 4137 
Q 1178 4750 1925 4750 
z
" transform="scale(0.015625)"/>
      <path id="DejaVuSansMono-72" d="M 1925 4750 
Q 2128 4750 2311 4673 
Q 2494 4597 2631 4453 
Q 2772 4313 2845 4134 
Q 2919 3956 2919 3750 
Q 2919 3338 2628 3052 
Q 2338 2766 1919 2766 
Q 1497 2766 1215 3047 
Q 934 3328 934 3750 
Q 934 4169 1221 4459 
Q 1509 4750 1925 4750 
z
M 1925 4347 
Q 1678 4347 1504 4173 
Q 1331 4000 1331 3750 
Q 1331 3500 1501 3331 
Q 1672 3163 1919 3163 
Q 2169 3163 2345 3334 
Q 2522 3506 2522 3750 
Q 2522 3997 2347 4172 
Q 2172 4347 1925 4347 
z
" transform="scale(0.015625)"/>
      <path id="DejaVuSansMono-f" d="M 1569 947 
L 2356 947 
L 2356 300 
L 1741 -897 
L 1259 -897 
L 1569 300 
L 1569 947 
z
" transform="scale(0.015625)"/>
      <path id="DejaVuSansMono-3" transform="scale(0.015625)"/>
      <path id="DejaVuSansMono-57" d="M 1919 4494 
L 1919 3500 
L 3225 3500 
L 3225 3053 
L 1919 3053 
L 1919 1153 
Q 1919 766 2066 612 
Q 2213 459 2578 459 
L 3225 459 
L 3225 0 
L 2522 0 
Q 1875 0 1609 259 
Q 1344 519 1344 1153 
L 1344 3053 
L 409 3053 
L 409 3500 
L 1344 3500 
L 1344 4494 
L 1919 4494 
z
" transform="scale(0.015625)"/>
      <path id="DejaVuSansMono-4b" d="M 3284 2169 
L 3284 0 
L 2706 0 
L 2706 2169 
Q 2706 2641 2540 2862 
Q 2375 3084 2022 3084 
Q 1619 3084 1401 2798 
Q 1184 2513 1184 1978 
L 1184 0 
L 609 0 
L 609 4863 
L 1184 4863 
L 1184 2975 
Q 1338 3275 1600 3429 
Q 1863 3584 2222 3584 
Q 2756 3584 3020 3232 
Q 3284 2881 3284 2169 
z
" transform="scale(0.015625)"/>
      <path id="DejaVuSansMono-48" d="M 3475 1894 
L 3475 1613 
L 984 1613 
L 984 1594 
Q 984 1022 1282 709 
Q 1581 397 2125 397 
Q 2400 397 2700 484 
Q 3000 572 3341 750 
L 3341 178 
Q 3013 44 2708 -23 
Q 2403 -91 2119 -91 
Q 1303 -91 843 398 
Q 384 888 384 1747 
Q 384 2584 834 3084 
Q 1284 3584 2034 3584 
Q 2703 3584 3089 3131 
Q 3475 2678 3475 1894 
z
M 2900 2063 
Q 2888 2569 2661 2833 
Q 2434 3097 2009 3097 
Q 1594 3097 1325 2822 
Q 1056 2547 1006 2059 
L 2900 2063 
z
" transform="scale(0.015625)"/>
      <path id="DejaVuSansMono-4f" d="M 1997 1269 
Q 1997 881 2139 684 
Q 2281 488 2559 488 
L 3231 488 
L 3231 0 
L 2503 0 
Q 1988 0 1705 331 
Q 1422 663 1422 1269 
L 1422 4447 
L 500 4447 
L 500 4897 
L 1997 4897 
L 1997 1269 
z
" transform="scale(0.015625)"/>
      <path id="DejaVuSansMono-52" d="M 1925 3097 
Q 1488 3097 1263 2756 
Q 1038 2416 1038 1747 
Q 1038 1081 1263 739 
Q 1488 397 1925 397 
Q 2366 397 2591 739 
Q 2816 1081 2816 1747 
Q 2816 2416 2591 2756 
Q 2366 3097 1925 3097 
z
M 1925 3584 
Q 2653 3584 3039 3112 
Q 3425 2641 3425 1747 
Q 3425 850 3040 379 
Q 2656 -91 1925 -91 
Q 1197 -91 812 379 
Q 428 850 428 1747 
Q 428 2641 812 3112 
Q 1197 3584 1925 3584 
z
" transform="scale(0.015625)"/>
      <path id="DejaVuSansMono-51" d="M 3284 2169 
L 3284 0 
L 2706 0 
L 2706 2169 
Q 2706 2641 2540 2862 
Q 2375 3084 2022 3084 
Q 1619 3084 1401 2798 
Q 1184 2513 1184 1978 
L 1184 0 
L 609 0 
L 609 3500 
L 1184 3500 
L 1184 2975 
Q 1338 3275 1600 3429 
Q 1863 3584 2222 3584 
Q 2756 3584 3020 3232 
Q 3284 2881 3284 2169 
z
" transform="scale(0.015625)"/>
      <path id="DejaVuSansMono-4a" d="M 2681 1778 
Q 2681 2425 2470 2761 
Q 2259 3097 1856 3097 
Q 1434 3097 1212 2761 
Q 991 2425 991 1778 
Q 991 1131 1214 792 
Q 1438 453 1863 453 
Q 2259 453 2470 793 
Q 2681 1134 2681 1778 
z
M 3256 225 
Q 3256 -563 2884 -969 
Q 2513 -1375 1791 -1375 
Q 1553 -1375 1293 -1331 
Q 1034 -1288 775 -1203 
L 775 -634 
Q 1081 -778 1331 -847 
Q 1581 -916 1791 -916 
Q 2256 -916 2468 -662 
Q 2681 -409 2681 141 
L 2681 166 
L 2681 556 
Q 2544 263 2306 119 
Q 2069 -25 1728 -25 
Q 1116 -25 750 465 
Q 384 956 384 1778 
Q 384 2603 750 3093 
Q 1116 3584 1728 3584 
Q 2066 3584 2300 3450 
Q 2534 3316 2681 3034 
L 2681 3488 
L 3256 3488 
L 3256 225 
z
" transform="scale(0.015625)"/>
      <path id="DejaVuSansMono-5a" d="M 0 3500 
L 569 3500 
L 1178 672 
L 1678 2478 
L 2169 2478 
L 2675 672 
L 3284 3500 
L 3853 3500 
L 3034 0 
L 2484 0 
L 1925 1919 
L 1369 0 
L 819 0 
L 0 3500 
z
" transform="scale(0.015625)"/>
      <path id="DejaVuSansMono-44" d="M 2194 1759 
L 2003 1759 
Q 1500 1759 1245 1582 
Q 991 1406 991 1056 
Q 991 741 1181 566 
Q 1372 391 1709 391 
Q 2184 391 2456 720 
Q 2728 1050 2731 1631 
L 2731 1759 
L 2194 1759 
z
M 3309 1997 
L 3309 0 
L 2731 0 
L 2731 519 
Q 2547 206 2267 57 
Q 1988 -91 1588 -91 
Q 1053 -91 734 211 
Q 416 513 416 1019 
Q 416 1603 808 1906 
Q 1200 2209 1959 2209 
L 2731 2209 
L 2731 2300 
Q 2728 2719 2518 2908 
Q 2309 3097 1850 3097 
Q 1556 3097 1256 3012 
Q 956 2928 672 2766 
L 672 3341 
Q 991 3463 1283 3523 
Q 1575 3584 1850 3584 
Q 2284 3584 2592 3456 
Q 2900 3328 3091 3072 
Q 3209 2916 3259 2686 
Q 3309 2456 3309 1997 
z
" transform="scale(0.015625)"/>
      <path id="DejaVuSansMono-5c" d="M 2681 1125 
Q 2538 759 2316 163 
Q 2006 -663 1900 -844 
Q 1756 -1088 1540 -1209 
Q 1325 -1331 1038 -1331 
L 575 -1331 
L 575 -850 
L 916 -850 
Q 1169 -850 1312 -703 
Q 1456 -556 1678 56 
L 325 3500 
L 934 3500 
L 1972 763 
L 2994 3500 
L 3603 3500 
L 2681 1125 
z
" transform="scale(0.015625)"/>
     </defs>
     <use xlink:href="#DejaVuSansMono-e"/>
     <use xlink:href="#DejaVuSansMono-16" transform="translate(60.203125 0)"/>
     <use xlink:href="#DejaVuSansMono-18" transform="translate(120.40625 0)"/>
     <use xlink:href="#DejaVuSansMono-13" transform="translate(180.609375 0)"/>
     <use xlink:href="#DejaVuSansMono-72" transform="translate(240.8125 0)"/>
     <use xlink:href="#DejaVuSansMono-f" transform="translate(301.015625 0)"/>
     <use xlink:href="#DejaVuSansMono-3" transform="translate(361.21875 0)"/>
     <use xlink:href="#DejaVuSansMono-57" transform="translate(421.421875 0)"/>
     <use xlink:href="#DejaVuSansMono-4b" transform="translate(481.625 0)"/>
     <use xlink:href="#DejaVuSansMono-48" transform="translate(541.828125 0)"/>
     <use xlink:href="#DejaVuSansMono-3" transform="translate(602.03125 0)"/>
     <use xlink:href="#DejaVuSansMono-4f" transform="translate(662.234375 0)"/>
     <use xlink:href="#DejaVuSansMono-52" transform="translate(722.4375 0)"/>
     <use xlink:href="#DejaVuSansMono-51" transform="translate(782.640625 0)"/>
     <use xlink:href="#DejaVuSansMono-4a" transform="translate(842.84375 0)"/>
     <use xlink:href="#DejaVuSansMono-3" transform="translate(903.046875 0)"/>
     <use xlink:href="#DejaVuSansMono-5a" transform="translate(963.25 0)"/>
     <use xlink:href="#DejaVuSansMono-44" transform="translate(1023.453125 0)"/>
     <use xlink:href="#DejaVuSansMono-5c" transform="translate(1083.65625 0)"/>
    </g>
   </g>
   <g id="text_4">
    <!-- -10° -->
    <g style="fill: #e05555" transform="translate(248.003828 126.786891) scale(0.1 -0.1)">
     <defs>
      <path id="DejaVuSansMono-10" d="M 1113 2009 
L 2741 2009 
L 2741 1497 
L 1113 1497 
L 1113 2009 
z
" transform="scale(0.015625)"/>
      <path id="DejaVuSansMono-14" d="M 844 531 
L 1825 531 
L 1825 4097 
L 769 3859 
L 769 4434 
L 1819 4666 
L 2450 4666 
L 2450 531 
L 3419 531 
L 3419 0 
L 844 0 
L 844 531 
z
" transform="scale(0.015625)"/>
     </defs>
     <use xlink:href="#DejaVuSansMono-10"/>
     <use xlink:href="#DejaVuSansMono-14" transform="translate(60.203125 0)"/>
     <use xlink:href="#DejaVuSansMono-13" transform="translate(120.40625 0)"/>
     <use xlink:href="#DejaVuSansMono-72" transform="translate(180.609375 0)"/>
    </g>
   </g>
  </g>
  <g id="axes_2">
   <g id="patch_4">
    <path d="M 376.453876 147.086032 
C 376.193744 150.059347 376.063493 153.042599 376.063493 156.027273 
C 376.063493 159.011946 376.193744 161.995198 376.453876 164.968514 
L 478.652727 156.027273 
z
" clip-path="url(#p25d471e615)" style="fill: #f4c7c7; stroke: #f4c7c7; stroke-linejoin: miter"/>
   </g>
   <g id="line2d_5">
    <path d="M 478.652727 156.027273 
L 377.622054 138.212839 
" clip-path="url(#p25d471e615)" style="fill: none; stroke: #b9d3ea; stroke-width: 5; stroke-linecap: round"/>
   </g>
   <g id="line2d_6">
    <path d="M 478.652727 156.027273 
L 377.622054 173.841706 
" clip-path="url(#p25d471e615)" style="fill: none; stroke: #3b82c4; stroke-width: 5; stroke-linecap: round"/>
   </g>
   <g id="patch_5">
    <path d="M 405.492584 143.127166 
C 404.741611 147.38615 404.363971 151.702587 404.363971 156.027273 
C 404.363971 160.351958 404.741611 164.668396 405.492584 168.92738 
" clip-path="url(#p25d471e615)" style="fill: none; stroke-dasharray: 6,4; stroke-dashoffset: 0; stroke: #e05555; stroke-width: 2; stroke-linejoin: miter"/>
   </g>
   <g id="patch_6">
    <path d="M 429.879299 164.627344 
C 430.945541 170.674307 433.127105 176.470583 436.312501 181.719953 
C 439.497897 186.969323 443.631922 191.580816 448.503308 195.318761 
C 453.374693 199.056707 458.899018 201.856326 464.793961 203.574546 
C 470.688904 205.292765 476.852307 205.899807 482.969188 205.364649 
C 489.08607 204.829491 495.050425 203.161408 500.557445 200.445646 
C 506.064465 197.729884 511.018714 194.013509 515.167005 189.486443 
C 519.315296 184.959378 522.585738 179.700079 524.811197 173.97732 
C 527.036657 168.254561 528.178565 162.16752 528.178565 156.027273 
C 528.178565 149.887026 527.036657 143.799984 524.811197 138.077225 
C 522.585738 132.354467 519.315296 127.095167 515.167005 122.568102 
C 511.018714 118.041037 506.064465 114.324661 500.557445 111.608899 
C 495.050425 108.893137 489.08607 107.225054 482.969188 106.689896 
C 476.852307 106.154738 470.688904 106.761781 464.793961 108.48 
C 458.899018 110.198219 453.374693 112.997839 448.503308 116.735784 
C 443.631922 120.47373 439.497897 125.085223 436.312501 130.334593 
C 433.127105 135.583963 430.945541 141.380238 429.879299 147.427201 
" clip-path="url(#p25d471e615)" style="fill: none; stroke: #2a9d3f; stroke-width: 2.2; stroke-linejoin: miter"/>
   </g>
   <g id="text_5">
    <!-- A joint limit forces the long way -->
    <g style="fill: #222222" transform="translate(361.64968 32.212679) scale(0.13 -0.13)">
     <defs>
      <path id="DejaVuSans-Bold-24" d="M 3419 850 
L 1538 850 
L 1241 0 
L 31 0 
L 1759 4666 
L 3194 4666 
L 4922 0 
L 3713 0 
L 3419 850 
z
M 1838 1716 
L 3116 1716 
L 2478 3572 
L 1838 1716 
z
" transform="scale(0.015625)"/>
      <path id="DejaVuSans-Bold-4d" d="M 538 3500 
L 1656 3500 
L 1656 63 
Q 1656 -641 1318 -1011 
Q 981 -1381 341 -1381 
L -213 -1381 
L -213 -647 
L -19 -647 
Q 300 -647 419 -503 
Q 538 -359 538 63 
L 538 3500 
z
M 538 4863 
L 1656 4863 
L 1656 3950 
L 538 3950 
L 538 4863 
z
" transform="scale(0.015625)"/>
      <path id="DejaVuSans-Bold-4f" d="M 538 4863 
L 1656 4863 
L 1656 0 
L 538 0 
L 538 4863 
z
" transform="scale(0.015625)"/>
      <path id="DejaVuSans-Bold-49" d="M 2841 4863 
L 2841 4128 
L 2222 4128 
Q 1984 4128 1890 4042 
Q 1797 3956 1797 3744 
L 1797 3500 
L 2753 3500 
L 2753 2700 
L 1797 2700 
L 1797 0 
L 678 0 
L 678 2700 
L 122 2700 
L 122 3500 
L 678 3500 
L 678 3744 
Q 678 4316 997 4589 
Q 1316 4863 1984 4863 
L 2841 4863 
z
" transform="scale(0.015625)"/>
      <path id="DejaVuSans-Bold-4b" d="M 4056 2131 
L 4056 0 
L 2931 0 
L 2931 347 
L 2931 1625 
Q 2931 2084 2911 2256 
Q 2891 2428 2841 2509 
Q 2775 2619 2662 2680 
Q 2550 2741 2406 2741 
Q 2056 2741 1856 2470 
Q 1656 2200 1656 1722 
L 1656 0 
L 538 0 
L 538 4863 
L 1656 4863 
L 1656 2988 
Q 1909 3294 2193 3439 
Q 2478 3584 2822 3584 
Q 3428 3584 3742 3212 
Q 4056 2841 4056 2131 
z
" transform="scale(0.015625)"/>
      <path id="DejaVuSans-Bold-4a" d="M 2919 594 
Q 2688 288 2409 144 
Q 2131 0 1766 0 
Q 1125 0 706 504 
Q 288 1009 288 1791 
Q 288 2575 706 3076 
Q 1125 3578 1766 3578 
Q 2131 3578 2409 3434 
Q 2688 3291 2919 2981 
L 2919 3500 
L 4044 3500 
L 4044 353 
Q 4044 -491 3511 -936 
Q 2978 -1381 1966 -1381 
Q 1638 -1381 1331 -1331 
Q 1025 -1281 716 -1178 
L 716 -306 
Q 1009 -475 1290 -558 
Q 1572 -641 1856 -641 
Q 2406 -641 2662 -400 
Q 2919 -159 2919 353 
L 2919 594 
z
M 2181 2772 
Q 1834 2772 1640 2515 
Q 1447 2259 1447 1791 
Q 1447 1309 1634 1061 
Q 1822 813 2181 813 
Q 2531 813 2725 1069 
Q 2919 1325 2919 1791 
Q 2919 2259 2725 2515 
Q 2531 2772 2181 2772 
z
" transform="scale(0.015625)"/>
      <path id="DejaVuSans-Bold-44" d="M 2106 1575 
Q 1756 1575 1579 1456 
Q 1403 1338 1403 1106 
Q 1403 894 1545 773 
Q 1688 653 1941 653 
Q 2256 653 2472 879 
Q 2688 1106 2688 1447 
L 2688 1575 
L 2106 1575 
z
M 3816 1997 
L 3816 0 
L 2688 0 
L 2688 519 
Q 2463 200 2181 54 
Q 1900 -91 1497 -91 
Q 953 -91 614 226 
Q 275 544 275 1050 
Q 275 1666 698 1953 
Q 1122 2241 2028 2241 
L 2688 2241 
L 2688 2328 
Q 2688 2594 2478 2717 
Q 2269 2841 1825 2841 
Q 1466 2841 1156 2769 
Q 847 2697 581 2553 
L 581 3406 
Q 941 3494 1303 3539 
Q 1666 3584 2028 3584 
Q 2975 3584 3395 3211 
Q 3816 2838 3816 1997 
z
" transform="scale(0.015625)"/>
      <path id="DejaVuSans-Bold-5c" d="M 78 3500 
L 1197 3500 
L 2138 1125 
L 2938 3500 
L 4056 3500 
L 2584 -331 
Q 2363 -916 2067 -1148 
Q 1772 -1381 1288 -1381 
L 641 -1381 
L 641 -647 
L 991 -647 
Q 1275 -647 1404 -556 
Q 1534 -466 1606 -231 
L 1638 -134 
L 78 3500 
z
" transform="scale(0.015625)"/>
     </defs>
     <use xlink:href="#DejaVuSans-Bold-24"/>
     <use xlink:href="#DejaVuSans-Bold-3" transform="translate(77.390625 0)"/>
     <use xlink:href="#DejaVuSans-Bold-4d" transform="translate(112.203125 0)"/>
     <use xlink:href="#DejaVuSans-Bold-52" transform="translate(146.484375 0)"/>
     <use xlink:href="#DejaVuSans-Bold-4c" transform="translate(215.1875 0)"/>
     <use xlink:href="#DejaVuSans-Bold-51" transform="translate(249.46875 0)"/>
     <use xlink:href="#DejaVuSans-Bold-57" transform="translate(320.65625 0)"/>
     <use xlink:href="#DejaVuSans-Bold-3" transform="translate(368.453125 0)"/>
     <use xlink:href="#DejaVuSans-Bold-4f" transform="translate(403.265625 0)"/>
     <use xlink:href="#DejaVuSans-Bold-4c" transform="translate(437.546875 0)"/>
     <use xlink:href="#DejaVuSans-Bold-50" transform="translate(471.828125 0)"/>
     <use xlink:href="#DejaVuSans-Bold-4c" transform="translate(576.03125 0)"/>
     <use xlink:href="#DejaVuSans-Bold-57" transform="translate(610.3125 0)"/>
     <use xlink:href="#DejaVuSans-Bold-3" transform="translate(658.109375 0)"/>
     <use xlink:href="#DejaVuSans-Bold-49" transform="translate(692.921875 0)"/>
     <use xlink:href="#DejaVuSans-Bold-52" transform="translate(736.421875 0)"/>
     <use xlink:href="#DejaVuSans-Bold-55" transform="translate(805.125 0)"/>
     <use xlink:href="#DejaVuSans-Bold-46" transform="translate(854.4375 0)"/>
     <use xlink:href="#DejaVuSans-Bold-48" transform="translate(913.71875 0)"/>
     <use xlink:href="#DejaVuSans-Bold-56" transform="translate(981.546875 0)"/>
     <use xlink:href="#DejaVuSans-Bold-3" transform="translate(1041.0625 0)"/>
     <use xlink:href="#DejaVuSans-Bold-57" transform="translate(1075.875 0)"/>
     <use xlink:href="#DejaVuSans-Bold-4b" transform="translate(1123.671875 0)"/>
     <use xlink:href="#DejaVuSans-Bold-48" transform="translate(1194.859375 0)"/>
     <use xlink:href="#DejaVuSans-Bold-3" transform="translate(1262.6875 0)"/>
     <use xlink:href="#DejaVuSans-Bold-4f" transform="translate(1297.5 0)"/>
     <use xlink:href="#DejaVuSans-Bold-52" transform="translate(1331.78125 0)"/>
     <use xlink:href="#DejaVuSans-Bold-51" transform="translate(1400.484375 0)"/>
     <use xlink:href="#DejaVuSans-Bold-4a" transform="translate(1471.671875 0)"/>
     <use xlink:href="#DejaVuSans-Bold-3" transform="translate(1543.25 0)"/>
     <use xlink:href="#DejaVuSans-Bold-5a" transform="translate(1578.0625 0)"/>
     <use xlink:href="#DejaVuSans-Bold-44" transform="translate(1670.453125 0)"/>
     <use xlink:href="#DejaVuSans-Bold-5c" transform="translate(1734.859375 0)"/>
    </g>
   </g>
   <g id="text_6">
    <!-- the short turn would pass through 180° -->
    <g style="fill: #777777" transform="translate(379.781634 283.379426) scale(0.1 -0.1)">
     <defs>
      <path id="DejaVuSans-52" d="M 1959 3097 
Q 1497 3097 1228 2736 
Q 959 2375 959 1747 
Q 959 1119 1226 758 
Q 1494 397 1959 397 
Q 2419 397 2687 759 
Q 2956 1122 2956 1747 
Q 2956 2369 2687 2733 
Q 2419 3097 1959 3097 
z
M 1959 3584 
Q 2709 3584 3137 3096 
Q 3566 2609 3566 1747 
Q 3566 888 3137 398 
Q 2709 -91 1959 -91 
Q 1206 -91 779 398 
Q 353 888 353 1747 
Q 353 2609 779 3096 
Q 1206 3584 1959 3584 
z
" transform="scale(0.015625)"/>
      <path id="DejaVuSans-58" d="M 544 1381 
L 544 3500 
L 1119 3500 
L 1119 1403 
Q 1119 906 1312 657 
Q 1506 409 1894 409 
Q 2359 409 2629 706 
Q 2900 1003 2900 1516 
L 2900 3500 
L 3475 3500 
L 3475 0 
L 2900 0 
L 2900 538 
Q 2691 219 2414 64 
Q 2138 -91 1772 -91 
Q 1169 -91 856 284 
Q 544 659 544 1381 
z
M 1991 3584 
L 1991 3584 
z
" transform="scale(0.015625)"/>
      <path id="DejaVuSans-4a" d="M 2906 1791 
Q 2906 2416 2648 2759 
Q 2391 3103 1925 3103 
Q 1463 3103 1205 2759 
Q 947 2416 947 1791 
Q 947 1169 1205 825 
Q 1463 481 1925 481 
Q 2391 481 2648 825 
Q 2906 1169 2906 1791 
z
M 3481 434 
Q 3481 -459 3084 -895 
Q 2688 -1331 1869 -1331 
Q 1566 -1331 1297 -1286 
Q 1028 -1241 775 -1147 
L 775 -588 
Q 1028 -725 1275 -790 
Q 1522 -856 1778 -856 
Q 2344 -856 2625 -561 
Q 2906 -266 2906 331 
L 2906 616 
Q 2728 306 2450 153 
Q 2172 0 1784 0 
Q 1141 0 747 490 
Q 353 981 353 1791 
Q 353 2603 747 3093 
Q 1141 3584 1784 3584 
Q 2172 3584 2450 3431 
Q 2728 3278 2906 2969 
L 2906 3500 
L 3481 3500 
L 3481 434 
z
" transform="scale(0.015625)"/>
      <path id="DejaVuSans-14" d="M 794 531 
L 1825 531 
L 1825 4091 
L 703 3866 
L 703 4441 
L 1819 4666 
L 2450 4666 
L 2450 531 
L 3481 531 
L 3481 0 
L 794 0 
L 794 531 
z
" transform="scale(0.015625)"/>
      <path id="DejaVuSans-1b" d="M 2034 2216 
Q 1584 2216 1326 1975 
Q 1069 1734 1069 1313 
Q 1069 891 1326 650 
Q 1584 409 2034 409 
Q 2484 409 2743 651 
Q 3003 894 3003 1313 
Q 3003 1734 2745 1975 
Q 2488 2216 2034 2216 
z
M 1403 2484 
Q 997 2584 770 2862 
Q 544 3141 544 3541 
Q 544 4100 942 4425 
Q 1341 4750 2034 4750 
Q 2731 4750 3128 4425 
Q 3525 4100 3525 3541 
Q 3525 3141 3298 2862 
Q 3072 2584 2669 2484 
Q 3125 2378 3379 2068 
Q 3634 1759 3634 1313 
Q 3634 634 3220 271 
Q 2806 -91 2034 -91 
Q 1263 -91 848 271 
Q 434 634 434 1313 
Q 434 1759 690 2068 
Q 947 2378 1403 2484 
z
M 1172 3481 
Q 1172 3119 1398 2916 
Q 1625 2713 2034 2713 
Q 2441 2713 2670 2916 
Q 2900 3119 2900 3481 
Q 2900 3844 2670 4047 
Q 2441 4250 2034 4250 
Q 1625 4250 1398 4047 
Q 1172 3844 1172 3481 
z
" transform="scale(0.015625)"/>
      <path id="DejaVuSans-13" d="M 2034 4250 
Q 1547 4250 1301 3770 
Q 1056 3291 1056 2328 
Q 1056 1369 1301 889 
Q 1547 409 2034 409 
Q 2525 409 2770 889 
Q 3016 1369 3016 2328 
Q 3016 3291 2770 3770 
Q 2525 4250 2034 4250 
z
M 2034 4750 
Q 2819 4750 3233 4129 
Q 3647 3509 3647 2328 
Q 3647 1150 3233 529 
Q 2819 -91 2034 -91 
Q 1250 -91 836 529 
Q 422 1150 422 2328 
Q 422 3509 836 4129 
Q 1250 4750 2034 4750 
z
" transform="scale(0.015625)"/>
      <path id="DejaVuSans-72" d="M 1600 4347 
Q 1350 4347 1178 4173 
Q 1006 4000 1006 3750 
Q 1006 3503 1178 3333 
Q 1350 3163 1600 3163 
Q 1850 3163 2022 3333 
Q 2194 3503 2194 3750 
Q 2194 3997 2020 4172 
Q 1847 4347 1600 4347 
z
M 1600 4750 
Q 1800 4750 1984 4673 
Q 2169 4597 2303 4453 
Q 2447 4313 2519 4134 
Q 2591 3956 2591 3750 
Q 2591 3338 2302 3052 
Q 2013 2766 1594 2766 
Q 1172 2766 890 3047 
Q 609 3328 609 3750 
Q 609 4169 896 4459 
Q 1184 4750 1600 4750 
z
" transform="scale(0.015625)"/>
     </defs>
     <use xlink:href="#DejaVuSans-57"/>
     <use xlink:href="#DejaVuSans-4b" transform="translate(39.203125 0)"/>
     <use xlink:href="#DejaVuSans-48" transform="translate(102.578125 0)"/>
     <use xlink:href="#DejaVuSans-3" transform="translate(164.109375 0)"/>
     <use xlink:href="#DejaVuSans-56" transform="translate(195.890625 0)"/>
     <use xlink:href="#DejaVuSans-4b" transform="translate(247.984375 0)"/>
     <use xlink:href="#DejaVuSans-52" transform="translate(311.359375 0)"/>
     <use xlink:href="#DejaVuSans-55" transform="translate(372.546875 0)"/>
     <use xlink:href="#DejaVuSans-57" transform="translate(413.65625 0)"/>
     <use xlink:href="#DejaVuSans-3" transform="translate(452.859375 0)"/>
     <use xlink:href="#DejaVuSans-57" transform="translate(484.640625 0)"/>
     <use xlink:href="#DejaVuSans-58" transform="translate(523.84375 0)"/>
     <use xlink:href="#DejaVuSans-55" transform="translate(587.21875 0)"/>
     <use xlink:href="#DejaVuSans-51" transform="translate(626.578125 0)"/>
     <use xlink:href="#DejaVuSans-3" transform="translate(689.953125 0)"/>
     <use xlink:href="#DejaVuSans-5a" transform="translate(721.734375 0)"/>
     <use xlink:href="#DejaVuSans-52" transform="translate(803.515625 0)"/>
     <use xlink:href="#DejaVuSans-58" transform="translate(864.703125 0)"/>
     <use xlink:href="#DejaVuSans-4f" transform="translate(928.078125 0)"/>
     <use xlink:href="#DejaVuSans-47" transform="translate(955.859375 0)"/>
     <use xlink:href="#DejaVuSans-3" transform="translate(1019.34375 0)"/>
     <use xlink:href="#DejaVuSans-53" transform="translate(1051.125 0)"/>
     <use xlink:href="#DejaVuSans-44" transform="translate(1114.609375 0)"/>
     <use xlink:href="#DejaVuSans-56" transform="translate(1175.890625 0)"/>
     <use xlink:href="#DejaVuSans-56" transform="translate(1227.984375 0)"/>
     <use xlink:href="#DejaVuSans-3" transform="translate(1280.078125 0)"/>
     <use xlink:href="#DejaVuSans-57" transform="translate(1311.859375 0)"/>
     <use xlink:href="#DejaVuSans-4b" transform="translate(1351.0625 0)"/>
     <use xlink:href="#DejaVuSans-55" transform="translate(1414.4375 0)"/>
     <use xlink:href="#DejaVuSans-52" transform="translate(1453.34375 0)"/>
     <use xlink:href="#DejaVuSans-58" transform="translate(1514.53125 0)"/>
     <use xlink:href="#DejaVuSans-4a" transform="translate(1577.90625 0)"/>
     <use xlink:href="#DejaVuSans-4b" transform="translate(1641.390625 0)"/>
     <use xlink:href="#DejaVuSans-3" transform="translate(1704.765625 0)"/>
     <use xlink:href="#DejaVuSans-14" transform="translate(1736.546875 0)"/>
     <use xlink:href="#DejaVuSans-1b" transform="translate(1800.171875 0)"/>
     <use xlink:href="#DejaVuSans-13" transform="translate(1863.796875 0)"/>
     <use xlink:href="#DejaVuSans-72" transform="translate(1927.421875 0)"/>
    </g>
   </g>
   <g id="line2d_7">
    <g clip-path="url(#p25d471e615)">
     <use xlink:href="#m57e71bba0d" x="478.652727" y="156.027273" style="fill: #f0a500; stroke: #f0a500"/>
    </g>
   </g>
   <g id="text_7">
    <!-- no-go past ±175°: -->
    <g style="fill: #e05555" transform="translate(273.340032 147.538796) scale(0.09 -0.09)">
     <defs>
      <path id="DejaVuSansMono-53" d="M 1172 441 
L 1172 -1331 
L 594 -1331 
L 594 3500 
L 1172 3500 
L 1172 3053 
Q 1316 3313 1555 3448 
Q 1794 3584 2106 3584 
Q 2741 3584 3102 3093 
Q 3463 2603 3463 1734 
Q 3463 881 3100 395 
Q 2738 -91 2106 -91 
Q 1788 -91 1548 45 
Q 1309 181 1172 441 
z
M 2859 1747 
Q 2859 2416 2648 2756 
Q 2438 3097 2022 3097 
Q 1603 3097 1387 2755 
Q 1172 2413 1172 1747 
Q 1172 1084 1387 740 
Q 1603 397 2022 397 
Q 2438 397 2648 737 
Q 2859 1078 2859 1747 
z
" transform="scale(0.015625)"/>
      <path id="DejaVuSansMono-56" d="M 3041 3378 
L 3041 2816 
Q 2794 2959 2544 3031 
Q 2294 3103 2034 3103 
Q 1644 3103 1451 2976 
Q 1259 2850 1259 2591 
Q 1259 2356 1403 2240 
Q 1547 2125 2119 2016 
L 2350 1972 
Q 2778 1891 2998 1647 
Q 3219 1403 3219 1013 
Q 3219 494 2850 201 
Q 2481 -91 1825 -91 
Q 1566 -91 1281 -36 
Q 997 19 666 128 
L 666 722 
Q 988 556 1281 473 
Q 1575 391 1838 391 
Q 2219 391 2428 545 
Q 2638 700 2638 978 
Q 2638 1378 1872 1531 
L 1847 1538 
L 1631 1581 
Q 1134 1678 906 1908 
Q 678 2138 678 2534 
Q 678 3038 1018 3311 
Q 1359 3584 1991 3584 
Q 2272 3584 2531 3532 
Q 2791 3481 3041 3378 
z
" transform="scale(0.015625)"/>
      <path id="DejaVuSansMono-73" d="M 275 531 
L 3578 531 
L 3578 0 
L 275 0 
L 275 531 
z
M 2188 3659 
L 2188 2631 
L 3578 2631 
L 3578 2100 
L 2188 2100 
L 2188 1063 
L 1663 1063 
L 1663 2100 
L 275 2100 
L 275 2631 
L 1663 2631 
L 1663 3659 
L 2188 3659 
z
" transform="scale(0.015625)"/>
      <path id="DejaVuSansMono-1a" d="M 434 4666 
L 3372 4666 
L 3372 4397 
L 1703 0 
L 1044 0 
L 2669 4134 
L 434 4134 
L 434 4666 
z
" transform="scale(0.015625)"/>
      <path id="DejaVuSansMono-1d" d="M 1528 3322 
L 2316 3322 
L 2316 2375 
L 1528 2375 
L 1528 3322 
z
M 1528 953 
L 2316 953 
L 2316 0 
L 1528 0 
L 1528 953 
z
" transform="scale(0.015625)"/>
     </defs>
     <use xlink:href="#DejaVuSansMono-51"/>
     <use xlink:href="#DejaVuSansMono-52" transform="translate(60.203125 0)"/>
     <use xlink:href="#DejaVuSansMono-10" transform="translate(120.40625 0)"/>
     <use xlink:href="#DejaVuSansMono-4a" transform="translate(180.609375 0)"/>
     <use xlink:href="#DejaVuSansMono-52" transform="translate(240.8125 0)"/>
     <use xlink:href="#DejaVuSansMono-3" transform="translate(301.015625 0)"/>
     <use xlink:href="#DejaVuSansMono-53" transform="translate(361.21875 0)"/>
     <use xlink:href="#DejaVuSansMono-44" transform="translate(421.421875 0)"/>
     <use xlink:href="#DejaVuSansMono-56" transform="translate(481.625 0)"/>
     <use xlink:href="#DejaVuSansMono-57" transform="translate(541.828125 0)"/>
     <use xlink:href="#DejaVuSansMono-3" transform="translate(602.03125 0)"/>
     <use xlink:href="#DejaVuSansMono-73" transform="translate(662.234375 0)"/>
     <use xlink:href="#DejaVuSansMono-14" transform="translate(722.4375 0)"/>
     <use xlink:href="#DejaVuSansMono-1a" transform="translate(782.640625 0)"/>
     <use xlink:href="#DejaVuSansMono-18" transform="translate(842.84375 0)"/>
     <use xlink:href="#DejaVuSansMono-72" transform="translate(903.046875 0)"/>
     <use xlink:href="#DejaVuSansMono-1d" transform="translate(963.25 0)"/>
    </g>
    <!-- the +20° turn -->
    <g style="fill: #e05555" transform="translate(295.013157 158.341257) scale(0.09 -0.09)">
     <defs>
      <path id="DejaVuSansMono-15" d="M 1166 531 
L 3309 531 
L 3309 0 
L 475 0 
L 475 531 
Q 1059 1147 1496 1619 
Q 1934 2091 2100 2284 
Q 2413 2666 2522 2902 
Q 2631 3138 2631 3384 
Q 2631 3775 2401 3997 
Q 2172 4219 1772 4219 
Q 1488 4219 1175 4116 
Q 863 4013 513 3803 
L 513 4441 
Q 834 4594 1145 4672 
Q 1456 4750 1759 4750 
Q 2444 4750 2861 4386 
Q 3278 4022 3278 3431 
Q 3278 3131 3139 2831 
Q 3000 2531 2688 2169 
Q 2513 1966 2180 1606 
Q 1847 1247 1166 531 
z
" transform="scale(0.015625)"/>
      <path id="DejaVuSansMono-58" d="M 609 1325 
L 609 3494 
L 1184 3494 
L 1184 1325 
Q 1184 853 1351 631 
Q 1519 409 1869 409 
Q 2275 409 2490 695 
Q 2706 981 2706 1516 
L 2706 3494 
L 3284 3494 
L 3284 0 
L 2706 0 
L 2706 525 
Q 2553 222 2289 65 
Q 2025 -91 1672 -91 
Q 1134 -91 871 261 
Q 609 613 609 1325 
z
" transform="scale(0.015625)"/>
      <path id="DejaVuSansMono-55" d="M 3609 2778 
Q 3425 2922 3234 2987 
Q 3044 3053 2816 3053 
Q 2278 3053 1993 2715 
Q 1709 2378 1709 1741 
L 1709 0 
L 1131 0 
L 1131 3500 
L 1709 3500 
L 1709 2816 
Q 1853 3188 2151 3386 
Q 2450 3584 2859 3584 
Q 3072 3584 3256 3531 
Q 3441 3478 3609 3366 
L 3609 2778 
z
" transform="scale(0.015625)"/>
     </defs>
     <use xlink:href="#DejaVuSansMono-57"/>
     <use xlink:href="#DejaVuSansMono-4b" transform="translate(60.203125 0)"/>
     <use xlink:href="#DejaVuSansMono-48" transform="translate(120.40625 0)"/>
     <use xlink:href="#DejaVuSansMono-3" transform="translate(180.609375 0)"/>
     <use xlink:href="#DejaVuSansMono-e" transform="translate(240.8125 0)"/>
     <use xlink:href="#DejaVuSansMono-15" transform="translate(301.015625 0)"/>
     <use xlink:href="#DejaVuSansMono-13" transform="translate(361.21875 0)"/>
     <use xlink:href="#DejaVuSansMono-72" transform="translate(421.421875 0)"/>
     <use xlink:href="#DejaVuSansMono-3" transform="translate(481.625 0)"/>
     <use xlink:href="#DejaVuSansMono-57" transform="translate(541.828125 0)"/>
     <use xlink:href="#DejaVuSansMono-58" transform="translate(602.03125 0)"/>
     <use xlink:href="#DejaVuSansMono-55" transform="translate(662.234375 0)"/>
     <use xlink:href="#DejaVuSansMono-51" transform="translate(722.4375 0)"/>
    </g>
    <!-- is blocked -->
    <g style="fill: #e05555" transform="translate(311.268001 169.191531) scale(0.09 -0.09)">
     <defs>
      <path id="DejaVuSansMono-4c" d="M 800 3500 
L 2272 3500 
L 2272 447 
L 3413 447 
L 3413 0 
L 556 0 
L 556 447 
L 1697 447 
L 1697 3053 
L 800 3053 
L 800 3500 
z
M 1697 4863 
L 2272 4863 
L 2272 4134 
L 1697 4134 
L 1697 4863 
z
" transform="scale(0.015625)"/>
      <path id="DejaVuSansMono-45" d="M 2869 1747 
Q 2869 2416 2656 2756 
Q 2444 3097 2028 3097 
Q 1609 3097 1393 2755 
Q 1178 2413 1178 1747 
Q 1178 1084 1393 740 
Q 1609 397 2028 397 
Q 2444 397 2656 737 
Q 2869 1078 2869 1747 
z
M 1178 3053 
Q 1316 3309 1558 3446 
Q 1800 3584 2119 3584 
Q 2750 3584 3112 3098 
Q 3475 2613 3475 1759 
Q 3475 894 3111 401 
Q 2747 -91 2113 -91 
Q 1800 -91 1561 45 
Q 1322 181 1178 441 
L 1178 0 
L 603 0 
L 603 4863 
L 1178 4863 
L 1178 3053 
z
" transform="scale(0.015625)"/>
      <path id="DejaVuSansMono-46" d="M 3316 178 
Q 3084 44 2839 -23 
Q 2594 -91 2338 -91 
Q 1525 -91 1067 396 
Q 609 884 609 1747 
Q 609 2609 1067 3096 
Q 1525 3584 2338 3584 
Q 2591 3584 2831 3518 
Q 3072 3453 3316 3316 
L 3316 2713 
Q 3088 2916 2858 3006 
Q 2628 3097 2338 3097 
Q 1797 3097 1506 2747 
Q 1216 2397 1216 1747 
Q 1216 1100 1508 748 
Q 1800 397 2338 397 
Q 2638 397 2875 489 
Q 3113 581 3316 775 
L 3316 178 
z
" transform="scale(0.015625)"/>
      <path id="DejaVuSansMono-4e" d="M 738 4863 
L 1331 4863 
L 1331 2047 
L 2841 3500 
L 3541 3500 
L 2163 2181 
L 3756 0 
L 3053 0 
L 1759 1806 
L 1331 1403 
L 1331 0 
L 738 0 
L 738 4863 
z
" transform="scale(0.015625)"/>
      <path id="DejaVuSansMono-47" d="M 2681 3053 
L 2681 4863 
L 3256 4863 
L 3256 0 
L 2681 0 
L 2681 441 
Q 2538 181 2298 45 
Q 2059 -91 1747 -91 
Q 1113 -91 748 401 
Q 384 894 384 1759 
Q 384 2613 750 3098 
Q 1116 3584 1747 3584 
Q 2063 3584 2303 3448 
Q 2544 3313 2681 3053 
z
M 991 1747 
Q 991 1078 1203 737 
Q 1416 397 1831 397 
Q 2247 397 2464 740 
Q 2681 1084 2681 1747 
Q 2681 2413 2464 2755 
Q 2247 3097 1831 3097 
Q 1416 3097 1203 2756 
Q 991 2416 991 1747 
z
" transform="scale(0.015625)"/>
     </defs>
     <use xlink:href="#DejaVuSansMono-4c"/>
     <use xlink:href="#DejaVuSansMono-56" transform="translate(60.203125 0)"/>
     <use xlink:href="#DejaVuSansMono-3" transform="translate(120.40625 0)"/>
     <use xlink:href="#DejaVuSansMono-45" transform="translate(180.609375 0)"/>
     <use xlink:href="#DejaVuSansMono-4f" transform="translate(240.8125 0)"/>
     <use xlink:href="#DejaVuSansMono-52" transform="translate(301.015625 0)"/>
     <use xlink:href="#DejaVuSansMono-46" transform="translate(361.21875 0)"/>
     <use xlink:href="#DejaVuSansMono-4e" transform="translate(421.421875 0)"/>
     <use xlink:href="#DejaVuSansMono-48" transform="translate(481.625 0)"/>
     <use xlink:href="#DejaVuSansMono-47" transform="translate(541.828125 0)"/>
    </g>
   </g>
   <g id="text_8">
    <!-- start 170° -->
    <g style="fill: #777777" transform="translate(339.568479 114.499422) scale(0.09 -0.09)">
     <use xlink:href="#DejaVuSansMono-56"/>
     <use xlink:href="#DejaVuSansMono-57" transform="translate(60.203125 0)"/>
     <use xlink:href="#DejaVuSansMono-44" transform="translate(120.40625 0)"/>
     <use xlink:href="#DejaVuSansMono-55" transform="translate(180.609375 0)"/>
     <use xlink:href="#DejaVuSansMono-57" transform="translate(240.8125 0)"/>
     <use xlink:href="#DejaVuSansMono-3" transform="translate(301.015625 0)"/>
     <use xlink:href="#DejaVuSansMono-14" transform="translate(361.21875 0)"/>
     <use xlink:href="#DejaVuSansMono-1a" transform="translate(421.421875 0)"/>
     <use xlink:href="#DejaVuSansMono-13" transform="translate(481.625 0)"/>
     <use xlink:href="#DejaVuSansMono-72" transform="translate(541.828125 0)"/>
    </g>
   </g>
   <g id="text_9">
    <!-- goal -170° -->
    <g style="fill: #3b82c4" transform="translate(339.568479 202.255163) scale(0.09 -0.09)">
     <use xlink:href="#DejaVuSansMono-4a"/>
     <use xlink:href="#DejaVuSansMono-52" transform="translate(60.203125 0)"/>
     <use xlink:href="#DejaVuSansMono-44" transform="translate(120.40625 0)"/>
     <use xlink:href="#DejaVuSansMono-4f" transform="translate(180.609375 0)"/>
     <use xlink:href="#DejaVuSansMono-3" transform="translate(240.8125 0)"/>
     <use xlink:href="#DejaVuSansMono-10" transform="translate(301.015625 0)"/>
     <use xlink:href="#DejaVuSansMono-14" transform="translate(361.21875 0)"/>
     <use xlink:href="#DejaVuSansMono-1a" transform="translate(421.421875 0)"/>
     <use xlink:href="#DejaVuSansMono-13" transform="translate(481.625 0)"/>
     <use xlink:href="#DejaVuSansMono-72" transform="translate(541.828125 0)"/>
    </g>
   </g>
   <g id="text_10">
    <!-- -340°: allowed -->
    <g style="fill: #2a9d3f" transform="translate(542.328804 222.065498) scale(0.09 -0.09)">
     <defs>
      <path id="DejaVuSansMono-17" d="M 2297 4091 
L 825 1625 
L 2297 1625 
L 2297 4091 
z
M 2194 4666 
L 2925 4666 
L 2925 1625 
L 3547 1625 
L 3547 1113 
L 2925 1113 
L 2925 0 
L 2297 0 
L 2297 1113 
L 319 1113 
L 319 1709 
L 2194 4666 
z
" transform="scale(0.015625)"/>
     </defs>
     <use xlink:href="#DejaVuSansMono-10"/>
     <use xlink:href="#DejaVuSansMono-16" transform="translate(60.203125 0)"/>
     <use xlink:href="#DejaVuSansMono-17" transform="translate(120.40625 0)"/>
     <use xlink:href="#DejaVuSansMono-13" transform="translate(180.609375 0)"/>
     <use xlink:href="#DejaVuSansMono-72" transform="translate(240.8125 0)"/>
     <use xlink:href="#DejaVuSansMono-1d" transform="translate(301.015625 0)"/>
     <use xlink:href="#DejaVuSansMono-3" transform="translate(361.21875 0)"/>
     <use xlink:href="#DejaVuSansMono-44" transform="translate(421.421875 0)"/>
     <use xlink:href="#DejaVuSansMono-4f" transform="translate(481.625 0)"/>
     <use xlink:href="#DejaVuSansMono-4f" transform="translate(541.828125 0)"/>
     <use xlink:href="#DejaVuSansMono-52" transform="translate(602.03125 0)"/>
     <use xlink:href="#DejaVuSansMono-5a" transform="translate(662.234375 0)"/>
     <use xlink:href="#DejaVuSansMono-48" transform="translate(722.4375 0)"/>
     <use xlink:href="#DejaVuSansMono-47" transform="translate(782.640625 0)"/>
    </g>
   </g>
  </g>
 </g>
 <defs>
  <clipPath id="pfeb60a61e0">
   <rect x="21.6" y="21.6" width="268.854545" height="268.854545"/>
  </clipPath>
  <clipPath id="p25d471e615">
   <rect x="344.225455" y="21.6" width="268.854545" height="268.854545"/>
  </clipPath>
 </defs>
</svg>
